<?xml version="1.0" standalone="no"?>
<!DOCTYPE svg PUBLIC "-//W3C//DTD SVG 1.1//EN" "http://www.w3.org/Graphics/SVG/1.1/DTD/svg11.dtd" >
<svg xmlns="http://www.w3.org/2000/svg" xmlns:xlink="http://www.w3.org/1999/xlink" version="1.1">
<metadata>
Created by FontForge 20150522 at Tue Aug  4 15:40:34 2015
 By Christoph Haag,,,
Copyright (c) 2013 by Peter Wiegel.   Open Font under Terms of following Free Software Licenses:
GPL (General Public License) with font-exception and OFL (Open Font License
</metadata>
<defs>
<font id="SimplePrint-Regular" horiz-adv-x="781" >
  <font-face 
    font-family="Simple Print"
    font-weight="400"
    font-stretch="normal"
    units-per-em="2000"
    panose-1="2 11 6 3 5 3 2 2 2 4"
    ascent="1600"
    descent="-400"
    x-height="735"
    cap-height="1501.5"
    bbox="-321.66 -748.5 1609.5 2024.85"
    underline-thickness="50"
    underline-position="300"
    unicode-range="U+0020-FB06"
  />
<missing-glyph horiz-adv-x="747" 
 />
    <glyph glyph-name=".notdef" horiz-adv-x="747" 
 />
    <glyph glyph-name="nonmarkingreturn" horiz-adv-x="2490" 
 />
    <glyph glyph-name="space" unicode=" " horiz-adv-x="529" 
 />
    <glyph glyph-name="A" unicode="A" horiz-adv-x="1185" 
d="M367.5 675l-223.5 -684q-9 -31.5 -42 -21q-27 9 -21 40.5l477 1467v0v1.5v0q6 15 22.5 21q30 9 42 -21l477 -1468.5q10.5 -30 -21 -40.5t-43.5 21l-222 684h-445.5zM589.5 1359l-199.5 -616.5h402z" />
    <glyph glyph-name="B" unicode="B" horiz-adv-x="868" 
d="M361.5 700.5h-219v-667.5h219q178.5 0 271.5 87q93 82.5 93 247.5q0 160.5 -93 247.5q-93 85.5 -271.5 85.5zM100.5 -31.5q-25.5 7.5 -25.5 34.5v1465.5q0 33 33 33h0.75h2.25h247.5h0.75h2.25q204 0 318 -103.5q114 -108 114 -297q0 -192 -114 -297
q-49.5 -45 -115.5 -69q67.5 -28.5 115.5 -72q114 -105 114 -295.5t-114 -298.5q-115.5 -102 -318 -102h-253.5q-6 0 -7.5 1.5zM142.5 1435.5v-667.5h219q178.5 0 271.5 85.5t93 247.5t-93 247.5t-271.5 85.5q-3 0 -3 1.5h-216z" />
    <glyph glyph-name="C" unicode="C" horiz-adv-x="1026" 
d="M937.5 274.5q-58.5 -153 -156 -228q-102 -79.5 -240 -79.5q-228 0 -348 205.5q-63 103.5 -90.75 249t-27.75 313.5q0 165 27.75 309.75t90.75 251.25q120 205.5 348 205.5q138 0 240 -79.5q99 -78 156 -228q13.5 -33 -18 -43.5q-33 -12 -43.5 19.5
q-52.5 133.5 -135 199.5q-82.5 64.5 -199.5 64.5q-190.5 0 -291 -171q-57 -97.5 -82.5 -234.75t-25.5 -293.25q0 -160.5 25.5 -296.25t82.5 -231.75q100.5 -174 291 -174q115.5 0 199.5 66q84 64.5 135 199.5q10.5 30 43.5 19.5q31.5 -13.5 18 -43.5z" />
    <glyph glyph-name="D" unicode="D" horiz-adv-x="931" 
d="M390 1501.5q228 0 348 -205.5q63 -106.5 90.75 -251.25t27.75 -309.75q0 -168 -27.75 -313.5t-90.75 -249q-120 -205.5 -348 -205.5h-282q-33 0 -33 33v1468.5q0 33 33 33h282zM390 33q189 0 291 174q57 96 82.5 231.75t25.5 296.25q0 156 -25.5 293.25t-82.5 234.75
q-102 171 -291 171h-247.5v-1401h247.5z" />
    <glyph glyph-name="E" unicode="E" horiz-adv-x="823" 
d="M142.5 675v-642h573q33 0 33 -33t-33 -33h-607.5q-33 0 -33 33v708v760.5q0 33 33 33h607.5q33 0 33 -33q0 -34.5 -33 -34.5h-573v-691.5h573q33 0 33 -34.5q0 -33 -33 -33h-573z" />
    <glyph glyph-name="F" unicode="F" horiz-adv-x="823" 
d="M142.5 675v-675q0 -33 -34.5 -33q-33 0 -33 33v708v760.5q0 33 33 33h607.5q33 0 33 -33q0 -34.5 -33 -34.5h-573v-691.5h573q33 0 33 -34.5q0 -33 -33 -33h-573z" />
    <glyph glyph-name="G" unicode="G" horiz-adv-x="1144" 
d="M1038 675h-97.5v-675q0 -33 -34.5 -33q-33 0 -33 33v145.5q-40.5 -61.5 -91.5 -99q-102 -79.5 -240 -79.5q-228 0 -348 205.5q-63 103.5 -90.75 249t-27.75 313.5q0 165 27.75 309.75t90.75 251.25q120 205.5 348 205.5q138 0 240 -79.5q99 -78 156 -228
q13.5 -33 -18 -43.5q-33 -12 -43.5 19.5q-52.5 133.5 -135 199.5q-82.5 64.5 -199.5 64.5q-190.5 0 -291 -171q-57 -97.5 -82.5 -234.75t-25.5 -293.25q0 -160.5 25.5 -296.25t82.5 -231.75q100.5 -174 291 -174q115.5 0 199.5 66q82.5 64.5 132 193.5v382.5h-186
q-31.5 0 -31.5 33q0 34.5 31.5 34.5h219h132q31.5 0 31.5 -34.5q0 -33 -31.5 -33z" />
    <glyph glyph-name="H" unicode="H" horiz-adv-x="936" 
d="M861 1468.5v-1468.5q0 -33 -34.5 -33q-33 0 -33 33v678q-4.5 -3 -12 -3h-639v-675q0 -33 -34.5 -33q-33 0 -33 33v708v760.5q0 33 33 33q34.5 0 34.5 -33v-726h639q4.5 0 12 -3v729q0 33 33 33q34.5 0 34.5 -33z" />
    <glyph glyph-name="I" unicode="I" horiz-adv-x="640" 
d="M108 33h178.5v1401h-178.5q-33 0 -33 34.5q0 33 33 33h213h211.5q33 0 33 -33q0 -34.5 -33 -34.5h-178.5v-1401h178.5q33 0 33 -33t-33 -33h-211.5v0v0h-213q-33 0 -33 33t33 33z" />
    <glyph glyph-name="J" unicode="J" horiz-adv-x="793" 
d="M639 354v1080h-178.5q-33 0 -33 34.5q0 33 33 33h211.5h211.5q34.5 0 34.5 -33q0 -34.5 -34.5 -34.5h-177v-1080q0 -181.5 -81 -283.5q-82.5 -103.5 -235.5 -103.5q-150 0 -234 103.5q-81 100.5 -81 283.5q0 33 33 33q34.5 0 34.5 -33q0 -159 66 -241.5
q61.5 -79.5 181.5 -79.5t183 79.5q66 82.5 66 241.5z" />
    <glyph glyph-name="K" unicode="K" horiz-adv-x="931" 
d="M834 1446l-679.5 -711l679.5 -712.5q21 -22.5 -1.5 -45q-24 -24 -46.5 1.5l-643.5 672v-651q0 -33 -34.5 -33q-33 0 -33 33v735v733.5q0 33 33 33q34.5 0 34.5 -33v-651l643.5 673.5q22.5 22.5 46.5 1.5q24 -24 1.5 -46.5z" />
    <glyph glyph-name="L" unicode="L" horiz-adv-x="823" 
d="M142.5 1468.5v-1435.5h573q33 0 33 -33t-33 -33h-607.5q-33 0 -33 33v1468.5q0 33 33 33q34.5 0 34.5 -33z" />
    <glyph glyph-name="M" unicode="M" horiz-adv-x="1201" 
d="M1125 1473q1.5 -1.5 1.5 -4.5v-1468.5q0 -33 -34.5 -33q-33 0 -33 33v1263l-427.5 -1272v-0.75v-0.75q0 -1.5 -1.5 -1.5q-6 -13.5 -19.5 -18q-33 -10.5 -42 21l-426 1272v-1263q0 -33 -34.5 -33q-33 0 -33 33v1468.5v1.5v3q1.5 18 22.5 27q33 9 42 -21l460.5 -1374
l460.5 1374q9 30 42 21q19.5 -9 22.5 -27z" />
    <glyph glyph-name="N" unicode="N" horiz-adv-x="964" 
d="M889.5 1468.5v-1468.5q0 -33 -34.5 -33q-21 0 -30 21l-682.5 1341v-1329q0 -33 -34.5 -33q-33 0 -33 33v1468.5v0v1.5q0 19.5 18 27q30 15 45 -13.5l684 -1344v1329q0 33 33 33q34.5 0 34.5 -33z" />
    <glyph glyph-name="O" unicode="O" horiz-adv-x="1083" 
d="M541.5 1501.5q226.5 0 349.5 -205.5q60 -106.5 88.5 -251.25t28.5 -309.75q0 -168 -28.5 -313.5t-88.5 -249q-124.5 -205.5 -349.5 -205.5q-228 0 -348 205.5q-63 103.5 -90.75 249t-27.75 313.5q0 165 27.75 309.75t90.75 251.25q120 205.5 348 205.5zM832.5 1263
q-102 171 -291 171q-190.5 0 -291 -171q-57 -97.5 -82.5 -234.75t-25.5 -293.25q0 -160.5 25.5 -296.25t82.5 -231.75q100.5 -174 291 -174q189 0 291 174q55.5 96 82.5 231.75t27 296.25q0 156 -27 293.25t-82.5 234.75z" />
    <glyph glyph-name="P" unicode="P" horiz-adv-x="868" 
d="M361.5 700.5h-219v-700.5q0 -33 -34.5 -33q-33 0 -33 33v1468.5q0 33 33 33h0.75h2.25h247.5h0.75h2.25q204 0 318 -103.5q114 -108 114 -297q0 -192 -114 -297q-114 -103.5 -318 -103.5zM142.5 1435.5v-667.5h219q178.5 0 271.5 85.5t93 247.5t-93 247.5t-271.5 85.5
q-3 0 -3 1.5h-216z" />
    <glyph glyph-name="Q" unicode="Q" horiz-adv-x="1096" 
d="M949.5 -22.5l-117 115.5q-114 -126 -291 -126q-228 0 -348 205.5q-63 103.5 -90.75 249t-27.75 313.5q0 165 27.75 309.75t90.75 251.25q120 205.5 348 205.5q226.5 0 349.5 -205.5q60 -106.5 88.5 -251.25t28.5 -309.75q0 -168 -28.5 -313.5t-88.5 -249
q-13.5 -22.5 -16.5 -25.5l123 -123q24 -22.5 0 -46.5t-48 0zM825 195q6 7.5 7.5 12q55.5 96 82.5 231.75t27 296.25q0 156 -27 293.25t-82.5 234.75q-102 171 -291 171q-190.5 0 -291 -171q-57 -97.5 -82.5 -234.75t-25.5 -293.25q0 -160.5 25.5 -296.25t82.5 -231.75
q100.5 -174 291 -174q147 0 244.5 109.5l-267 264q-22.5 24 0 48q24 24 48 0z" />
    <glyph glyph-name="R" unicode="R" horiz-adv-x="880" 
d="M142.5 646.5v-646.5q0 -33 -34.5 -33q-33 0 -33 33v735v733.5v0.75v2.25q3 30 33 30h250.5h0.75h2.25q204 0 318 -103.5q114 -108 114 -297q0 -192 -114 -297q-114 -103.5 -318 -103.5h-178.5l601.5 -678q21 -24 -3 -46.5t-46.5 3zM142.5 1435.5v-667.5h219
q178.5 0 271.5 85.5t93 247.5t-93 247.5t-271.5 85.5q-3 0 -3 1.5h-216z" />
    <glyph glyph-name="S" unicode="S" horiz-adv-x="984" 
d="M147 294q49.5 -132 130.5 -196.5q79.5 -64.5 196.5 -64.5q141 0 237 76.5q91.5 70.5 105 189q22.5 204 -96.75 293.25t-260.25 152.25q-150 67.5 -267 154.5t-94.5 286.5q16.5 142.5 129 229.5q111 87 274.5 87q135 0 235.5 -76.5q97.5 -76.5 153 -222q9 -33 -19.5 -42
q-31.5 -15 -43.5 18q-48 127.5 -132 193.5q-81 61.5 -193.5 61.5q-141 0 -232.5 -73.5q-91.5 -67.5 -105 -183q-19.5 -163.5 84.75 -237.75t237.75 -134.25q159 -70.5 291 -172.5t106.5 -342q-19.5 -147 -130.5 -235.5q-117 -88.5 -279 -88.5q-135 1.5 -237 78
q-99 76.5 -151.5 226.5q-10.5 31.5 19.5 42q30 12 42 -19.5z" />
    <glyph glyph-name="T" unicode="T" horiz-adv-x="1042" 
d="M108 1501.5h414h412.5q33 0 33 -33q0 -34.5 -33 -34.5h-379.5v-1434q0 -33 -33 -33t-33 33v1434h-381q-33 0 -33 34.5q0 33 33 33z" />
    <glyph glyph-name="U" unicode="U" horiz-adv-x="1083" 
d="M1008 591q0 -135 -28.5 -254.25t-91.5 -203.25q-121.5 -166.5 -346.5 -166.5q-226.5 0 -346.5 166.5q-64.5 84 -92.25 203.25t-27.75 254.25v877.5q0 33 33 33q34.5 0 34.5 -33v-877.5q0 -273 105 -418.5q102 -139.5 294 -139.5q189 0 292.5 139.5q108 145.5 108 418.5
v877.5q0 33 31.5 33q34.5 0 34.5 -33v-877.5z" />
    <glyph glyph-name="V" unicode="V" horiz-adv-x="1183" 
d="M622.5 -9q0 -7.5 -9 -12.75t-22.5 -5.25t-23.25 5.25t-9.75 12.75l-477 1467q-6 31.5 21 42q33 9 42 -21l445.5 -1371l445.5 1371q10.5 30 43.5 21q30 -12 21 -42z" />
    <glyph glyph-name="W" unicode="W" horiz-adv-x="1641" 
d="M1141.5 -6l-321 1332l-321 -1332q-7.5 -34.5 -40.5 -25.5q-21 4.5 -24 25.5l-354 1467q-6 31.5 24 39q30 9 40.5 -24l321 -1333.5l321 1333.5q4.5 19.5 25.5 24q31.5 9 39 -24l322.5 -1333.5l321 1333.5q6 33 39 24q31.5 -7.5 25.5 -39l-354 -1467v-0.75v-0.75v0v-1.5v0
q-6 -18 -24 -22.5q-34.5 -9 -40.5 25.5z" />
    <glyph glyph-name="X" unicode="X" horiz-adv-x="961" 
d="M810 -13.5l-331.5 672l-330 -672q-15 -27 -45 -15q-28.5 15 -15 43.5l354 720l-354 718.5q-12 30 15 43.5q28.5 15 45 -13.5l330 -675l331.5 675q16.5 28.5 45 13.5q30 -13.5 15 -43.5l-354 -718.5l354 -720q16.5 -28.5 -15 -43.5q-30 -12 -45 15z" />
    <glyph glyph-name="Y" unicode="Y" horiz-adv-x="958" 
d="M147 1483.5l330 -675l331.5 675q16.5 28.5 45 13.5q30 -13.5 15 -43.5l-357 -726v-727.5q0 -33 -34.5 -33q-33 0 -33 33v727.5l-357 726q-12 30 15 43.5q28.5 15 45 -13.5z" />
    <glyph glyph-name="Z" unicode="Z" horiz-adv-x="937" 
d="M79.5 18l696 1416h-667.5q-33 0 -33 34.5q0 33 33 33h721.5q33 0 33 -33q0 -12 -4.5 -18l-696 -1417.5h667.5q33 0 33 -33t-33 -33h-721.5q-33 0 -33 33q0 10.5 4.5 18z" />
    <glyph glyph-name="a" unicode="a" 
d="M706.5 708v-354v-354q0 -33 -34.5 -33q-33 0 -33 33v90q-3 -6 -13.5 -19.5q-82.5 -103.5 -235.5 -103.5q-150 0 -234 103.5q-81 100.5 -81 283.5t81 283.5q84 105 234 105q151.5 0 235.5 -105q10.5 -12 13.5 -18v88.5q0 34.5 33 34.5q34.5 0 34.5 -34.5zM573 597
q-63 78 -183 78t-181.5 -78q-66 -85.5 -66 -243q0 -159 66 -241.5q61.5 -79.5 181.5 -79.5t183 79.5q66 82.5 66 241.5q0 157.5 -66 243z" />
    <glyph glyph-name="h" unicode="h" 
d="M639 354q0 157.5 -66 243q-63 78 -183 78t-181.5 -78q-66 -85.5 -66 -243v-354q0 -33 -34.5 -33q-33 0 -33 33v354v1114.5q0 33 33 33q34.5 0 34.5 -33v-849q3 6 13.5 18q84 105 234 105q151.5 0 235.5 -105q81 -103.5 81 -283.5v-354q0 -33 -34.5 -33q-33 0 -33 33v354z
" />
    <glyph glyph-name="o" unicode="o" horiz-adv-x="783" 
d="M390 675q-120 0 -181.5 -78q-66 -85.5 -66 -243q0 -159 66 -241.5q61.5 -79.5 181.5 -79.5t183 79.5q66 82.5 66 241.5q0 157.5 -66 243q-63 78 -183 78zM156 637.5q84 105 234 105q151.5 0 235.5 -105q81 -103.5 81 -283.5q0 -181.5 -81 -283.5
q-82.5 -103.5 -235.5 -103.5q-150 0 -234 103.5q-81 100.5 -81 283.5t81 283.5z" />
    <glyph glyph-name="c" unicode="c" horiz-adv-x="762" 
d="M675 159q-39 -96 -109.5 -144q-73.5 -48 -175.5 -48q-150 0 -234 103.5q-81 100.5 -81 283.5t81 283.5q84 105 234 105q100.5 0 175.5 -51q70.5 -46.5 109.5 -142.5q12 -33 -19.5 -43.5t-43.5 19.5q-28.5 73.5 -84 112.5q-55.5 37.5 -138 37.5q-120 0 -181.5 -78
q-66 -85.5 -66 -243q0 -159 66 -241.5q61.5 -79.5 181.5 -79.5q82.5 0 138 37.5t84 112.5q12 31.5 43.5 18q30 -10.5 19.5 -42z" />
    <glyph glyph-name="d" unicode="d" 
d="M573 114q66 84 66 241.5q0 159 -66 241.5q-63 79.5 -183 79.5q-118.5 0 -181.5 -79.5q-66 -82.5 -66 -241.5q0 -157.5 66 -241.5q63 -79.5 181.5 -79.5q120 0 183 79.5zM706.5 1.5q0 -34.5 -33 -34.5q-34.5 0 -34.5 34.5v90q-3 -7.5 -13.5 -19.5q-84 -105 -235.5 -105
q-150 0 -234 105q-81 100.5 -81 283.5t81 283.5q84 103.5 234 103.5q153 0 235.5 -103.5q10.5 -13.5 13.5 -19.5v846q0 33 34.5 33q33 0 33 -33v-1110v-354v0z" />
    <glyph glyph-name="e" unicode="e" horiz-adv-x="780" 
d="M207 597q-58.5 -75 -66 -210h496.5q-9 135 -66 210q-63 78 -183 78t-181.5 -78zM673.5 159q-39 -96 -109.5 -144q-73.5 -48 -175.5 -48q-150 0 -234 103.5q-48 58.5 -64.5 134.25t-16.5 149.25q0 183 81 283.5q84 105 234 105q151.5 0 235.5 -105q81 -103.5 81 -283.5
q0 -33 -34.5 -33h-529.5q7.5 -135 66 -208.5q61.5 -79.5 181.5 -79.5q82.5 0 138 37.5t84 112.5q12 31.5 43.5 18q30 -10.5 19.5 -42z" />
    <glyph glyph-name="f" unicode="f" horiz-adv-x="189" 
d="M444 1335q-21 49.5 -55.5 75q-37.5 24 -94.5 24q-81 0 -121.5 -52.5q-46.5 -57 -46.5 -166.5v-315h244.5q33 0 33 -31.5q0 -34.5 -33 -34.5h-244.5v-834q0 -33 -31.5 -33q-36 0 -36 33v834h-102q-33 0 -33 34.5q0 31.5 33 31.5h102v315q0 132 61.5 210
q61.5 76.5 174 76.5q76.5 0 130.5 -36q55.5 -37.5 81 -106.5q15 -33 -18 -45t-43.5 21z" />
    <glyph glyph-name="g" unicode="g" 
d="M169.5 -514.5q27 -73.5 84 -111q54 -37.5 136.5 -37.5q120 0 183 78q66 84 66 243v432q-3 -6 -13.5 -19.5q-82.5 -103.5 -235.5 -103.5q-150 0 -234 103.5q-81 100.5 -81 283.5t81 283.5q84 105 234 105q151.5 0 235.5 -105q10.5 -12 13.5 -18v88.5q0 34.5 33 34.5
q34.5 0 34.5 -34.5v-354v-696q0 -181.5 -81 -283.5q-84 -105 -235.5 -105q-100.5 0 -174 49.5q-72 48 -109.5 142.5q-13.5 33 19.5 43.5q30 12 43.5 -19.5zM573 597q-63 78 -183 78t-181.5 -78q-66 -85.5 -66 -243q0 -159 66 -241.5q61.5 -79.5 181.5 -79.5t183 79.5
q66 82.5 66 241.5q0 157.5 -66 243z" />
    <glyph glyph-name="i" unicode="i" horiz-adv-x="255" 
d="M160.5 708v-708q0 -33 -34.5 -33q-33 0 -33 33v708q0 34.5 33 34.5q34.5 0 34.5 -34.5zM54 1119q0 37.5 21.75 63.75t53.25 26.25t54 -26.25t22.5 -63.75t-22.5 -63t-54 -25.5t-53.25 25.5t-21.75 63z" />
    <glyph glyph-name="l" unicode="l" horiz-adv-x="217" 
d="M142.5 1468.5v-1468.5q0 -33 -34.5 -33q-33 0 -33 33v1468.5q0 33 33 33q34.5 0 34.5 -33z" />
    <glyph glyph-name="n" unicode="n" 
d="M639 354q0 157.5 -66 243q-63 78 -183 78t-181.5 -78q-66 -85.5 -66 -243v-354q0 -33 -34.5 -33q-33 0 -33 33v354v354q0 34.5 33 34.5q34.5 0 34.5 -34.5v-88.5q3 6 13.5 18q84 105 234 105q151.5 0 235.5 -105q81 -103.5 81 -283.5v-354q0 -33 -34.5 -33q-33 0 -33 33
v354z" />
    <glyph glyph-name="m" unicode="m" horiz-adv-x="1065" 
d="M922.5 354q0 160.5 -49.5 246q-48 75 -127.5 75q-85.5 0 -129 -75q-51 -88.5 -51 -246v-354q0 -33 -33 -33t-33 33v354q0 157.5 -51 246q-48 75 -127.5 75q-84 0 -127.5 -75q-51 -84 -51 -246v-354q0 -33 -34.5 -33q-33 0 -33 33v354v354q0 34.5 33 34.5
q34.5 0 34.5 -34.5v-63q64.5 97.5 178.5 97.5q120 0 184.5 -109.5q15 -27 27 -57q7.5 24 27 57q63 109.5 186 109.5q120 0 184.5 -109.5q60 -99 60 -279v-354q0 -33 -33 -33q-34.5 0 -34.5 33v354z" />
    <glyph glyph-name="p" unicode="p" 
d="M142.5 708v-88.5q3 6 13.5 18q84 105 234 105q151.5 0 235.5 -105q81 -103.5 81 -283.5q0 -181.5 -81 -283.5q-82.5 -103.5 -235.5 -103.5q-150 0 -234 103.5q-10.5 13.5 -13.5 19.5v-787.5q0 -33 -34.5 -33q-33 0 -33 33v1051.5v354q0 34.5 33 34.5q34.5 0 34.5 -34.5z
M390 675q-120 0 -181.5 -78q-66 -85.5 -66 -243q0 -159 66 -241.5q61.5 -79.5 181.5 -79.5t183 79.5q66 82.5 66 241.5q0 157.5 -66 243q-63 78 -183 78z" />
    <glyph glyph-name="q" unicode="q" horiz-adv-x="789" 
d="M918 273l-211.5 -495v-475.5q0 -33 -34.5 -33q-33 0 -33 33v787.5q-3 -6 -13.5 -19.5q-82.5 -103.5 -235.5 -103.5q-150 0 -234 103.5q-81 100.5 -81 283.5t81 283.5q84 105 234 105q151.5 0 235.5 -105q10.5 -12 13.5 -18v88.5q0 34.5 33 34.5q34.5 0 34.5 -34.5v-354
v-405l150 349.5q13.5 28.5 43.5 19.5q30 -13.5 18 -45zM573 597q-63 78 -183 78t-181.5 -78q-66 -85.5 -66 -243q0 -159 66 -241.5q61.5 -79.5 181.5 -79.5t183 79.5q66 82.5 66 241.5q0 157.5 -66 243z" />
    <glyph glyph-name="u" unicode="u" 
d="M142.5 354q0 -159 66 -241.5q61.5 -79.5 181.5 -79.5t183 79.5q66 82.5 66 241.5v354q0 34.5 33 34.5q34.5 0 34.5 -34.5v-354v-354q0 -33 -34.5 -33q-33 0 -33 33v90q-3 -6 -13.5 -19.5q-82.5 -103.5 -235.5 -103.5q-150 0 -234 103.5q-81 100.5 -81 283.5v354
q0 34.5 33 34.5q34.5 0 34.5 -34.5v-354z" />
    <glyph glyph-name="r" unicode="r" horiz-adv-x="762" 
d="M142.5 708v-88.5q3 6 13.5 18q84 105 234 105q100.5 0 175.5 -51q70.5 -46.5 109.5 -142.5q12 -33 -19.5 -43.5t-43.5 19.5q-28.5 73.5 -84 112.5q-55.5 37.5 -138 37.5q-120 0 -181.5 -78q-66 -85.5 -66 -243v-354q0 -33 -34.5 -33q-33 0 -33 33v354v354q0 34.5 33 34.5
q34.5 0 34.5 -34.5z" />
    <glyph glyph-name="s" unicode="s" horiz-adv-x="786" 
d="M147 151.5q33 -58.5 91.5 -87q57 -31.5 144 -31.5q102 0 174 36q60 33 67.5 79.5q15 84 -69 123.75t-184.5 69.75q-114 34.5 -203.25 79.5t-71.25 153q15 78 103.5 124.5q85.5 43.5 201 43.5q99 0 174 -37.5q72 -39 117 -114q18 -30 -12 -45q-30 -16.5 -45 12
q-33 57 -91.5 87t-142.5 30q-100.5 0 -171 -34.5q-60 -34.5 -67.5 -76.5q-12 -64.5 60.75 -98.25t167.25 -59.25q120 -36 220.5 -88.5t79.5 -181.5q-15 -81 -103.5 -126q-85.5 -43.5 -204 -43.5q-100.5 0 -175.5 37.5t-118.5 115.5q-13.5 30 15 45t43.5 -13.5z" />
    <glyph glyph-name="t" unicode="t" horiz-adv-x="601" 
d="M-27 900h120v568.5q0 33 34.5 33q33 0 33 -33v-568.5h226.5q33 0 33 -31.5q0 -34.5 -33 -34.5h-226.5v-582q0 -109.5 46.5 -166.5q39 -52.5 121.5 -52.5q55.5 0 93 25.5q34.5 24 57 76.5q10.5 30 43.5 18q30 -12 18 -42q-25.5 -70.5 -81 -108q-57 -36 -130.5 -36
q-112.5 0 -174 78q-61.5 75 -61.5 207v582h-120q-33 0 -33 34.5q0 31.5 33 31.5z" />
    <glyph glyph-name="j" unicode="j" horiz-adv-x="234" 
d="M-232.5 -562.5q19.5 -49.5 55.5 -76.5q37.5 -24 93 -24q82.5 0 123 51q45 58.5 45 168v1152q0 34.5 33 34.5t33 -34.5v-1152q0 -130.5 -58.5 -208.5q-60 -78 -175.5 -78q-73.5 0 -130.5 37.5q-52.5 36 -81 106.5q-9 31.5 19.5 42q31.5 15 43.5 -18zM45 1119
q0 37.5 21.75 63.75t53.25 26.25t54 -26.25t22.5 -63.75t-22.5 -63t-54 -25.5t-53.25 25.5t-21.75 63z" />
    <glyph glyph-name="v" unicode="v" horiz-adv-x="879" 
d="M790.5 694.5l-322.5 -706.5v0v-1.5v0v0v0v-1.5v0v0v0v-1.5v0v0l-3 -1.5v0v-1.5v0h-1.5v0v-1.5v0v0v0l-1.5 -1.5v0v0v0l-1.5 -1.5v0v0v0v-1.5v0v0v0h-1.5v0h-2.25t-0.75 -1.5v0v0h-1.5v0v-1.5v0v0v0v0h-1.5v0v0v0l-1.5 -1.5v0v0h-1.5v0v0v0q-7.5 -3 -10.5 -3v0v0v0
q-4.5 0 -12 3v0h-1.5v0v0v0h-1.5v1.5v0v0v0v0v0h-1.5v0v0v1.5h-1.5v0v0h-1.5q0 1.5 -0.75 1.5h-0.75v0h-1.5v0v0v0v1.5v0h-1.5v0v1.5v0v0h-1.5v1.5v0v0v0l-1.5 1.5v0v0v0v1.5v0l-3 1.5v0v0v1.5v0v0v0v1.5v0v0h-1.5v1.5v0l-321 706.5q-12 30 16.5 43.5t43.5 -16.5
l292.5 -640.5l289.5 640.5q12 28.5 45 16.5q30 -15 16.5 -43.5z" />
    <glyph glyph-name="w" unicode="w" horiz-adv-x="1192" 
d="M625.5 718.5l210 -613.5l208.5 613.5q12 31.5 43.5 21q30 -12 21 -42l-241.5 -708v0v0v0v0v0v0v-1.5v0q-3 -6 -7.5 -10.5q-3 -3 -10.5 -7.5v0v0h-1.5v0v0v0h-1.5v0v0l-1.5 -1.5v0v0v0v0v0v0h-2.25h-0.75v0l-0.75 -0.75l-0.75 -0.75v0h-0.75h-0.75v0v0h-0.75h-0.75v0v0v0
v0v0h-1.5v0v0v0h-1.5v0h-1.5v0v0v0v0h-2.25h-0.75v0v0.75v0.75v0h-0.75h-0.75v0h-1.5v0h-1.5v0v1.5v0v0h-1.5v0v0v0v0v0v0l-12 7.5q-4.5 4.5 -6 10.5v0v1.5v0h-1.5v0v0v0v0l-208.5 615l-210 -615v0v0v0h-1.5v0v0v-1.5v0q-1.5 -6 -7.5 -10.5q-1.5 -3 -9 -7.5v0v0h-1.5v0v0
h-1.5v0v0v0l-1.5 -1.5v0v0v0h-1.5v0h-0.75h-0.75v0l-0.75 -0.75l-0.75 -0.75v0h-0.75h-0.75v0v0h-0.75h-0.75v0v0v0h-1.5v0v0v0v0v0v0h-1.5v0h-1.5v0v0v0v0v0h-2.25h-0.75v0v0.75v0.75v0h-1.5v0v0h-1.5v0h-1.5v0v1.5v0v0h-1.5v0h-1.5v0v0v0v0l-10.5 7.5q-4.5 4.5 -6 10.5v0
l-1.5 1.5v0v0v0v0v0v0l-241.5 708q-6 31.5 21 42q33 10.5 42 -21l210 -613.5l208.5 613.5v0l1.5 1.5v0v0v1.5v0v0v0q1.5 4.5 7.5 10.5q3 4.5 9 6v0v1.5h1.5v0v0h1.5v0v0v0l1.5 1.5v0h1.5v0v0v0v0h0.75h0.75v0h0.75h0.75v0h0.75h0.75v0v0h0.75h0.75v0l1.5 1.5v0v0v0h1.5v0v0
v0v0v0l1.5 -1.5v0v0v0v0h0.75h2.25v0v0v0h1.5h0.75h0.75v0v0v0h1.5v0v-1.5v0v0h1.5v0h1.5v0v0l1.5 -1.5v0q4.5 -1.5 9 -6q6 -9 7.5 -10.5v0v0v0v-1.5v0v0v-1.5z" />
    <glyph glyph-name="x" unicode="x" horiz-adv-x="787" 
d="M145.5 729l246 -321l247.5 321q21 25.5 48 6q25.5 -22.5 4.5 -48l-258 -333l258 -334.5q21 -22.5 -4.5 -45q-27 -19.5 -48 7.5l-247.5 316.5l-246 -316.5q-21 -27 -48 -7.5q-22.5 22.5 -4.5 45l258 334.5l-258 333q-18 25.5 4.5 48q27 19.5 48 -6z" />
    <glyph glyph-name="y" unicode="y" horiz-adv-x="879" 
d="M790.5 694.5l-637.5 -1405.5q-13.5 -28.5 -45 -16.5q-30 15 -16.5 43.5l310.5 684l-315 694.5q-12 30 16.5 43.5t43.5 -16.5l292.5 -640.5l289.5 640.5q12 28.5 45 16.5q30 -15 16.5 -43.5z" />
    <glyph glyph-name="z" unicode="z" horiz-adv-x="763" 
d="M84 22.5l504 652.5h-480q-33 0 -33 33q0 34.5 33 34.5h547.5q33 0 33 -34.5q0 -16.5 -9 -22.5l-502.5 -652.5h478.5q33 0 33 -33t-33 -33h-547.5q-33 0 -33 33q0 10.5 9 22.5z" />
    <glyph glyph-name="question" unicode="?" horiz-adv-x="724" 
d="M-153 1203q52.5 145.5 151.5 222q97.5 76.5 237 76.5q159 0 273 -87q126 -94.5 133.5 -259.5t-54 -252t-139.5 -153q-76.5 -64.5 -138.75 -153.75t-48.75 -299.25q1.5 -34.5 -31.5 -34.5q-34.5 -3 -36 31.5q-15 234 55.5 334.5t156 172.5q67.5 58.5 122.25 133.5
t45.75 243q-15 115.5 -105 183q-94.5 73.5 -232.5 73.5q-115.5 0 -196.5 -61.5q-81 -64.5 -130.5 -193.5q-12 -33 -43.5 -18q-30 9 -18 42zM162 61.5q0 -37.5 21.75 -63t53.25 -25.5t54 25.5t22.5 63t-22.5 63.75t-54 26.25t-53.25 -26.25t-21.75 -63.75z" />
    <glyph glyph-name="b" unicode="b" 
d="M75 1.5v354v1110q0 33 33 33q34.5 0 34.5 -33v-846q3 6 13.5 19.5q82.5 103.5 235.5 103.5q150 0 234 -103.5q81 -100.5 81 -283.5t-81 -283.5q-84 -105 -234 -105q-151.5 0 -235.5 105q-10.5 12 -13.5 19.5v-90q0 -34.5 -34.5 -34.5q-33 0 -33 34.5zM208.5 114
q63 -79.5 183 -79.5q118.5 0 181.5 79.5q66 84 66 241.5q0 159 -66 241.5q-63 79.5 -181.5 79.5q-120 0 -183 -79.5q-66 -82.5 -66 -241.5q0 -157.5 66 -241.5z" />
    <glyph glyph-name="k" unicode="k" horiz-adv-x="733" 
d="M633 681l-466.5 -327l466.5 -327q24 -19.5 9 -45q-21 -27 -48 -7.5l-451.5 315v-289.5q0 -33 -34.5 -33q-33 0 -33 33v733.5v735q0 33 33 33q34.5 0 34.5 -33v-1050l451.5 318q27 16.5 48 -9q16.5 -28.5 -9 -46.5z" />
    <glyph glyph-name="greater" unicode="&#x3e;" horiz-adv-x="484" 
d="M145.5 729l288 -375l-288 -372q-21 -27 -48 -7.5q-22.5 22.5 -4.5 45l258 334.5l-258 333q-18 25.5 4.5 48q27 19.5 48 -6z" />
    <glyph glyph-name="less" unicode="&#x3c;" horiz-adv-x="484" 
d="M363 -19.5l-288 375l288 372q21 27 48 7.5q22.5 -22.5 4.5 -45l-258 -334.5l258 -333q18 -25.5 -4.5 -48q-27 -19.5 -48 6z" />
    <glyph glyph-name="exclam" unicode="!" horiz-adv-x="303" 
d="M78 61.5q0 -37.5 21.75 -63t53.25 -25.5t54 25.5t22.5 63t-22.5 63.75t-54 26.25t-53.25 -26.25t-21.75 -63.75zM180 1467v-1165.5q0 -33 -34.5 -33q-33 0 -33 33v1165.5q0 34.5 33 34.5q34.5 0 34.5 -34.5z" />
    <glyph glyph-name="period" unicode="." horiz-adv-x="303" 
d="M78 61.5q0 37.5 21.75 63.75t53.25 26.25t54 -26.25t22.5 -63.75t-22.5 -63t-54 -25.5t-53.25 25.5t-21.75 63z" />
    <glyph glyph-name="oe" unicode="&#x153;" horiz-adv-x="1345" 
d="M390 675q-120 0 -181.5 -78q-66 -85.5 -66 -243q0 -159 66 -241.5q61.5 -79.5 181.5 -79.5t183 79.5q66 82.5 66 241.5q0 157.5 -66 243q-63 78 -183 78zM156 637.5q84 105 234 105q151.5 0 235.5 -105q81 -103.5 81 -283.5q0 -181.5 -81 -283.5
q-82.5 -103.5 -235.5 -103.5q-150 0 -234 103.5q-81 100.5 -81 283.5t81 283.5zM772.5 597q-58.5 -75 -66 -210h496.5q-9 135 -66 210q-63 78 -183 78t-181.5 -78zM1239 159q-39 -96 -109.5 -144q-73.5 -48 -175.5 -48q-150 0 -234 103.5q-48 58.5 -64.5 134.25
t-16.5 149.25q0 183 81 283.5q84 105 234 105q151.5 0 235.5 -105q81 -103.5 81 -283.5q0 -33 -34.5 -33h-529.5q7.5 -135 66 -208.5q61.5 -79.5 181.5 -79.5q82.5 0 138 37.5t84 112.5q12 31.5 43.5 18q30 -10.5 19.5 -42z" />
    <glyph glyph-name="ae" unicode="&#xe6;" horiz-adv-x="1332" 
d="M106.5 549q39 96 109.5 144q73.5 48 175.5 48q150 0 234 -103.5q30 -37.5 46.5 -81q19.5 45 48 81q84 105 234 105q151.5 0 235.5 -105q81 -103.5 81 -283.5q0 -33 -34.5 -33h-529.5q7.5 -135 66 -208.5q61.5 -79.5 181.5 -79.5q82.5 0 138 37.5t84 112.5
q12 31.5 43.5 18q30 -10.5 19.5 -42q-39 -96 -109.5 -144q-73.5 -48 -175.5 -48q-150 0 -234 103.5q-30 36 -48 79.5q-19.5 -45 -46.5 -79.5q-84 -105 -252 -105q-270 10.5 -317.25 214.5t222.75 208.5l360 -1.5q-7.5 135 -66 208.5q-61.5 79.5 -181.5 79.5
q-82.5 0 -138 -37.5t-84 -112.5q-12 -31.5 -43.5 -18q-30 10.5 -19.5 42zM573 111q58.5 75 63 213l-357 3q-183 4.5 -160.5 -137.25t255 -156.75q138 0 199.5 78zM772.5 597q-58.5 -75 -66 -210h496.5q-9 135 -66 210q-63 78 -183 78t-181.5 -78z" />
    <glyph glyph-name="asciicircum" unicode="^" horiz-adv-x="879" 
d="M88.5 24l322.5 706.5q1.5 7.5 9.75 13.5t20.25 6t20.25 -6t9.75 -13.5l321 -706.5q12 -30 -16.5 -43.5t-43.5 16.5l-292.5 640.5l-289.5 -640.5q-12 -28.5 -45 -16.5q-30 15 -16.5 43.5z" />
    <glyph glyph-name="dieresis" unicode="&#xa8;" horiz-adv-x="450" 
d="M268.5 1119q0 37.5 21.75 63.75t53.25 26.25t54 -26.25t22.5 -63.75t-22.5 -63t-54 -25.5t-53.25 25.5t-21.75 63zM36 1119q0 37.5 21.75 63.75t53.25 26.25t54 -26.25t22.5 -63.75t-22.5 -63t-54 -25.5t-53.25 25.5t-21.75 63z" />
    <glyph glyph-name="ydieresis" unicode="&#xff;" horiz-adv-x="879" 
d="M790.5 694.5l-637.5 -1405.5q-13.5 -28.5 -45 -16.5q-30 15 -16.5 43.5l310.5 684l-315 694.5q-12 30 16.5 43.5t43.5 -16.5l292.5 -640.5l289.5 640.5q12 28.5 45 16.5q30 -15 16.5 -43.5zM480 1119q0 37.5 21.75 63.75t53.25 26.25t54 -26.25t22.5 -63.75t-22.5 -63
t-54 -25.5t-53.25 25.5t-21.75 63zM247.5 1119q0 37.5 21.75 63.75t53.25 26.25t54 -26.25t22.5 -63.75t-22.5 -63t-54 -25.5t-53.25 25.5t-21.75 63z" />
    <glyph glyph-name="udieresis" unicode="&#xfc;" 
d="M142.5 354q0 -159 66 -241.5q61.5 -79.5 181.5 -79.5t183 79.5q66 82.5 66 241.5v354q0 34.5 33 34.5q34.5 0 34.5 -34.5v-354v-354q0 -33 -34.5 -33q-33 0 -33 33v90q-3 -6 -13.5 -19.5q-82.5 -103.5 -235.5 -103.5q-150 0 -234 103.5q-81 100.5 -81 283.5v354
q0 34.5 33 34.5q34.5 0 34.5 -34.5v-354zM430.5 1119q0 37.5 21.75 63.75t53.25 26.25t54 -26.25t22.5 -63.75t-22.5 -63t-54 -25.5t-53.25 25.5t-21.75 63zM198 1119q0 37.5 21.75 63.75t53.25 26.25t54 -26.25t22.5 -63.75t-22.5 -63t-54 -25.5t-53.25 25.5t-21.75 63z
" />
    <glyph glyph-name="grave" unicode="`" horiz-adv-x="450" 
d="M84 1165.5q-28.5 16.5 -12 46.5q18 28.5 48 10.5l247.5 -148.5q28.5 -18 12 -45q-18 -30 -46.5 -13.5l-249 150v0z" />
    <glyph glyph-name="acute" unicode="&#xb4;" horiz-adv-x="450" 
d="M367.5 1165.5l-249 -150q-28.5 -16.5 -46.5 13.5q-16.5 27 12 45l247.5 148.5q30 18 48 -10.5q16.5 -30 -12 -46.5z" />
    <glyph glyph-name="ugrave" unicode="&#xf9;" 
d="M142.5 354q0 -159 66 -241.5q61.5 -79.5 181.5 -79.5t183 79.5q66 82.5 66 241.5v354q0 34.5 33 34.5q34.5 0 34.5 -34.5v-354v-354q0 -33 -34.5 -33q-33 0 -33 33v90q-3 -6 -13.5 -19.5q-82.5 -103.5 -235.5 -103.5q-150 0 -234 103.5q-81 100.5 -81 283.5v354
q0 34.5 33 34.5q34.5 0 34.5 -34.5v-354zM249 1165.5q-28.5 16.5 -12 46.5q18 28.5 48 10.5l247.5 -148.5q28.5 -18 12 -45q-18 -30 -46.5 -13.5l-249 150v0z" />
    <glyph glyph-name="uacute" unicode="&#xfa;" 
d="M142.5 354q0 -159 66 -241.5q61.5 -79.5 181.5 -79.5t183 79.5q66 82.5 66 241.5v354q0 34.5 33 34.5q34.5 0 34.5 -34.5v-354v-354q0 -33 -34.5 -33q-33 0 -33 33v90q-3 -6 -13.5 -19.5q-82.5 -103.5 -235.5 -103.5q-150 0 -234 103.5q-81 100.5 -81 283.5v354
q0 34.5 33 34.5q34.5 0 34.5 -34.5v-354zM532.5 1165.5l-249 -150q-28.5 -16.5 -46.5 13.5q-16.5 27 12 45l247.5 148.5q30 18 48 -10.5q16.5 -30 -12 -46.5z" />
    <glyph glyph-name="ellipsis" unicode="&#x2026;" horiz-adv-x="909" 
d="M78 61.5q0 37.5 21.75 63.75t53.25 26.25t54 -26.25t22.5 -63.75t-22.5 -63t-54 -25.5t-53.25 25.5t-21.75 63zM381 61.5q0 37.5 21.75 63.75t53.25 26.25t54 -26.25t22.5 -63.75t-22.5 -63t-54 -25.5t-53.25 25.5t-21.75 63zM684 61.5q0 37.5 21.75 63.75t53.25 26.25
t54 -26.25t22.5 -63.75t-22.5 -63t-54 -25.5t-53.25 25.5t-21.75 63z" />
    <glyph glyph-name="circumflex" unicode="&#x2c6;" horiz-adv-x="484" 
d="M84 1057.5l171 132l168 -130.5q27 -21 7.5 -48q-22.5 -22.5 -45 -4.5l-130.5 100.5l-129 -102q-25.5 -18 -48 4.5q-19.5 27 6 48z" />
    <glyph glyph-name="ucircumflex" unicode="&#xfb;" 
d="M142.5 354q0 -159 66 -241.5q61.5 -79.5 181.5 -79.5t183 79.5q66 82.5 66 241.5v354q0 34.5 33 34.5q34.5 0 34.5 -34.5v-354v-354q0 -33 -34.5 -33q-33 0 -33 33v90q-3 -6 -13.5 -19.5q-82.5 -103.5 -235.5 -103.5q-150 0 -234 103.5q-81 100.5 -81 283.5v354
q0 34.5 33 34.5q34.5 0 34.5 -34.5v-354zM220.5 1057.5l171 132l168 -130.5q27 -21 7.5 -48q-22.5 -22.5 -45 -4.5l-130.5 100.5l-129 -102q-25.5 -18 -48 4.5q-19.5 27 6 48z" />
    <glyph glyph-name="yacute" unicode="&#xfd;" horiz-adv-x="879" 
d="M790.5 694.5l-637.5 -1405.5q-13.5 -28.5 -45 -16.5q-30 15 -16.5 43.5l310.5 684l-315 694.5q-12 30 16.5 43.5t43.5 -16.5l292.5 -640.5l289.5 640.5q12 28.5 45 16.5q30 -15 16.5 -43.5zM580.5 1165.5l-249 -150q-28.5 -16.5 -46.5 13.5q-16.5 27 12 45l247.5 148.5
q30 18 48 -10.5q16.5 -30 -12 -46.5z" />
    <glyph glyph-name="slash" unicode="/" horiz-adv-x="810" 
d="M780 1452l-693 -1431q-13.5 -30 -45 -15q-30 13.5 -15 43.5l691.5 1432.5q15 30 45 15t16.5 -45z" />
    <glyph glyph-name="oslash" unicode="&#xf8;" horiz-adv-x="783" 
d="M156 637.5q84 105 234 105q144 0 228 -96l84 87q24 22.5 48 0q22.5 -24 0 -48l-94.5 -96q51 -94.5 51 -235.5q0 -181.5 -81 -283.5q-82.5 -103.5 -235.5 -103.5q-150 0 -234 103.5l-3 3l-73.5 -75q-22.5 -24 -48 0q-24 22.5 0 46.5l85.5 87q-42 90 -42 222
q0 183 81 283.5zM208.5 112.5q61.5 -79.5 181.5 -79.5t183 79.5q66 82.5 66 241.5q0 109.5 -33 184.5l-406.5 -415.5q4.5 -6 9 -10.5zM390 675q-120 0 -181.5 -78q-66 -85.5 -66 -243q0 -100.5 25.5 -169.5l403.5 414q-63 76.5 -181.5 76.5z" />
    <glyph glyph-name="odieresis" unicode="&#xf6;" horiz-adv-x="783" 
d="M390 675q-120 0 -181.5 -78q-66 -85.5 -66 -243q0 -159 66 -241.5q61.5 -79.5 181.5 -79.5t183 79.5q66 82.5 66 241.5q0 157.5 -66 243q-63 78 -183 78zM156 637.5q84 105 234 105q151.5 0 235.5 -105q81 -103.5 81 -283.5q0 -181.5 -81 -283.5
q-82.5 -103.5 -235.5 -103.5q-150 0 -234 103.5q-81 100.5 -81 283.5t81 283.5zM432 1119q0 37.5 21.75 63.75t53.25 26.25t54 -26.25t22.5 -63.75t-22.5 -63t-54 -25.5t-53.25 25.5t-21.75 63zM199.5 1119q0 37.5 21.75 63.75t53.25 26.25t54 -26.25t22.5 -63.75t-22.5 -63
t-54 -25.5t-53.25 25.5t-21.75 63z" />
    <glyph glyph-name="ocircumflex" unicode="&#xf4;" horiz-adv-x="783" 
d="M390 675q-120 0 -181.5 -78q-66 -85.5 -66 -243q0 -159 66 -241.5q61.5 -79.5 181.5 -79.5t183 79.5q66 82.5 66 241.5q0 157.5 -66 243q-63 78 -183 78zM156 637.5q84 105 234 105q151.5 0 235.5 -105q81 -103.5 81 -283.5q0 -181.5 -81 -283.5
q-82.5 -103.5 -235.5 -103.5q-150 0 -234 103.5q-81 100.5 -81 283.5t81 283.5zM220.5 1057.5l171 132l168 -130.5q27 -21 7.5 -48q-22.5 -22.5 -45 -4.5l-130.5 100.5l-129 -102q-25.5 -18 -48 4.5q-19.5 27 6 48z" />
    <glyph glyph-name="oacute" unicode="&#xf3;" horiz-adv-x="783" 
d="M390 675q-120 0 -181.5 -78q-66 -85.5 -66 -243q0 -159 66 -241.5q61.5 -79.5 181.5 -79.5t183 79.5q66 82.5 66 241.5q0 157.5 -66 243q-63 78 -183 78zM156 637.5q84 105 234 105q151.5 0 235.5 -105q81 -103.5 81 -283.5q0 -181.5 -81 -283.5
q-82.5 -103.5 -235.5 -103.5q-150 0 -234 103.5q-81 100.5 -81 283.5t81 283.5zM532.5 1165.5l-249 -150q-28.5 -16.5 -46.5 13.5q-16.5 27 12 45l247.5 148.5q30 18 48 -10.5q16.5 -30 -12 -46.5z" />
    <glyph glyph-name="ograve" unicode="&#xf2;" horiz-adv-x="783" 
d="M390 675q-120 0 -181.5 -78q-66 -85.5 -66 -243q0 -159 66 -241.5q61.5 -79.5 181.5 -79.5t183 79.5q66 82.5 66 241.5q0 157.5 -66 243q-63 78 -183 78zM156 637.5q84 105 234 105q151.5 0 235.5 -105q81 -103.5 81 -283.5q0 -181.5 -81 -283.5
q-82.5 -103.5 -235.5 -103.5q-150 0 -234 103.5q-81 100.5 -81 283.5t81 283.5zM249 1165.5q-28.5 16.5 -12 46.5q18 28.5 48 10.5l247.5 -148.5q28.5 -18 12 -45q-18 -30 -46.5 -13.5l-249 150v0z" />
    <glyph glyph-name="idieresis" unicode="&#xef;" horiz-adv-x="217" 
d="M142.5 708v-708q0 -33 -34.5 -33q-33 0 -33 33v708q0 34.5 33 34.5q34.5 0 34.5 -34.5zM150 1119q0 37.5 21.75 63.75t53.25 26.25t54 -26.25t22.5 -63.75t-22.5 -63t-54 -25.5t-53.25 25.5t-21.75 63zM-82.5 1119q0 37.5 21.75 63.75t53.25 26.25t54 -26.25t22.5 -63.75
t-22.5 -63t-54 -25.5t-53.25 25.5t-21.75 63z" />
    <glyph glyph-name="icircumflex" unicode="&#xee;" horiz-adv-x="217" 
d="M142.5 708v-708q0 -33 -34.5 -33q-33 0 -33 33v708q0 34.5 33 34.5q34.5 0 34.5 -34.5zM-61.5 1057.5l171 132l168 -130.5q27 -21 7.5 -48q-22.5 -22.5 -45 -4.5l-130.5 100.5l-129 -102q-25.5 -18 -48 4.5q-19.5 27 6 48z" />
    <glyph glyph-name="iacute" unicode="&#xed;" horiz-adv-x="217" 
d="M142.5 708v-708q0 -33 -34.5 -33q-33 0 -33 33v708q0 34.5 33 34.5q34.5 0 34.5 -34.5zM250.5 1165.5l-249 -150q-28.5 -16.5 -46.5 13.5q-16.5 27 12 45l247.5 148.5q30 18 48 -10.5q16.5 -30 -12 -46.5z" />
    <glyph glyph-name="igrave" unicode="&#xec;" horiz-adv-x="217" 
d="M142.5 708v-708q0 -33 -34.5 -33q-33 0 -33 33v708q0 34.5 33 34.5q34.5 0 34.5 -34.5zM-33 1165.5q-28.5 16.5 -12 46.5q18 28.5 48 10.5l247.5 -148.5q28.5 -18 12 -45q-18 -30 -46.5 -13.5l-249 150v0z" />
    <glyph glyph-name="edieresis" unicode="&#xeb;" horiz-adv-x="708" 
d="M138 597q-58.5 -75 -66 -210h496.5q-9 135 -66 210q-63 78 -183 78t-181.5 -78zM604.5 159q-39 -96 -109.5 -144q-73.5 -48 -175.5 -48q-150 0 -234 103.5q-48 58.5 -64.5 134.25t-16.5 149.25q0 183 81 283.5q84 105 234 105q151.5 0 235.5 -105q81 -103.5 81 -283.5
q0 -33 -34.5 -33h-529.5q7.5 -135 66 -208.5q61.5 -79.5 181.5 -79.5q82.5 0 138 37.5t84 112.5q12 31.5 43.5 18q30 -10.5 19.5 -42zM394.5 1119q0 37.5 21.75 63.75t53.25 26.25t54 -26.25t22.5 -63.75t-22.5 -63t-54 -25.5t-53.25 25.5t-21.75 63zM162 1119
q0 37.5 21.75 63.75t53.25 26.25t54 -26.25t22.5 -63.75t-22.5 -63t-54 -25.5t-53.25 25.5t-21.75 63z" />
    <glyph glyph-name="ecircumflex" unicode="&#xea;" horiz-adv-x="708" 
d="M138 597q-58.5 -75 -66 -210h496.5q-9 135 -66 210q-63 78 -183 78t-181.5 -78zM604.5 159q-39 -96 -109.5 -144q-73.5 -48 -175.5 -48q-150 0 -234 103.5q-48 58.5 -64.5 134.25t-16.5 149.25q0 183 81 283.5q84 105 234 105q151.5 0 235.5 -105q81 -103.5 81 -283.5
q0 -33 -34.5 -33h-529.5q7.5 -135 66 -208.5q61.5 -79.5 181.5 -79.5q82.5 0 138 37.5t84 112.5q12 31.5 43.5 18q30 -10.5 19.5 -42zM183 1057.5l171 132l168 -130.5q27 -21 7.5 -48q-22.5 -22.5 -45 -4.5l-130.5 100.5l-129 -102q-25.5 -18 -48 4.5q-19.5 27 6 48z" />
    <glyph glyph-name="eacute" unicode="&#xe9;" horiz-adv-x="708" 
d="M138 597q-58.5 -75 -66 -210h496.5q-9 135 -66 210q-63 78 -183 78t-181.5 -78zM604.5 159q-39 -96 -109.5 -144q-73.5 -48 -175.5 -48q-150 0 -234 103.5q-48 58.5 -64.5 134.25t-16.5 149.25q0 183 81 283.5q84 105 234 105q151.5 0 235.5 -105q81 -103.5 81 -283.5
q0 -33 -34.5 -33h-529.5q7.5 -135 66 -208.5q61.5 -79.5 181.5 -79.5q82.5 0 138 37.5t84 112.5q12 31.5 43.5 18q30 -10.5 19.5 -42zM495 1165.5l-249 -150q-28.5 -16.5 -46.5 13.5q-16.5 27 12 45l247.5 148.5q30 18 48 -10.5q16.5 -30 -12 -46.5z" />
    <glyph glyph-name="egrave" unicode="&#xe8;" horiz-adv-x="708" 
d="M138 597q-58.5 -75 -66 -210h496.5q-9 135 -66 210q-63 78 -183 78t-181.5 -78zM604.5 159q-39 -96 -109.5 -144q-73.5 -48 -175.5 -48q-150 0 -234 103.5q-48 58.5 -64.5 134.25t-16.5 149.25q0 183 81 283.5q84 105 234 105q151.5 0 235.5 -105q81 -103.5 81 -283.5
q0 -33 -34.5 -33h-529.5q7.5 -135 66 -208.5q61.5 -79.5 181.5 -79.5q82.5 0 138 37.5t84 112.5q12 31.5 43.5 18q30 -10.5 19.5 -42zM211.5 1165.5q-28.5 16.5 -12 46.5q18 28.5 48 10.5l247.5 -148.5q28.5 -18 12 -45q-18 -30 -46.5 -13.5l-249 150v0z" />
    <glyph glyph-name="adieresis" unicode="&#xe4;" 
d="M706.5 708v-354v-354q0 -33 -34.5 -33q-33 0 -33 33v90q-3 -6 -13.5 -19.5q-82.5 -103.5 -235.5 -103.5q-150 0 -234 103.5q-81 100.5 -81 283.5t81 283.5q84 105 234 105q151.5 0 235.5 -105q10.5 -12 13.5 -18v88.5q0 34.5 33 34.5q34.5 0 34.5 -34.5zM573 597
q-63 78 -183 78t-181.5 -78q-66 -85.5 -66 -243q0 -159 66 -241.5q61.5 -79.5 181.5 -79.5t183 79.5q66 82.5 66 241.5q0 157.5 -66 243zM430.5 1119q0 37.5 21.75 63.75t53.25 26.25t54 -26.25t22.5 -63.75t-22.5 -63t-54 -25.5t-53.25 25.5t-21.75 63zM198 1119
q0 37.5 21.75 63.75t53.25 26.25t54 -26.25t22.5 -63.75t-22.5 -63t-54 -25.5t-53.25 25.5t-21.75 63z" />
    <glyph glyph-name="acircumflex" unicode="&#xe2;" 
d="M706.5 708v-354v-354q0 -33 -34.5 -33q-33 0 -33 33v90q-3 -6 -13.5 -19.5q-82.5 -103.5 -235.5 -103.5q-150 0 -234 103.5q-81 100.5 -81 283.5t81 283.5q84 105 234 105q151.5 0 235.5 -105q10.5 -12 13.5 -18v88.5q0 34.5 33 34.5q34.5 0 34.5 -34.5zM573 597
q-63 78 -183 78t-181.5 -78q-66 -85.5 -66 -243q0 -159 66 -241.5q61.5 -79.5 181.5 -79.5t183 79.5q66 82.5 66 241.5q0 157.5 -66 243zM220.5 1057.5l171 132l168 -130.5q27 -21 7.5 -48q-22.5 -22.5 -45 -4.5l-130.5 100.5l-129 -102q-25.5 -18 -48 4.5q-19.5 27 6 48z
" />
    <glyph glyph-name="aacute" unicode="&#xe1;" 
d="M706.5 708v-354v-354q0 -33 -34.5 -33q-33 0 -33 33v90q-3 -6 -13.5 -19.5q-82.5 -103.5 -235.5 -103.5q-150 0 -234 103.5q-81 100.5 -81 283.5t81 283.5q84 105 234 105q151.5 0 235.5 -105q10.5 -12 13.5 -18v88.5q0 34.5 33 34.5q34.5 0 34.5 -34.5zM573 597
q-63 78 -183 78t-181.5 -78q-66 -85.5 -66 -243q0 -159 66 -241.5q61.5 -79.5 181.5 -79.5t183 79.5q66 82.5 66 241.5q0 157.5 -66 243zM532.5 1165.5l-249 -150q-28.5 -16.5 -46.5 13.5q-16.5 27 12 45l247.5 148.5q30 18 48 -10.5q16.5 -30 -12 -46.5z" />
    <glyph glyph-name="agrave" unicode="&#xe0;" 
d="M706.5 708v-354v-354q0 -33 -34.5 -33q-33 0 -33 33v90q-3 -6 -13.5 -19.5q-82.5 -103.5 -235.5 -103.5q-150 0 -234 103.5q-81 100.5 -81 283.5t81 283.5q84 105 234 105q151.5 0 235.5 -105q10.5 -12 13.5 -18v88.5q0 34.5 33 34.5q34.5 0 34.5 -34.5zM573 597
q-63 78 -183 78t-181.5 -78q-66 -85.5 -66 -243q0 -159 66 -241.5q61.5 -79.5 181.5 -79.5t183 79.5q66 82.5 66 241.5q0 157.5 -66 243zM249 1165.5q-28.5 16.5 -12 46.5q18 28.5 48 10.5l247.5 -148.5q28.5 -18 12 -45q-18 -30 -46.5 -13.5l-249 150v0z" />
    <glyph glyph-name="Udieresis" unicode="&#xdc;" horiz-adv-x="1083" 
d="M1008 591q0 -135 -28.5 -254.25t-91.5 -203.25q-121.5 -166.5 -346.5 -166.5q-226.5 0 -346.5 166.5q-64.5 84 -92.25 203.25t-27.75 254.25v877.5q0 33 33 33q34.5 0 34.5 -33v-877.5q0 -273 105 -418.5q102 -139.5 294 -139.5q189 0 292.5 139.5q108 145.5 108 418.5
v877.5q0 33 31.5 33q34.5 0 34.5 -33v-877.5zM582 1869q0 37.5 21.75 63.75t53.25 26.25t54 -26.25t22.5 -63.75t-22.5 -63t-54 -25.5t-53.25 25.5t-21.75 63zM349.5 1869q0 37.5 21.75 63.75t53.25 26.25t54 -26.25t22.5 -63.75t-22.5 -63t-54 -25.5t-53.25 25.5t-21.75 63
z" />
    <glyph glyph-name="Yacute" unicode="&#xdd;" horiz-adv-x="958" 
d="M147 1483.5l330 -675l331.5 675q16.5 28.5 45 13.5q30 -13.5 15 -43.5l-357 -726v-727.5q0 -33 -34.5 -33q-33 0 -33 33v727.5l-357 726q-12 30 15 43.5q28.5 15 45 -13.5zM621 1915.5l-249 -150q-28.5 -16.5 -46.5 13.5q-16.5 27 12 45l247.5 148.5q30 18 48 -10.5
q16.5 -30 -12 -46.5z" />
    <glyph glyph-name="Ucircumflex" unicode="&#xdb;" horiz-adv-x="1083" 
d="M1008 591q0 -135 -28.5 -254.25t-91.5 -203.25q-121.5 -166.5 -346.5 -166.5q-226.5 0 -346.5 166.5q-64.5 84 -92.25 203.25t-27.75 254.25v877.5q0 33 33 33q34.5 0 34.5 -33v-877.5q0 -273 105 -418.5q102 -139.5 294 -139.5q189 0 292.5 139.5q108 145.5 108 418.5
v877.5q0 33 31.5 33q34.5 0 34.5 -33v-877.5zM370.5 1807.5l171 132l168 -130.5q27 -21 7.5 -48q-22.5 -22.5 -45 -4.5l-130.5 100.5l-129 -102q-25.5 -18 -48 4.5q-19.5 27 6 48z" />
    <glyph glyph-name="Uacute" unicode="&#xda;" horiz-adv-x="1083" 
d="M1008 591q0 -135 -28.5 -254.25t-91.5 -203.25q-121.5 -166.5 -346.5 -166.5q-226.5 0 -346.5 166.5q-64.5 84 -92.25 203.25t-27.75 254.25v877.5q0 33 33 33q34.5 0 34.5 -33v-877.5q0 -273 105 -418.5q102 -139.5 294 -139.5q189 0 292.5 139.5q108 145.5 108 418.5
v877.5q0 33 31.5 33q34.5 0 34.5 -33v-877.5zM682.5 1915.5l-249 -150q-28.5 -16.5 -46.5 13.5q-16.5 27 12 45l247.5 148.5q30 18 48 -10.5q16.5 -30 -12 -46.5z" />
    <glyph glyph-name="Ugrave" unicode="&#xd9;" horiz-adv-x="1083" 
d="M1008 591q0 -135 -28.5 -254.25t-91.5 -203.25q-121.5 -166.5 -346.5 -166.5q-226.5 0 -346.5 166.5q-64.5 84 -92.25 203.25t-27.75 254.25v877.5q0 33 33 33q34.5 0 34.5 -33v-877.5q0 -273 105 -418.5q102 -139.5 294 -139.5q189 0 292.5 139.5q108 145.5 108 418.5
v877.5q0 33 31.5 33q34.5 0 34.5 -33v-877.5zM399 1915.5q-28.5 16.5 -12 46.5q18 28.5 48 10.5l247.5 -148.5q28.5 -18 12 -45q-18 -30 -46.5 -13.5l-249 150v0z" />
    <glyph glyph-name="Oslash" unicode="&#xd8;" horiz-adv-x="1083" 
d="M541.5 1501.5q226.5 0 349.5 -205.5q60 -106.5 88.5 -251.25t28.5 -309.75q0 -168 -28.5 -313.5t-88.5 -249q-124.5 -205.5 -349.5 -205.5q-228 0 -348 205.5q-63 103.5 -90.75 249t-27.75 313.5q0 165 27.75 309.75t90.75 251.25q120 205.5 348 205.5zM832.5 1263
q-102 171 -291 171q-190.5 0 -291 -171q-57 -97.5 -82.5 -234.75t-25.5 -293.25q0 -160.5 25.5 -296.25t82.5 -231.75q100.5 -174 291 -174q189 0 291 174q55.5 96 82.5 231.75t27 296.25q0 156 -27 293.25t-82.5 234.75zM918 1452l-693 -1431q-13.5 -30 -45 -15
q-30 13.5 -15 43.5l691.5 1432.5q15 30 45 15t16.5 -45z" />
    <glyph glyph-name="Odieresis" unicode="&#xd6;" horiz-adv-x="1083" 
d="M541.5 1501.5q226.5 0 349.5 -205.5q60 -106.5 88.5 -251.25t28.5 -309.75q0 -168 -28.5 -313.5t-88.5 -249q-124.5 -205.5 -349.5 -205.5q-228 0 -348 205.5q-63 103.5 -90.75 249t-27.75 313.5q0 165 27.75 309.75t90.75 251.25q120 205.5 348 205.5zM832.5 1263
q-102 171 -291 171q-190.5 0 -291 -171q-57 -97.5 -82.5 -234.75t-25.5 -293.25q0 -160.5 25.5 -296.25t82.5 -231.75q100.5 -174 291 -174q189 0 291 174q55.5 96 82.5 231.75t27 296.25q0 156 -27 293.25t-82.5 234.75zM582 1869q0 37.5 21.75 63.75t53.25 26.25
t54 -26.25t22.5 -63.75t-22.5 -63t-54 -25.5t-53.25 25.5t-21.75 63zM349.5 1869q0 37.5 21.75 63.75t53.25 26.25t54 -26.25t22.5 -63.75t-22.5 -63t-54 -25.5t-53.25 25.5t-21.75 63z" />
    <glyph glyph-name="Ocircumflex" unicode="&#xd4;" horiz-adv-x="1083" 
d="M541.5 1501.5q226.5 0 349.5 -205.5q60 -106.5 88.5 -251.25t28.5 -309.75q0 -168 -28.5 -313.5t-88.5 -249q-124.5 -205.5 -349.5 -205.5q-228 0 -348 205.5q-63 103.5 -90.75 249t-27.75 313.5q0 165 27.75 309.75t90.75 251.25q120 205.5 348 205.5zM832.5 1263
q-102 171 -291 171q-190.5 0 -291 -171q-57 -97.5 -82.5 -234.75t-25.5 -293.25q0 -160.5 25.5 -296.25t82.5 -231.75q100.5 -174 291 -174q189 0 291 174q55.5 96 82.5 231.75t27 296.25q0 156 -27 293.25t-82.5 234.75zM370.5 1807.5l171 132l168 -130.5q27 -21 7.5 -48
q-22.5 -22.5 -45 -4.5l-130.5 100.5l-129 -102q-25.5 -18 -48 4.5q-19.5 27 6 48z" />
    <glyph glyph-name="Oacute" unicode="&#xd3;" horiz-adv-x="1083" 
d="M541.5 1501.5q226.5 0 349.5 -205.5q60 -106.5 88.5 -251.25t28.5 -309.75q0 -168 -28.5 -313.5t-88.5 -249q-124.5 -205.5 -349.5 -205.5q-228 0 -348 205.5q-63 103.5 -90.75 249t-27.75 313.5q0 165 27.75 309.75t90.75 251.25q120 205.5 348 205.5zM832.5 1263
q-102 171 -291 171q-190.5 0 -291 -171q-57 -97.5 -82.5 -234.75t-25.5 -293.25q0 -160.5 25.5 -296.25t82.5 -231.75q100.5 -174 291 -174q189 0 291 174q55.5 96 82.5 231.75t27 296.25q0 156 -27 293.25t-82.5 234.75zM682.5 1915.5l-249 -150q-28.5 -16.5 -46.5 13.5
q-16.5 27 12 45l247.5 148.5q30 18 48 -10.5q16.5 -30 -12 -46.5z" />
    <glyph glyph-name="Ograve" unicode="&#xd2;" horiz-adv-x="1083" 
d="M541.5 1501.5q226.5 0 349.5 -205.5q60 -106.5 88.5 -251.25t28.5 -309.75q0 -168 -28.5 -313.5t-88.5 -249q-124.5 -205.5 -349.5 -205.5q-228 0 -348 205.5q-63 103.5 -90.75 249t-27.75 313.5q0 165 27.75 309.75t90.75 251.25q120 205.5 348 205.5zM832.5 1263
q-102 171 -291 171q-190.5 0 -291 -171q-57 -97.5 -82.5 -234.75t-25.5 -293.25q0 -160.5 25.5 -296.25t82.5 -231.75q100.5 -174 291 -174q189 0 291 174q55.5 96 82.5 231.75t27 296.25q0 156 -27 293.25t-82.5 234.75zM399 1915.5q-28.5 16.5 -12 46.5q18 28.5 48 10.5
l247.5 -148.5q28.5 -18 12 -45q-18 -30 -46.5 -13.5l-249 150v0z" />
    <glyph glyph-name="Idieresis" unicode="&#xcf;" horiz-adv-x="640" 
d="M108 33h178.5v1401h-178.5q-33 0 -33 34.5q0 33 33 33h213h211.5q33 0 33 -33q0 -34.5 -33 -34.5h-178.5v-1401h178.5q33 0 33 -33t-33 -33h-211.5v0v0h-213q-33 0 -33 33t33 33zM360 1869q0 37.5 21.75 63.75t53.25 26.25t54 -26.25t22.5 -63.75t-22.5 -63t-54 -25.5
t-53.25 25.5t-21.75 63zM127.5 1869q0 37.5 21.75 63.75t53.25 26.25t54 -26.25t22.5 -63.75t-22.5 -63t-54 -25.5t-53.25 25.5t-21.75 63z" />
    <glyph glyph-name="Icircumflex" unicode="&#xce;" horiz-adv-x="640" 
d="M108 33h178.5v1401h-178.5q-33 0 -33 34.5q0 33 33 33h213h211.5q33 0 33 -33q0 -34.5 -33 -34.5h-178.5v-1401h178.5q33 0 33 -33t-33 -33h-211.5v0v0h-213q-33 0 -33 33t33 33zM150 1807.5l171 132l168 -130.5q27 -21 7.5 -48q-22.5 -22.5 -45 -4.5l-130.5 100.5
l-129 -102q-25.5 -18 -48 4.5q-19.5 27 6 48z" />
    <glyph glyph-name="Iacute" unicode="&#xcd;" horiz-adv-x="640" 
d="M108 33h178.5v1401h-178.5q-33 0 -33 34.5q0 33 33 33h213h211.5q33 0 33 -33q0 -34.5 -33 -34.5h-178.5v-1401h178.5q33 0 33 -33t-33 -33h-211.5v0v0h-213q-33 0 -33 33t33 33zM462 1915.5l-249 -150q-28.5 -16.5 -46.5 13.5q-16.5 27 12 45l247.5 148.5
q30 18 48 -10.5q16.5 -30 -12 -46.5z" />
    <glyph glyph-name="Igrave" unicode="&#xcc;" horiz-adv-x="640" 
d="M108 33h178.5v1401h-178.5q-33 0 -33 34.5q0 33 33 33h213h211.5q33 0 33 -33q0 -34.5 -33 -34.5h-178.5v-1401h178.5q33 0 33 -33t-33 -33h-211.5v0v0h-213q-33 0 -33 33t33 33zM178.5 1915.5q-28.5 16.5 -12 46.5q18 28.5 48 10.5l247.5 -148.5q28.5 -18 12 -45
q-18 -30 -46.5 -13.5l-249 150v0z" />
    <glyph glyph-name="Edieresis" unicode="&#xcb;" horiz-adv-x="823" 
d="M142.5 675v-642h573q33 0 33 -33t-33 -33h-607.5q-33 0 -33 33v708v760.5q0 33 33 33h607.5q33 0 33 -33q0 -34.5 -33 -34.5h-573v-691.5h573q33 0 33 -34.5q0 -33 -33 -33h-573zM451.5 1869q0 37.5 21.75 63.75t53.25 26.25t54 -26.25t22.5 -63.75t-22.5 -63t-54 -25.5
t-53.25 25.5t-21.75 63zM219 1869q0 37.5 21.75 63.75t53.25 26.25t54 -26.25t22.5 -63.75t-22.5 -63t-54 -25.5t-53.25 25.5t-21.75 63z" />
    <glyph glyph-name="Ecircumflex" unicode="&#xca;" horiz-adv-x="823" 
d="M142.5 675v-642h573q33 0 33 -33t-33 -33h-607.5q-33 0 -33 33v708v760.5q0 33 33 33h607.5q33 0 33 -33q0 -34.5 -33 -34.5h-573v-691.5h573q33 0 33 -34.5q0 -33 -33 -33h-573zM241.5 1807.5l171 132l168 -130.5q27 -21 7.5 -48q-22.5 -22.5 -45 -4.5l-130.5 100.5
l-129 -102q-25.5 -18 -48 4.5q-19.5 27 6 48z" />
    <glyph glyph-name="Eacute" unicode="&#xc9;" horiz-adv-x="823" 
d="M142.5 675v-642h573q33 0 33 -33t-33 -33h-607.5q-33 0 -33 33v708v760.5q0 33 33 33h607.5q33 0 33 -33q0 -34.5 -33 -34.5h-573v-691.5h573q33 0 33 -34.5q0 -33 -33 -33h-573zM553.5 1915.5l-249 -150q-28.5 -16.5 -46.5 13.5q-16.5 27 12 45l247.5 148.5
q30 18 48 -10.5q16.5 -30 -12 -46.5z" />
    <glyph glyph-name="Egrave" unicode="&#xc8;" horiz-adv-x="823" 
d="M142.5 675v-642h573q33 0 33 -33t-33 -33h-607.5q-33 0 -33 33v708v760.5q0 33 33 33h607.5q33 0 33 -33q0 -34.5 -33 -34.5h-573v-691.5h573q33 0 33 -34.5q0 -33 -33 -33h-573zM270 1915.5q-28.5 16.5 -12 46.5q18 28.5 48 10.5l247.5 -148.5q28.5 -18 12 -45
q-18 -30 -46.5 -13.5l-249 150v0z" />
    <glyph glyph-name="AE" unicode="&#xc6;" horiz-adv-x="1368" 
d="M31.5 -22.5q-30 13.5 -15 43.5l702 1461q10.5 22.5 31.5 19.5h3h532.5q33 0 33 -33q0 -34.5 -33 -34.5h-498v-691.5h498q33 0 33 -34.5q0 -33 -33 -33h-498v-642h498q33 0 33 -33t-33 -33h-532.5q-33 0 -33 33v675h-316.5l-327 -682.5q-13.5 -30 -45 -15zM720 742.5v585
l-283.5 -585h283.5z" />
    <glyph glyph-name="Adieresis" unicode="&#xc4;" horiz-adv-x="1185" 
d="M367.5 675l-223.5 -684q-9 -31.5 -42 -21q-27 9 -21 40.5l477 1467v0v1.5v0q6 15 22.5 21q30 9 42 -21l477 -1468.5q10.5 -30 -21 -40.5t-43.5 21l-222 684h-445.5zM589.5 1359l-199.5 -616.5h402zM633 1869q0 37.5 21.75 63.75t53.25 26.25t54 -26.25t22.5 -63.75
t-22.5 -63t-54 -25.5t-53.25 25.5t-21.75 63zM400.5 1869q0 37.5 21.75 63.75t53.25 26.25t54 -26.25t22.5 -63.75t-22.5 -63t-54 -25.5t-53.25 25.5t-21.75 63z" />
    <glyph glyph-name="Acircumflex" unicode="&#xc2;" horiz-adv-x="1185" 
d="M367.5 675l-223.5 -684q-9 -31.5 -42 -21q-27 9 -21 40.5l477 1467v0v1.5v0q6 15 22.5 21q30 9 42 -21l477 -1468.5q10.5 -30 -21 -40.5t-43.5 21l-222 684h-445.5zM589.5 1359l-199.5 -616.5h402zM421.5 1807.5l171 132l168 -130.5q27 -21 7.5 -48q-22.5 -22.5 -45 -4.5
l-130.5 100.5l-129 -102q-25.5 -18 -48 4.5q-19.5 27 6 48z" />
    <glyph glyph-name="Aacute" unicode="&#xc1;" horiz-adv-x="1185" 
d="M367.5 675l-223.5 -684q-9 -31.5 -42 -21q-27 9 -21 40.5l477 1467v0v1.5v0q6 15 22.5 21q30 9 42 -21l477 -1468.5q10.5 -30 -21 -40.5t-43.5 21l-222 684h-445.5zM589.5 1359l-199.5 -616.5h402zM733.5 1915.5l-249 -150q-28.5 -16.5 -46.5 13.5q-16.5 27 12 45
l247.5 148.5q30 18 48 -10.5q16.5 -30 -12 -46.5z" />
    <glyph glyph-name="Agrave" unicode="&#xc0;" horiz-adv-x="1185" 
d="M367.5 675l-223.5 -684q-9 -31.5 -42 -21q-27 9 -21 40.5l477 1467v0v1.5v0q6 15 22.5 21q30 9 42 -21l477 -1468.5q10.5 -30 -21 -40.5t-43.5 21l-222 684h-445.5zM589.5 1359l-199.5 -616.5h402zM450 1915.5q-28.5 16.5 -12 46.5q18 28.5 48 10.5l247.5 -148.5
q28.5 -18 12 -45q-18 -30 -46.5 -13.5l-249 150v0z" />
    <glyph glyph-name="zero" unicode="0" horiz-adv-x="1009" 
d="M504 -33q-184.5 0 -307.5 232.5q-121.5 220.5 -121.5 535.5q0 312 121.5 534q123 232.5 307.5 232.5t309 -232.5q121.5 -222 121.5 -534q0 -315 -121.5 -535.5q-124.5 -232.5 -309 -232.5zM255 231q105 -198 249 -198t250.5 198q112.5 204 112.5 504
q0 295.5 -112.5 502.5q-106.5 196.5 -250.5 196.5t-249 -196.5q-112.5 -210 -112.5 -502.5q0 -297 112.5 -504z" />
    <glyph glyph-name="one" unicode="1" horiz-adv-x="217" 
d="M142.5 1468.5v-1468.5q0 -33 -34.5 -33q-33 0 -33 33v1468.5q0 33 33 33q34.5 0 34.5 -33z" />
    <glyph glyph-name="two" unicode="2" horiz-adv-x="955" 
d="M75 993q0 208.5 115.5 357q117 151.5 286.5 151.5t288 -151.5q115.5 -151.5 115.5 -357q0 -117 -37.5 -219q-42 -105 -109.5 -175.5v-0.75v-0.75l-547.5 -564h661.5q33 0 33 -33t-33 -33h-739.5q-33 0 -33 33q0 13.5 10.5 25.5l598.5 618v0v0q63 66 96 154.5
q34.5 91.5 34.5 195q0 183 -102 315q-97.5 126 -235.5 126t-234 -126q-102 -132 -102 -315q0 -34.5 -33 -34.5t-33 34.5z" />
    <glyph glyph-name="three" unicode="3" horiz-adv-x="955" 
d="M75 1101q0 166.5 117 283.5q118.5 117 285 117t286.5 -117q117 -117 117 -283.5q0 -168 -117 -283.5q-54 -52.5 -124.5 -82.5q73.5 -36 124.5 -85.5q117 -117 117 -282q0 -166.5 -117 -283.5q-118.5 -117 -286.5 -117t-285 117t-117 283.5q0 33 33 33t33 -33
q0 -138 99 -237q99 -97.5 237 -97.5q139.5 0 238.5 97.5q99 99 99 237t-99 235.5t-238.5 97.5q-33 0 -33 34.5q0 33 33 33q139.5 0 238.5 97.5t99 235.5t-99 235.5t-238.5 97.5q-138 0 -237 -97.5t-99 -235.5q0 -33 -33 -33t-33 33z" />
    <glyph glyph-name="four" unicode="4" horiz-adv-x="951" 
d="M537 1468.5v-726h306q33 0 33 -34.5q0 -33 -33 -33h-306v-675q0 -33 -31.5 -33q-34.5 0 -34.5 33v675h-358.5v0v0h-0.75h-0.75q-36 1.5 -30 36l31.5 -3l-31.5 3l52.5 759q3 33 36 31.5q31.5 -3 30 -36l-51 -723h322.5v726q0 33 34.5 33q31.5 0 31.5 -33z" />
    <glyph glyph-name="five" unicode="5" horiz-adv-x="955" 
d="M141 475.5q0 -186 102 -316.5q97.5 -126 234 -126t235.5 126q102 130.5 102 316.5q0 187.5 -106.5 321q-93 123 -231 123q-88.5 0 -165 -58.5q-78 -60 -121.5 -157.5q-1.5 -1.5 -2.25 -3l-0.75 -1.5q-1.5 0 -2.25 -2.25l-0.75 -2.25q-13.5 -31.5 -43.5 -16.5
q-22.5 9 -19.5 34.5v0l60 757.5q0 33 33 33h568.5q33 0 33 -34.5q0 -33 -33 -33h-538.5l-45 -589.5q30 36 72 67.5q94.5 72 205.5 72q169.5 0 285 -147q58.5 -76.5 88.5 -174t30 -189q0 -208.5 -115.5 -355.5q-117 -153 -288 -153t-286.5 153q-115.5 145.5 -115.5 355.5
q0 33 33 33t33 -33z" />
    <glyph glyph-name="six" unicode="6" horiz-adv-x="955" 
d="M477 919.5q-136.5 0 -234 -127.5q-102 -132 -102 -316.5q0 -186 102 -316.5q97.5 -126 234 -126t235.5 126q102 130.5 102 316.5q0 184.5 -102 316.5q-99 127.5 -235.5 127.5zM556.5 1453.5l-255 -519q82.5 51 175.5 51q171 0 288 -153q115.5 -150 115.5 -357
q0 -208.5 -115.5 -355.5q-117 -153 -288 -153t-286.5 153q-115.5 145.5 -115.5 355.5q0 151.5 64.5 277.5l357 730.5q13.5 28.5 45 13.5q27 -13.5 15 -43.5z" />
    <glyph glyph-name="seven" unicode="7" horiz-adv-x="865" 
d="M109.5 1501.5h646.5q34.5 0 34.5 -33q0 -7.5 -1.5 -10.5l-385.5 -1465.5q-10.5 -33 -42 -24q-33 10.5 -24 40.5l376.5 1425h-604.5q-34.5 0 -34.5 34.5q0 33 34.5 33z" />
    <glyph glyph-name="eight" unicode="8" horiz-adv-x="955" 
d="M240 603q-99 -97.5 -99 -235.5t99 -237q99 -97.5 237 -97.5q139.5 0 238.5 97.5q99 99 99 237t-99 235.5q-112.5 103.5 -241.5 99.75t-234 -99.75zM316.5 735q-72 30 -124.5 82.5q-117 115.5 -117 283.5q0 166.5 117 283.5q118.5 117 285 117t286.5 -117
q117 -117 117 -283.5q0 -168 -117 -283.5q-54 -52.5 -124.5 -82.5q73.5 -36 124.5 -85.5q117 -117 117 -282q0 -166.5 -117 -283.5q-118.5 -117 -286.5 -117t-285 117t-117 283.5q0 165 117 282q49.5 49.5 124.5 85.5zM240 865.5q97.5 -97.5 237 -97.5t238.5 97.5t99 235.5
t-99 235.5t-238.5 97.5q-138 0 -237 -97.5t-99 -235.5t99 -235.5z" />
    <glyph glyph-name="nine" unicode="9" horiz-adv-x="955" 
d="M477 550.5q138 0 235.5 126q102 130.5 102 316.5q0 183 -102 315q-97.5 126 -235.5 126t-234 -126q-102 -132 -102 -315q0 -186 102 -316.5q96 -126 234 -126zM399 15l255 517.5q-84 -49.5 -177 -49.5q-169.5 0 -286.5 151.5q-115.5 147 -115.5 358.5q0 208.5 115.5 357
q117 151.5 286.5 151.5t288 -151.5q115.5 -151.5 115.5 -357q0 -154.5 -64.5 -279l-357 -727.5q-13.5 -28.5 -43.5 -15q-33 13.5 -16.5 43.5z" />
    <glyph glyph-name="at" unicode="@" horiz-adv-x="841" 
d="M577.5 -135q-58.5 -37.5 -120 -55.5q-66 -18 -132 -18q-202.5 0 -336 139.5q-141 136.5 -141 336q0 198 141 337.5q136.5 139.5 336 139.5h5.25h11.25v0h0.75h2.25q186 -7.5 321 -139.5q136.5 -135 136.5 -322.5v-6.75v-8.25q-1.5 -42 -12 -103.5t-37.5 -111
q-46.5 -87 -127.5 -87q-123 0 -151.5 90q-72 -90 -190.5 -90q-120 0 -186 81q-63 81 -63 220.5q0 124.5 56.25 214.5t192.75 90q114 0 181.5 -78v64.5q0 31.5 33 31.5q34.5 0 34.5 -31.5v-291v-100.5q-1.5 -81 21 -108t70.5 -27q40.5 0 69 52.5q22.5 40.5 31.5 93.75
t10.5 90.75q1.5 3 1.5 13.5q0 156 -117 276q-118.5 112.5 -277.5 120h-1.5v0v0h-8.25h-6.75q-172.5 0 -291 -120q-118.5 -123 -118.5 -291t118.5 -288q118.5 -121.5 291 -121.5q52.5 0 112.5 16.5q57 18 105 46.5q27 19.5 46.5 -10.5q16.5 -27 -12 -45zM283.5 504
q-100.5 0 -141.75 -69.75t-41.25 -167.25q0 -117 49.5 -178.5q45 -57 133.5 -57t132 57q49.5 60 49.5 178.5q0 117 -49.5 180q-46.5 57 -132 57z" />
    <glyph glyph-name="equal" unicode="=" horiz-adv-x="810" 
d="M613.5 391.5l-423 1.5q-36 0 -34.5 36q-1.5 33 34.5 33h424.5q33 0 34.5 -36q0 -34.5 -36 -34.5zM613.5 639l-426 3q-34.5 0 -33 34.5q0 34.5 33 34.5h427.5q33 -1.5 34.5 -36q0 -36 -36 -36z" />
    <glyph glyph-name="tilde" unicode="&#x2dc;" horiz-adv-x="669" 
d="M7.5 981q36 48 70.5 84t75 49.5q88.5 28.5 183 -97.5q33 -48 70.5 -57q19.5 -6 39 -1.5q18 6 40.5 21q55.5 40.5 78 111q9 33 42 25.5q33 -12 24 -43.5q-28.5 -94.5 -102 -148.5q-33 -25.5 -66 -31.5q-40.5 -10.5 -76.5 1.5q-58.5 18 -105 82.5q-64.5 87 -106.5 72
q-25.5 -7.5 -53.25 -38.25t-59.25 -71.25q-21 -30 -48 -7.5t-6 49.5z" />
    <glyph glyph-name="Atilde" unicode="&#xc3;" horiz-adv-x="1185" 
d="M367.5 675l-223.5 -684q-9 -31.5 -42 -21q-27 9 -21 40.5l477 1467v0v1.5v0q6 15 22.5 21q30 9 42 -21l477 -1468.5q10.5 -30 -21 -40.5t-43.5 21l-222 684h-445.5zM589.5 1359l-199.5 -616.5h402zM286.5 1731q36 48 70.5 84t75 49.5q88.5 28.5 183 -97.5
q33 -48 70.5 -57q19.5 -6 39 -1.5q18 6 40.5 21q55.5 40.5 78 111q9 33 42 25.5q33 -12 24 -43.5q-28.5 -94.5 -102 -148.5q-33 -25.5 -66 -31.5q-40.5 -10.5 -76.5 1.5q-58.5 18 -105 82.5q-64.5 87 -106.5 72q-25.5 -7.5 -53.25 -38.25t-59.25 -71.25q-21 -30 -48 -7.5
t-6 49.5z" />
    <glyph glyph-name="ring" unicode="&#x2da;" horiz-adv-x="292" 
d="M232.5 1074q0 36 -25.5 60.75t-61.5 24.75q-34.5 0 -60 -24.75t-25.5 -60.75q0 -34.5 25.5 -59.25t60 -24.75q36 0 61.5 24.75t25.5 59.25zM1.5 1074q0 30 11.25 57t30.75 47.25t45.75 31.5t56.25 11.25t56.25 -11.25t45.75 -31.5t30.75 -47.25t11.25 -57
q0 -61.5 -42 -103.5t-102 -42t-102 42t-42 103.5z" />
    <glyph glyph-name="caron" unicode="&#x2c7;" horiz-adv-x="484" 
d="M424.5 1119l-171 -132l-168 130.5q-27 21 -7.5 48q22.5 22.5 45 4.5l130.5 -100.5l129 102q25.5 18 48 -4.5q19.5 -27 -6 -48z" />
    <glyph glyph-name="aring" unicode="&#xe5;" 
d="M481.5 1074q0 36 -25.5 60.75t-61.5 24.75q-34.5 0 -60 -24.75t-25.5 -60.75q0 -34.5 25.5 -59.25t60 -24.75q36 0 61.5 24.75t25.5 59.25zM250.5 1074q0 30 11.25 57t30.75 47.25t45.75 31.5t56.25 11.25t56.25 -11.25t45.75 -31.5t30.75 -47.25t11.25 -57
q0 -61.5 -42 -103.5t-102 -42t-102 42t-42 103.5zM706.5 708v-354v-354q0 -33 -34.5 -33q-33 0 -33 33v90q-3 -6 -13.5 -19.5q-82.5 -103.5 -235.5 -103.5q-150 0 -234 103.5q-81 100.5 -81 283.5t81 283.5q84 105 234 105q151.5 0 235.5 -105q10.5 -12 13.5 -18v88.5
q0 34.5 33 34.5q34.5 0 34.5 -34.5zM573 597q-63 78 -183 78t-181.5 -78q-66 -85.5 -66 -243q0 -159 66 -241.5q61.5 -79.5 181.5 -79.5t183 79.5q66 82.5 66 241.5q0 157.5 -66 243z" />
    <glyph glyph-name="atilde" unicode="&#xe3;" 
d="M706.5 708v-354v-354q0 -33 -34.5 -33q-33 0 -33 33v90q-3 -6 -13.5 -19.5q-82.5 -103.5 -235.5 -103.5q-150 0 -234 103.5q-81 100.5 -81 283.5t81 283.5q84 105 234 105q151.5 0 235.5 -105q10.5 -12 13.5 -18v88.5q0 34.5 33 34.5q34.5 0 34.5 -34.5zM573 597
q-63 78 -183 78t-181.5 -78q-66 -85.5 -66 -243q0 -159 66 -241.5q61.5 -79.5 181.5 -79.5t183 79.5q66 82.5 66 241.5q0 157.5 -66 243zM85.5 981q36 48 70.5 84t75 49.5q88.5 28.5 183 -97.5q33 -48 70.5 -57q19.5 -6 39 -1.5q18 6 40.5 21q55.5 40.5 78 111q9 33 42 25.5
q33 -12 24 -43.5q-28.5 -94.5 -102 -148.5q-33 -25.5 -66 -31.5q-40.5 -10.5 -76.5 1.5q-58.5 18 -105 82.5q-64.5 87 -106.5 72q-25.5 -7.5 -53.25 -38.25t-59.25 -71.25q-21 -30 -48 -7.5t-6 49.5z" />
    <glyph glyph-name="otilde" unicode="&#xf5;" horiz-adv-x="783" 
d="M390 675q-120 0 -181.5 -78q-66 -85.5 -66 -243q0 -159 66 -241.5q61.5 -79.5 181.5 -79.5t183 79.5q66 82.5 66 241.5q0 157.5 -66 243q-63 78 -183 78zM156 637.5q84 105 234 105q151.5 0 235.5 -105q81 -103.5 81 -283.5q0 -181.5 -81 -283.5
q-82.5 -103.5 -235.5 -103.5q-150 0 -234 103.5q-81 100.5 -81 283.5t81 283.5zM85.5 981q36 48 70.5 84t75 49.5q88.5 28.5 183 -97.5q33 -48 70.5 -57q19.5 -6 39 -1.5q18 6 40.5 21q55.5 40.5 78 111q9 33 42 25.5q33 -12 24 -43.5q-28.5 -94.5 -102 -148.5
q-33 -25.5 -66 -31.5q-40.5 -10.5 -76.5 1.5q-58.5 18 -105 82.5q-64.5 87 -106.5 72q-25.5 -7.5 -53.25 -38.25t-59.25 -71.25q-21 -30 -48 -7.5t-6 49.5z" />
    <glyph glyph-name="ntilde" unicode="&#xf1;" 
d="M639 354q0 157.5 -66 243q-63 78 -183 78t-181.5 -78q-66 -85.5 -66 -243v-354q0 -33 -34.5 -33q-33 0 -33 33v354v354q0 34.5 33 34.5q34.5 0 34.5 -34.5v-88.5q3 6 13.5 18q84 105 234 105q151.5 0 235.5 -105q81 -103.5 81 -283.5v-354q0 -33 -34.5 -33q-33 0 -33 33
v354zM85.5 981q36 48 70.5 84t75 49.5q88.5 28.5 183 -97.5q33 -48 70.5 -57q19.5 -6 39 -1.5q18 6 40.5 21q55.5 40.5 78 111q9 33 42 25.5q33 -12 24 -43.5q-28.5 -94.5 -102 -148.5q-33 -25.5 -66 -31.5q-40.5 -10.5 -76.5 1.5q-58.5 18 -105 82.5q-64.5 87 -106.5 72
q-25.5 -7.5 -53.25 -38.25t-59.25 -71.25q-21 -30 -48 -7.5t-6 49.5z" />
    <glyph glyph-name="Aring" unicode="&#xc5;" horiz-adv-x="1185" 
d="M367.5 675l-223.5 -684q-9 -31.5 -42 -21q-27 9 -21 40.5l477 1467v0v1.5v0q6 15 22.5 21q30 9 42 -21l477 -1468.5q10.5 -30 -21 -40.5t-43.5 21l-222 684h-445.5zM589.5 1359l-199.5 -616.5h402zM679.5 1824q0 36 -25.5 60.75t-61.5 24.75q-34.5 0 -60 -24.75
t-25.5 -60.75q0 -34.5 25.5 -59.25t60 -24.75q36 0 61.5 24.75t25.5 59.25zM448.5 1824q0 30 11.25 57t30.75 47.25t45.75 31.5t56.25 11.25t56.25 -11.25t45.75 -31.5t30.75 -47.25t11.25 -57q0 -61.5 -42 -103.5t-102 -42t-102 42t-42 103.5z" />
    <glyph glyph-name="Ntilde" unicode="&#xd1;" horiz-adv-x="964" 
d="M889.5 1468.5v-1468.5q0 -33 -34.5 -33q-21 0 -30 21l-682.5 1341v-1329q0 -33 -34.5 -33q-33 0 -33 33v1468.5v0v1.5q0 19.5 18 27q30 15 45 -13.5l684 -1344v1329q0 33 33 33q34.5 0 34.5 -33zM177 1731q36 48 70.5 84t75 49.5q88.5 28.5 183 -97.5q33 -48 70.5 -57
q19.5 -6 39 -1.5q18 6 40.5 21q55.5 40.5 78 111q9 33 42 25.5q33 -12 24 -43.5q-28.5 -94.5 -102 -148.5q-33 -25.5 -66 -31.5q-40.5 -10.5 -76.5 1.5q-58.5 18 -105 82.5q-64.5 87 -106.5 72q-25.5 -7.5 -53.25 -38.25t-59.25 -71.25q-21 -30 -48 -7.5t-6 49.5z" />
    <glyph glyph-name="colon" unicode=":" horiz-adv-x="303" 
d="M78 670.5q0 37.5 21.75 63.75t53.25 26.25t54 -26.25t22.5 -63.75t-22.5 -63t-54 -25.5t-53.25 25.5t-21.75 63zM78 61.5q0 37.5 21.75 63.75t53.25 26.25t54 -26.25t22.5 -63.75t-22.5 -63t-54 -25.5t-53.25 25.5t-21.75 63z" />
    <glyph glyph-name="quoteleft" unicode="&#x2018;" horiz-adv-x="568" 
d="M331.5 1149q16.5 -33 -38.25 -65.25t-80.25 5.25q-48 64.5 -4.5 178.5q31.5 90 127.5 232.5q19.5 28.5 48 9q27 -21 10.5 -48q-93 -135 -121.5 -216q-27 -75 10.5 -72t48 -24z" />
    <glyph glyph-name="quoteright" unicode="&#x2019;" horiz-adv-x="522" 
d="M355.5 1431q-16.5 33 38.25 65.25t80.25 -5.25q49.5 -64.5 6 -178.5q-31.5 -90 -129 -231q-19.5 -30 -48 -10.5q-27 21 -9 48q91.5 135 120 216q28.5 75 -9.75 72t-48.75 24z" />
    <glyph glyph-name="quotedblleft" unicode="&#x201c;" horiz-adv-x="763" 
d="M331.5 1149q16.5 -33 -38.25 -65.25t-78.75 5.25q-49.5 64.5 -6 178.5q31.5 90 127.5 232.5q21 28.5 48 9q27 -21 10.5 -48q-93 -135 -121.5 -216q-27 -75 10.5 -72t48 -24zM553.5 1149q16.5 -33 -38.25 -65.25t-80.25 5.25q-48 64.5 -6 178.5q33 90 129 232.5
q19.5 28.5 48 9q25.5 -21 9 -48q-91.5 -135 -120 -216q-28.5 -75 9.75 -72t48.75 -24z" />
    <glyph glyph-name="quotedblright" unicode="&#x201d;" horiz-adv-x="718" 
d="M561 1431q-15 33 39 65.25t79.5 -5.25q49.5 -64.5 6 -178.5q-31.5 -90 -129 -231q-19.5 -30 -48 -10.5q-27 21 -9 48q91.5 135 121.5 216q25.5 75 -12 72t-48 24zM339 1431q-15 33 39.75 65.25t80.25 -5.25q48 -64.5 4.5 -178.5q-31.5 -90 -127.5 -231
q-19.5 -30 -49.5 -10.5q-25.5 21 -9 48q91.5 135 121.5 216q27 75 -10.5 72t-49.5 24z" />
    <glyph glyph-name="bullet" unicode="&#x2022;" horiz-adv-x="495" 
d="M376.5 699q49.5 -7.5 66 -52.5t13.5 -85.5q-4.5 -49.5 -35.25 -99.75t-89.25 -42.75q-52.5 10.5 -67.5 59.25t-6 96.75q6 42 36 87.75t82.5 36.75z" />
    <glyph glyph-name="endash" unicode="&#x2013;" horiz-adv-x="813" 
d="M711 501l-621 1.5q-36 0 -34.5 36q-1.5 33 34.5 33h622.5q31.5 -1.5 33 -37.5q0 -34.5 -34.5 -33z" />
    <glyph glyph-name="emdash" unicode="&#x2014;" horiz-adv-x="981" 
d="M898.5 501l-808.5 1.5q-36 0 -34.5 36q-1.5 33 34.5 33h808.5q33 -1.5 33 -37.5q0 -34.5 -33 -33z" />
    <glyph glyph-name="hyphen" unicode="-" horiz-adv-x="951" 
d="M763.5 501l-570 1.5q-36 0 -34.5 36q0 33 34.5 33h570q33 -1.5 33 -37.5q0 -34.5 -33 -33z" />
    <glyph glyph-name="comma" unicode="," horiz-adv-x="265" 
d="M87 124.5q-15 34.5 39 66t79.5 -6q49.5 -64.5 6 -178.5q-31.5 -90 -129 -232.5q-19.5 -27 -48 -7.5q-27 19.5 -9 48q91.5 133.5 121.5 214.5q27 75 -11.25 72.75t-48.75 23.25z" />
    <glyph glyph-name="semicolon" unicode=";" horiz-adv-x="265" 
d="M87 124.5q-15 34.5 39 66t79.5 -6q49.5 -64.5 6 -178.5q-31.5 -90 -129 -232.5q-19.5 -27 -48 -7.5q-27 19.5 -9 48q91.5 133.5 121.5 214.5q27 75 -11.25 72.75t-48.75 23.25zM78 670.5q0 37.5 21.75 63.75t53.25 26.25t54 -26.25t22.5 -63.75t-22.5 -63t-54 -25.5
t-53.25 25.5t-21.75 63z" />
    <glyph glyph-name="numbersign" unicode="#" horiz-adv-x="811" 
d="M489 907.5l-85.5 -196.5h108l97.5 223.5q13.5 31.5 45 18q33 -13.5 19.5 -45l-85.5 -196.5h43.5q34.5 -1.5 34.5 -36q0 -36 -34.5 -36h-75l-76.5 -177h114q34.5 0 34.5 -36q0 -34.5 -34.5 -34.5h-142.5l-75 -175.5q-15 -33 -46.5 -16.5q-31.5 12 -18 43.5l64.5 150
h-109.5l-75 -177q-13.5 -33 -46.5 -16.5q-31.5 12 -18 43.5l66 150h-24q-36 0 -36 36q0 33 36 33h52.5l76.5 178.5l-91.5 1.5q-36 0 -34.5 34.5q-1.5 34.5 34.5 34.5h121.5l97.5 223.5q12 31.5 45 18q31.5 -13.5 18 -45zM297 462h109.5l75 177l-106.5 1.5z" />
    <glyph glyph-name="plus" unicode="+" horiz-adv-x="951" 
d="M763.5 501h-253.5v-249q0 -36 -36 -34.5q-33 0 -33 34.5v249l-247.5 1.5q-36 0 -34.5 36q0 33 34.5 33h247.5v250.5q1.5 33 37.5 33q34.5 0 33 -33l-1.5 -250.5h253.5q33 -1.5 33 -37.5q0 -34.5 -33 -33z" />
    <glyph glyph-name="asterisk" unicode="*" horiz-adv-x="553" 
d="M456 1255.5h-121.5l61.5 -105q16.5 -28.5 -15 -46.5q-30 -18 -45 12l-61.5 106.5l-61.5 -103.5q-18 -31.5 -48 -12q-28.5 16.5 -12 46.5l60 102l-117 1.5q-36 0 -34.5 36q0 33 34.5 33h118.5l-58.5 102q-18 31.5 15 48q28.5 16.5 45 -13.5l58.5 -100.5l60 103.5
q18 27 49.5 9q30 -16.5 12 -45l-61.5 -103.5h121.5q33 -1.5 33 -37.5q0 -34.5 -33 -33z" />
    <glyph glyph-name="backslash" unicode="\" horiz-adv-x="810" 
d="M25.5 1452q-13.5 30 16.5 45t45 -15l691.5 -1432.5q15 -30 -15 -43.5q-31.5 -15 -45 15l-693 1431v0z" />
    <glyph glyph-name="underscore" unicode="_" horiz-adv-x="756" 
d="M753 -255l-751.5 1.5q-36 0 -33 36q-1.5 33 33 33h753q31.5 -1.5 33 -36q0 -36 -34.5 -34.5z" />
    <glyph glyph-name="OE" unicode="&#x152;" horiz-adv-x="1375" 
d="M799.5 675v-642h451.5q33 0 33 -33t-33 -33h-486q-33 0 -33 33v12q-84 -45 -190.5 -45q-228 0 -348 205.5q-63 103.5 -90.75 249t-27.75 313.5q0 165 27.75 309.75t90.75 251.25q120 205.5 348 205.5q106.5 0 190.5 -46.5v13.5q0 33 33 33h486q33 0 33 -33
q0 -34.5 -33 -34.5h-451.5v-691.5h451.5q33 0 33 -34.5q0 -33 -33 -33h-451.5zM541.5 1434q-190.5 0 -291 -171q-57 -97.5 -82.5 -234.75t-25.5 -293.25q0 -160.5 25.5 -296.25t82.5 -231.75q100.5 -174 291 -174q109.5 0 190.5 58.5v1287l-1.5 -1.5q-81 57 -189 57z" />
    <glyph glyph-name="cedilla" unicode="&#xb8;" horiz-adv-x="246" 
d="M135 46.5q-6 -22.5 -9 -40.5q-12 -37.5 -19.5 -72q7.5 7.5 19.5 13.5q54 31.5 79.5 -6q48 -63 6 -178.5q-31.5 -88.5 -127.5 -229.5q-21 -28.5 -49.5 -10.5q-25.5 21 -10.5 48q93 135 123 217.5q27 73.5 -7.5 85.5q-40.5 -16.5 -63.75 -18t-47.25 25.5q-12 22.5 1.5 60
t28.5 82.5q3 10.5 4.5 22.5h72z" />
    <glyph glyph-name="Ccedilla" unicode="&#xc7;" horiz-adv-x="1026" 
d="M937.5 274.5q-58.5 -153 -156 -228q-102 -79.5 -240 -79.5q-228 0 -348 205.5q-63 103.5 -90.75 249t-27.75 313.5q0 165 27.75 309.75t90.75 251.25q120 205.5 348 205.5q138 0 240 -79.5q99 -78 156 -228q13.5 -33 -18 -43.5q-33 -12 -43.5 19.5
q-52.5 133.5 -135 199.5q-82.5 64.5 -199.5 64.5q-190.5 0 -291 -171q-57 -97.5 -82.5 -234.75t-25.5 -293.25q0 -160.5 25.5 -296.25t82.5 -231.75q100.5 -174 291 -174q115.5 0 199.5 66q84 64.5 135 199.5q10.5 30 43.5 19.5q31.5 -13.5 18 -43.5zM585 16.5
q-6 -22.5 -9 -40.5q-12 -37.5 -19.5 -72q7.5 7.5 19.5 13.5q54 31.5 79.5 -6q48 -63 6 -178.5q-31.5 -88.5 -127.5 -229.5q-21 -28.5 -49.5 -10.5q-25.5 21 -10.5 48q93 135 123 217.5q27 73.5 -7.5 85.5q-40.5 -16.5 -63.75 -18t-47.25 25.5q-12 22.5 1.5 60t28.5 82.5
q3 10.5 4.5 22.5h72z" />
    <glyph glyph-name="Otilde" unicode="&#xd5;" horiz-adv-x="1083" 
d="M541.5 1501.5q226.5 0 349.5 -205.5q60 -106.5 88.5 -251.25t28.5 -309.75q0 -168 -28.5 -313.5t-88.5 -249q-124.5 -205.5 -349.5 -205.5q-228 0 -348 205.5q-63 103.5 -90.75 249t-27.75 313.5q0 165 27.75 309.75t90.75 251.25q120 205.5 348 205.5zM832.5 1263
q-102 171 -291 171q-190.5 0 -291 -171q-57 -97.5 -82.5 -234.75t-25.5 -293.25q0 -160.5 25.5 -296.25t82.5 -231.75q100.5 -174 291 -174q189 0 291 174q55.5 96 82.5 231.75t27 296.25q0 156 -27 293.25t-82.5 234.75zM235.5 1731q36 48 70.5 84t75 49.5
q88.5 28.5 183 -97.5q33 -48 70.5 -57q19.5 -6 39 -1.5q18 6 40.5 21q55.5 40.5 78 111q9 33 42 25.5q33 -12 24 -43.5q-28.5 -94.5 -102 -148.5q-33 -25.5 -66 -31.5q-40.5 -10.5 -76.5 1.5q-58.5 18 -105 82.5q-64.5 87 -106.5 72q-25.5 -7.5 -53.25 -38.25t-59.25 -71.25
q-21 -30 -48 -7.5t-6 49.5z" />
    <glyph glyph-name="ccedilla" unicode="&#xe7;" horiz-adv-x="762" 
d="M675 159q-39 -96 -109.5 -144q-73.5 -48 -175.5 -48q-150 0 -234 103.5q-81 100.5 -81 283.5t81 283.5q84 105 234 105q100.5 0 175.5 -51q70.5 -46.5 109.5 -142.5q12 -33 -19.5 -43.5t-43.5 19.5q-28.5 73.5 -84 112.5q-55.5 37.5 -138 37.5q-120 0 -181.5 -78
q-66 -85.5 -66 -243q0 -159 66 -241.5q61.5 -79.5 181.5 -79.5q82.5 0 138 37.5t84 112.5q12 31.5 43.5 18q30 -10.5 19.5 -42zM441 12q-6 -22.5 -9 -40.5q-12 -37.5 -19.5 -72q7.5 7.5 19.5 13.5q54 31.5 79.5 -6q48 -63 6 -178.5q-31.5 -88.5 -127.5 -229.5
q-21 -28.5 -49.5 -10.5q-25.5 21 -10.5 48q93 135 123 217.5q27 73.5 -7.5 85.5q-40.5 -16.5 -63.75 -18t-47.25 25.5q-12 22.5 1.5 60t28.5 82.5q3 10.5 4.5 22.5h72z" />
    <glyph glyph-name="multiply" unicode="&#xd7;" horiz-adv-x="625" 
d="M538.5 714l-178.5 -180l175.5 -175.5q25.5 -25.5 -1.5 -49.5q-22.5 -24 -46.5 0l-177 177l-175.5 -174q-25.5 -25.5 -49.5 1.5q-24 22.5 0 46.5l175.5 175.5l-177 177q-22.5 24 3 49.5q24 25.5 46.5 0l177 -177l178.5 178.5q24 22.5 49.5 -3q25.5 -24 0 -46.5z" />
    <glyph glyph-name="scaron" unicode="&#x161;" horiz-adv-x="786" 
d="M147 151.5q33 -58.5 91.5 -87q57 -31.5 144 -31.5q102 0 174 36q60 33 67.5 79.5q15 84 -69 123.75t-184.5 69.75q-114 34.5 -203.25 79.5t-71.25 153q15 78 103.5 124.5q85.5 43.5 201 43.5q99 0 174 -37.5q72 -39 117 -114q18 -30 -12 -45q-30 -16.5 -45 12
q-33 57 -91.5 87t-142.5 30q-100.5 0 -171 -34.5q-60 -34.5 -67.5 -76.5q-12 -64.5 60.75 -98.25t167.25 -59.25q120 -36 220.5 -88.5t79.5 -181.5q-15 -81 -103.5 -126q-85.5 -43.5 -204 -43.5q-100.5 0 -175.5 37.5t-118.5 115.5q-13.5 30 15 45t43.5 -13.5zM562.5 1119
l-171 -132l-168 130.5q-27 21 -7.5 48q22.5 22.5 45 4.5l130.5 -100.5l129 102q25.5 18 48 -4.5q19.5 -27 -6 -48z" />
    <glyph glyph-name="zcaron" unicode="&#x17e;" horiz-adv-x="763" 
d="M84 22.5l504 652.5h-480q-33 0 -33 33q0 34.5 33 34.5h547.5q33 0 33 -34.5q0 -16.5 -9 -22.5l-502.5 -652.5h478.5q33 0 33 -33t-33 -33h-547.5q-33 0 -33 33q0 10.5 9 22.5zM552 1119l-171 -132l-168 130.5q-27 21 -7.5 48q22.5 22.5 45 4.5l130.5 -100.5l129 102
q25.5 18 48 -4.5q19.5 -27 -6 -48z" />
    <glyph glyph-name="Ydieresis" unicode="&#x178;" horiz-adv-x="958" 
d="M147 1483.5l330 -675l331.5 675q16.5 28.5 45 13.5q30 -13.5 15 -43.5l-357 -726v-727.5q0 -33 -34.5 -33q-33 0 -33 33v727.5l-357 726q-12 30 15 43.5q28.5 15 45 -13.5zM519 1869q0 37.5 21.75 63.75t53.25 26.25t54 -26.25t22.5 -63.75t-22.5 -63t-54 -25.5
t-53.25 25.5t-21.75 63zM286.5 1869q0 37.5 21.75 63.75t53.25 26.25t54 -26.25t22.5 -63.75t-22.5 -63t-54 -25.5t-53.25 25.5t-21.75 63z" />
    <glyph glyph-name="Scaron" unicode="&#x160;" horiz-adv-x="984" 
d="M147 294q49.5 -132 130.5 -196.5q79.5 -64.5 196.5 -64.5q141 0 237 76.5q91.5 70.5 105 189q22.5 204 -96.75 293.25t-260.25 152.25q-150 67.5 -267 154.5t-94.5 286.5q16.5 142.5 129 229.5q111 87 274.5 87q135 0 235.5 -76.5q97.5 -76.5 153 -222q9 -33 -19.5 -42
q-31.5 -15 -43.5 18q-48 127.5 -132 193.5q-81 61.5 -193.5 61.5q-141 0 -232.5 -73.5q-91.5 -67.5 -105 -183q-19.5 -163.5 84.75 -237.75t237.75 -134.25q159 -70.5 291 -172.5t106.5 -342q-19.5 -147 -130.5 -235.5q-117 -88.5 -279 -88.5q-135 1.5 -237 78
q-99 76.5 -151.5 226.5q-10.5 31.5 19.5 42q30 12 42 -19.5zM661.5 1869l-171 -132l-168 130.5q-27 21 -7.5 48q22.5 22.5 45 4.5l130.5 -100.5l129 102q25.5 18 48 -4.5q19.5 -27 -6 -48z" />
    <glyph glyph-name="Zcaron" unicode="&#x17d;" horiz-adv-x="937" 
d="M79.5 18l696 1416h-667.5q-33 0 -33 34.5q0 33 33 33h721.5q33 0 33 -33q0 -12 -4.5 -18l-696 -1417.5h667.5q33 0 33 -33t-33 -33h-721.5q-33 0 -33 33q0 10.5 4.5 18zM639 1869l-171 -132l-168 130.5q-27 21 -7.5 48q22.5 22.5 45 4.5l130.5 -100.5l129 102
q25.5 18 48 -4.5q19.5 -27 -6 -48z" />
    <glyph glyph-name="divide" unicode="&#xf7;" horiz-adv-x="951" 
d="M763.5 501l-570 1.5q-36 0 -34.5 36q0 33 34.5 33h570q33 -1.5 33 -37.5q0 -34.5 -33 -33zM400.5 832.5q0 37.5 21.75 63.75t53.25 26.25t54 -26.25t22.5 -63.75t-22.5 -63t-54 -25.5t-53.25 25.5t-21.75 63zM400.5 223.5q0 37.5 21.75 63.75t53.25 26.25t54 -26.25
t22.5 -63.75t-22.5 -63t-54 -25.5t-53.25 25.5t-21.75 63z" />
    <glyph glyph-name="Thorn" unicode="&#xde;" horiz-adv-x="865" 
d="M139.5 345v-345q0 -33 -34.5 -33q-33 0 -33 33l-1.5 1473q0 33 34.5 33q33 0 33 -33v-327h220.5q204 0 318 -103.5q114 -108 114 -297q0 -192 -114 -297q-114 -103.5 -318 -103.5h-219zM139.5 1080v-667.5h219q178.5 0 271.5 85.5t93 247.5t-93 247.5t-271.5 85.5
q-3 0 -3 1.5h-216z" />
    <glyph glyph-name="Eth" unicode="&#xd0;" horiz-adv-x="931" 
d="M390 1501.5q228 0 348 -205.5q63 -106.5 90.75 -251.25t27.75 -309.75q0 -168 -27.75 -313.5t-90.75 -249q-120 -205.5 -348 -205.5h-282q-33 0 -33 33v682.5h-25.5q-36 0 -34.5 36q0 33 34.5 33h25.5v717q0 33 33 33h282zM619.5 681l-477 1.5v-649.5h247.5
q189 0 291 174q57 96 82.5 231.75t25.5 296.25q0 156 -25.5 293.25t-82.5 234.75q-102 171 -291 171h-247.5v-682.5h477q33 -1.5 33 -37.5q0 -34.5 -33 -33z" />
    <glyph glyph-name="eth" unicode="&#xf0;" horiz-adv-x="783" 
d="M259.5 816q-24 -24 -48 0q-22.5 25.5 3 49.5l78 75l-93 117q-24 24 1.5 48q25.5 22.5 48 -3l93 -115.5l81 78q24 22.5 46.5 0q24 -25.5 0 -49.5l-85.5 -81l241.5 -297q81 -103.5 81 -283.5q0 -181.5 -81 -283.5q-82.5 -103.5 -235.5 -103.5q-150 0 -234 103.5
q-81 100.5 -81 283.5t81 283.5q84 105 234 105q36 0 67.5 -6l-121.5 151.5zM390 675q-120 0 -181.5 -78q-66 -85.5 -66 -243q0 -159 66 -241.5q61.5 -79.5 181.5 -79.5t183 79.5q66 82.5 66 241.5q0 157.5 -66 243l-18 19.5q-61.5 58.5 -165 58.5z" />
    <glyph glyph-name="thorn" unicode="&#xfe;" 
d="M142.5 1447.5v-828q3 6 13.5 18q84 105 234 105q151.5 0 235.5 -105q81 -103.5 81 -283.5q0 -181.5 -81 -283.5q-82.5 -103.5 -235.5 -103.5q-150 0 -234 103.5q-10.5 13.5 -13.5 19.5v-787.5q0 -33 -34.5 -33q-33 0 -33 33v1051.5v1093.5q0 34.5 33 34.5
q34.5 0 34.5 -34.5zM390 675q-120 0 -181.5 -78q-66 -85.5 -66 -243q0 -159 66 -241.5q61.5 -79.5 181.5 -79.5t183 79.5q66 82.5 66 241.5q0 157.5 -66 243q-63 78 -183 78z" />
    <glyph glyph-name="bar" unicode="|" horiz-adv-x="217" 
d="M142.5 1582.5v-2293.5q0 -33 -34.5 -33q-33 0 -33 33v2293.5q0 33 33 33q34.5 0 34.5 -33z" />
    <glyph glyph-name="asciitilde" unicode="~" horiz-adv-x="669" 
d="M28.5 583.5q36 48 70.5 84t75 49.5q88.5 28.5 183 -97.5q33 -48 70.5 -57q19.5 -6 39 -1.5q18 6 40.5 21q55.5 40.5 78 111q9 33 42 25.5q33 -12 24 -43.5q-28.5 -94.5 -102 -148.5q-33 -25.5 -66 -31.5q-40.5 -10.5 -76.5 1.5q-58.5 18 -105 82.5q-64.5 87 -106.5 72
q-25.5 -7.5 -53.25 -38.25t-59.25 -71.25q-21 -30 -48 -7.5t-6 49.5z" />
    <glyph glyph-name="dollar" unicode="$" horiz-adv-x="786" 
d="M417 1155v-226.5q88.5 -3 157.5 -37.5q72 -39 117 -114q18 -30 -12 -45q-30 -16.5 -45 12q-33 57 -91.5 87q-52.5 27 -126 30v-277.5q103.5 -33 193.5 -79.5q100.5 -52.5 79.5 -181.5q-15 -81 -103.5 -126q-73.5 -37.5 -169.5 -43.5v-153q0 -33 -34.5 -33q-33 0 -33 33
v153q-81 6 -142.5 37.5q-75 37.5 -118.5 115.5q-13.5 30 15 45t43.5 -13.5q33 -58.5 91.5 -87q45 -25.5 111 -31.5v315q-102 33 -183 73.5q-88.5 45 -70.5 153q15 78 103.5 124.5q66 33 150 40.5v229.5q0 33 33 33q34.5 0 34.5 -33zM556.5 255q60 33 67.5 79.5
q15 84 -69 123q-64.5 31.5 -138 55.5v-294q79.5 6 139.5 36zM229.5 826.5q-60 -34.5 -67.5 -76.5q-12 -64.5 60 -99q57 -25.5 127.5 -48v255q-69 -6 -120 -31.5z" />
    <glyph glyph-name="guilsinglleft" unicode="&#x2039;" horiz-adv-x="484" 
d="M363 -19.5l-288 375l288 372q21 27 48 7.5q22.5 -22.5 4.5 -45l-258 -334.5l258 -333q18 -25.5 -4.5 -48q-27 -19.5 -48 6z" />
    <glyph glyph-name="guillemotleft" unicode="&#xab;" horiz-adv-x="762" 
d="M630 -19.5l-288 375l288 372q21 27 48 7.5q22.5 -22.5 4.5 -45l-258 -334.5l258 -333q18 -25.5 -4.5 -48q-27 -19.5 -48 6zM363 -19.5l-288 375l288 372q21 27 48 7.5q22.5 -22.5 4.5 -45l-258 -334.5l258 -333q18 -25.5 -4.5 -48q-27 -19.5 -48 6z" />
    <glyph glyph-name="guillemotright" unicode="&#xbb;" horiz-adv-x="762" 
d="M145.5 729l288 -375l-288 -372q-21 -27 -48 -7.5q-22.5 22.5 -4.5 45l258 334.5l-258 333q-18 25.5 4.5 48q27 19.5 48 -6zM412.5 729l288 -375l-288 -372q-21 -27 -48 -7.5q-22.5 22.5 -4.5 45l258 334.5l-258 333q-18 25.5 4.5 48q27 19.5 48 -6z" />
    <glyph glyph-name="guilsinglright" unicode="&#x203a;" horiz-adv-x="484" 
d="M145.5 729l288 -375l-288 -372q-21 -27 -48 -7.5q-22.5 22.5 -4.5 45l258 334.5l-258 333q-18 25.5 4.5 48q27 19.5 48 -6z" />
    <glyph glyph-name="percent" unicode="%" horiz-adv-x="810" 
d="M780 1452l-693 -1431q-13.5 -30 -45 -15q-30 13.5 -15 43.5l691.5 1432.5q15 30 45 15t16.5 -45zM793.5 249q0 -51 -14.25 -96t-39.75 -78.75t-59.25 -53.25t-72.75 -19.5t-72.75 19.5t-59.25 53.25t-40.5 78.75t-15 96t15 96t40.5 78.75t59.25 53.25t72.75 19.5
t72.75 -19.5t59.25 -53.25t39.75 -78.75t14.25 -96zM483 247.5q0 -37.5 9.75 -71.25t26.25 -58.5t39 -39t49.5 -14.25t49.5 14.25t39.75 39t27 58.5t9.75 71.25t-9.75 71.25t-27 59.25t-39.75 39.75t-49.5 14.25t-49.5 -14.25t-39 -39.75t-26.25 -59.25t-9.75 -71.25z
M409.5 1237.5q0 -51 -14.25 -96t-39.75 -78.75t-59.25 -53.25t-72.75 -19.5t-72.75 19.5t-59.25 53.25t-40.5 78.75t-15 96t15 96t40.5 78.75t59.25 53.25t72.75 19.5t72.75 -19.5t59.25 -53.25t39.75 -78.75t14.25 -96zM99 1236q0 -37.5 9.75 -71.25t26.25 -58.5t39 -39
t49.5 -14.25t49.5 14.25t39.75 39t27 58.5t9.75 71.25t-9.75 71.25t-27 59.25t-39.75 39.75t-49.5 14.25t-49.5 -14.25t-39 -39.75t-26.25 -59.25t-9.75 -71.25z" />
    <glyph glyph-name="yen" unicode="&#xa5;" horiz-adv-x="958" 
d="M691.5 606h-180v-177h181.5q33 0 34.5 -36q0 -34.5 -36 -34.5h-180v-358.5q0 -33 -34.5 -33q-33 0 -33 33v358.5l-175.5 1.5q-36 0 -34.5 36q-1.5 33 34.5 33h175.5v178.5l-178.5 1.5q-34.5 0 -33 34.5q0 34.5 33 34.5h178.5v49.5l-357 726q-12 30 15 43.5
q28.5 15 45 -13.5l330 -675l331.5 675q16.5 28.5 45 13.5q30 -13.5 15 -43.5l-357 -726v-49.5h181.5q33 -1.5 34.5 -36q0 -36 -36 -36z" />
    <glyph glyph-name="germandbls" unicode="&#xdf;" horiz-adv-x="762" 
d="M142.5 1074v-1074q0 -33 -34.5 -33q-33 0 -33 33v1074q3 217.5 84 318.75t231 101.25q151.5 0 225 -104.25t73.5 -255.75q0 -124.5 -51.75 -216.75t-108.75 -117.75q60 -25.5 94.5 -66q99 -100.5 99 -340.5q0 -220.5 -69 -321.75t-187.5 -104.25q-76.5 0 -136.5 48.75
t-88.5 144.75q-12 33 19.5 43.5t43.5 -19.5q18 -73.5 60.75 -111.75t101.25 -38.25q67.5 0 128.25 81.75t60.75 276.75q0 216 -84 298.5q-78 79.5 -198 79.5q-37.5 0 -40.5 32.25t40.5 33.75q138 1.5 193.5 98.25t55.5 198.75q0 129 -55.5 210.75t-175.5 81.75t-183 -81
t-64.5 -271.5z" />
    <glyph glyph-name="Euro" unicode="&#x20ac;" horiz-adv-x="1026" 
d="M693 816l-549 3q-1.5 -42 -1.5 -84q0 -49.5 1.5 -96h343.5q33 0 34.5 -36q0 -34.5 -36 -34.5l-337.5 1.5q7.5 -69 19.5 -132q25.5 -135 82.5 -231q100.5 -174 291 -174q115.5 0 199.5 66q84 64.5 135 199.5q10.5 30 43.5 19.5q31.5 -13.5 18 -43.5q-58.5 -153 -156 -228
q-102 -79.5 -240 -79.5q-228 0 -348 205.5q-63 103.5 -91.5 249q-13.5 72 -21 148.5h-18q-36 0 -34.5 36q-1.5 33 34.5 33h13.5q-1.5 46.5 -1.5 96q0 42 1.5 84h-16.5q-34.5 0 -33 34.5q0 34.5 33 34.5h21q7.5 81 21 156q28.5 145.5 91.5 252q120 205.5 348 205.5
q138 0 240 -79.5q99 -78 156 -228q13.5 -33 -18 -43.5q-33 -12 -43.5 19.5q-52.5 133.5 -135 199.5q-82.5 64.5 -199.5 64.5q-190.5 0 -291 -171q-57 -97.5 -82.5 -235.5q-13.5 -67.5 -19.5 -139.5h546q33 -1.5 34.5 -36q0 -36 -36 -36z" />
    <glyph glyph-name="periodcentered" unicode="&#xb7;" horiz-adv-x="303" 
d="M78 670.5q0 37.5 21.75 63.75t53.25 26.25t54 -26.25t22.5 -63.75t-22.5 -63t-54 -25.5t-53.25 25.5t-21.75 63z" />
    <glyph glyph-name="quotedblbase" unicode="&#x201e;" horiz-adv-x="631" 
d="M375 124.5q-16.5 34.5 38.25 66t80.25 -6q48 -64.5 6 -178.5q-33 -90 -129 -232.5q-19.5 -27 -48 -7.5q-27 19.5 -9 48q91.5 133.5 120 214.5q28.5 75 -9.75 72.75t-48.75 23.25zM148.5 124.5q-16.5 34.5 38.25 66t78.75 -6q49.5 -64.5 7.5 -178.5q-31.5 -90 -129 -232.5
q-19.5 -27 -48 -7.5q-27 19.5 -9 48q91.5 133.5 121.5 214.5q25.5 75 -12 72.75t-48 23.25z" />
    <glyph glyph-name="quotesinglbase" unicode="&#x201a;" horiz-adv-x="460" 
d="M207 124.5q-16.5 34.5 38.25 66t78.75 -6q49.5 -64.5 7.5 -178.5q-33 -90 -129 -232.5q-21 -27 -48 -7.5t-10.5 48q93 133.5 121.5 214.5q28.5 75 -9.75 72.75t-48.75 23.25z" />
    <glyph glyph-name="ampersand" unicode="&#x26;" horiz-adv-x="942" 
d="M591 174l-108 -91.5q-76.5 -60 -147 -73.5t-123 9q-46.5 16.5 -75.75 56.25t-37.5 97.5t20.25 129.75t105 142.5q135 106.5 141 112.5q-87 139.5 -60 268.5t170.25 122.25t141 -139.5t-78.75 -199.5t-84 -74.25l151.5 -256.5q120 112.5 130.5 121.5q27 24 45 -3
q22.5 -27 -3 -49.5q-7.5 -6 -138 -127.5l63 -93q30 -42 39 -46.5t24.75 14.25t48.75 81.75q15 30 45 13.5q28.5 -18 13.5 -46.5q-51 -99 -89.25 -121.5t-74.25 -1.5q-24 12 -60 64.5zM555 232.5q-9 15 -156 264l-132 -106.5q-61.5 -54 -84.75 -110.25t-18.75 -96.75
t22.5 -65.25t49.5 -36.75q91.5 -36 208.5 57zM421.5 595.5q4.5 3 72.75 60.75t63 141t-93 81.75t-102 -84t59.25 -199.5z" />
    <glyph glyph-name="parenleft" unicode="(" horiz-adv-x="276" 
d="M249 1549.5q-205.5 -415.5 -204 -843q1.5 -417 204 -841.5q15 -28.5 -15 -45q-30 -12 -45 16.5q-204 432 -210 870q-1.5 445.5 211.5 873q13.5 30 43.5 15q30 -13.5 15 -45z" />
    <glyph glyph-name="parenright" unicode=")" horiz-adv-x="276" 
d="M-7.5 -132q205.5 415.5 204 843q-1.5 417 -204 841.5q-15 28.5 15 45q30 12 45 -16.5q204 -432 210 -870q1.5 -445.5 -211.5 -873q-13.5 -30 -43.5 -15q-30 13.5 -15 45z" />
    <glyph glyph-name="quotesingle" unicode="'" horiz-adv-x="294" 
d="M169.5 1468.5v-190.5q0 -33 -34.5 -33q-33 0 -33 33v190.5q0 33 33 33q34.5 0 34.5 -33z" />
    <glyph glyph-name="quotedbl" unicode="&#x22;" horiz-adv-x="402" 
d="M312 1468.5v-190.5q0 -33 -34.5 -33q-33 0 -33 33v190.5q0 33 33 33q34.5 0 34.5 -33zM169.5 1468.5v-190.5q0 -33 -34.5 -33q-33 0 -33 33v190.5q0 33 33 33q34.5 0 34.5 -33z" />
    <glyph glyph-name="bracketleft" unicode="[" horiz-adv-x="294" 
d="M135 1599h180q33 0 33 -34.5q0 -33 -33 -33h-145.5v-1599h145.5q33 0 33 -34.5q0 -33 -33 -33h-175.5h-4.5q-6 0 -10.5 1.5q-6 1.5 -10.5 3q-9 6 -12 18v10.5v6v1660.5q0 34.5 33 34.5z" />
    <glyph glyph-name="bracketright" unicode="]" horiz-adv-x="294" 
d="M315 1599q33 0 33 -34.5v-1665v-6v-10.5q-3 -12 -12 -18q-4.5 -1.5 -10.5 -3q-4.5 -1.5 -10.5 -1.5h-4.5h-175.5q-33 0 -33 33q0 34.5 33 34.5h145.5v1603.5h-145.5q-33 0 -33 33q0 34.5 33 34.5h180v0z" />
    <glyph glyph-name="paragraph" unicode="&#xb6;" horiz-adv-x="816" 
d="M771 1501.5q33 0 33 -34.5q0 -33 -33 -33h-154.5v-1434q0 -33 -34.5 -33q-33 0 -33 33v1434h-250.5v-1434q0 -33 -34.5 -33q-33 0 -33 33v894q-84 9 -136.5 79.5q-57 79.5 -57 222q0 144 57 222t154.5 82.5z" />
    <glyph glyph-name="mu" unicode="&#xb5;" 
d="M142.5 354q0 -159 66 -241.5q61.5 -79.5 181.5 -79.5t183 79.5q66 82.5 66 241.5v354q0 34.5 33 34.5q34.5 0 34.5 -34.5v-708q0 -33 -34.5 -33q-33 0 -33 33v90q-3 -6 -13.5 -19.5q-82.5 -103.5 -235.5 -103.5q-150 0 -234 103.5q-7.5 7.5 -13.5 18v-804
q0 -33 -34.5 -33q-33 0 -33 33v1423.5q0 34.5 33 34.5q34.5 0 34.5 -34.5v-354z" />
    <glyph glyph-name="ordfeminine" unicode="&#xaa;" 
d="M706.5 1455v-354v-354q0 -33 -34.5 -33q-33 0 -33 33v90q-3 -6 -13.5 -19.5q-82.5 -103.5 -235.5 -103.5q-150 0 -234 103.5q-81 100.5 -81 283.5t81 283.5q84 105 234 105q151.5 0 235.5 -105q10.5 -12 13.5 -18v88.5q0 34.5 33 34.5q34.5 0 34.5 -34.5zM573 1344
q-63 78 -183 78t-181.5 -78q-66 -85.5 -66 -243q0 -159 66 -241.5q61.5 -79.5 181.5 -79.5t183 79.5q66 82.5 66 241.5q0 157.5 -66 243z" />
    <glyph glyph-name="ordmasculine" unicode="&#xba;" horiz-adv-x="783" 
d="M390 1443q-120 0 -181.5 -78q-66 -85.5 -66 -243q0 -159 66 -241.5q61.5 -79.5 181.5 -79.5t183 79.5q66 82.5 66 241.5q0 157.5 -66 243q-63 78 -183 78zM156 1405.5q84 105 234 105q151.5 0 235.5 -105q81 -103.5 81 -283.5q0 -181.5 -81 -283.5
q-82.5 -103.5 -235.5 -103.5q-150 0 -234 103.5q-81 100.5 -81 283.5t81 283.5z" />
    <glyph glyph-name="section" unicode="&#xa7;" horiz-adv-x="786" 
d="M94.5 1261.5q13.5 105 106.5 174q85.5 61.5 210 61.5q111 0 178.5 -52.5q40.5 -30 70.5 -70.5t52.5 -93q10.5 -28.5 -12 -48q-16.5 -12 -28.5 -7.5t-19.5 19.5q-18 43.5 -42.75 78t-51.75 55.5q-66 49.5 -147 49.5q-100.5 0 -178.5 -55.5q-28.5 -24 -47.25 -56.25
t-21.75 -66.75q-16.5 -108 61.5 -159q82.5 -54 174 -91.5q132 -55.5 229.5 -127.5q85.5 -67.5 85.5 -198q0 -13.5 -0.75 -27.75t-2.25 -30.75q-4.5 -42 -22.5 -78t-48 -66l-7.5 -9q37.5 -34.5 59.25 -86.25t21.75 -111.75v-30t-3 -30q-9 -52.5 -35.25 -97.5t-72.75 -79.5
q-82.5 -60 -211.5 -60q-109.5 0 -183 51q-82.5 61.5 -121.5 163.5q-10.5 31.5 15 51q15 9 26.25 3.75t18.75 -17.25q19.5 -45 42.75 -80.25t53.25 -54.75q60 -51 148.5 -51q51 0 96 15.75t84 41.25q30 25.5 48.75 57.75t21.75 71.25q18 139.5 -72 198q-48 30 -96 56.25
t-96 47.25q-61.5 25.5 -114 55.5t-96 60q-76.5 55.5 -76.5 165q0 10.5 0.75 22.5t2.25 25.5q6 48 27 89.25t60 74.25l15 15l-28.5 21q-36 27 -56.25 68.25t-20.25 95.25q0 12 0.75 24t2.25 25.5zM571.5 501q63 48 70.5 129q18 136.5 -72 196.5q-48 31.5 -96 57.75t-96 47.25
q-28.5 13.5 -60 30.75t-57 30.75l-28.5 -30q-30 -27 -48 -58.5t-21 -67.5q-7.5 -52.5 9 -93t52.5 -66q82.5 -52.5 174 -88.5q49.5 -24 91.5 -46.5t78 -43.5v-1.5z" />
    <glyph glyph-name="brokenbar" unicode="&#xa6;" horiz-adv-x="223" 
d="M114 -744q-33 0 -33 33v1065h67.5v-1065q0 -33 -34.5 -33zM148.5 1582.5v-925.5h-67.5v925.5q0 33 33 33q34.5 0 34.5 -33z" />
    <glyph glyph-name="NULL" horiz-adv-x="0" 
 />
    <glyph glyph-name="twosuperior" unicode="&#xb2;" horiz-adv-x="573" 
d="M30 1180.5q0 130.5 72 220.5h-1.5q73.5 96 183 96t183 -96q70.5 -93 70.5 -220.5q0 -70.5 -24 -132q-27 -69 -67.5 -111l-291 -301.5h345q37.5 0 37.5 -36q0 -37.5 -37.5 -37.5h-433.5q-36 0 -36 37.5q0 13.5 12 25.5h-1.5q88.5 90 175.5 180.75t175.5 182.25
q18 16.5 30.75 39.75t21.75 44.25q19.5 55.5 19.5 108q0 97.5 -57 175.5q-52.5 67.5 -123 67.5q-73.5 0 -123 -67.5q-57 -75 -57 -175.5q0 -37.5 -37.5 -37.5q-36 0 -36 37.5z" />
    <glyph glyph-name="threesuperior" unicode="&#xb3;" horiz-adv-x="573" 
d="M30 1245q0 105 75 180q73.5 73.5 178.5 73.5q100.5 0 178.5 -73.5q75 -78 75 -180t-75 -177q-15 -13.5 -21.75 -20.25t-23.25 -15.75q22.5 -16.5 45 -39q75 -75 75 -177t-75 -177t-178.5 -75t-178.5 75q-75 73.5 -75 177q0 37.5 36 37.5q37.5 0 37.5 -37.5
q0 -75 52.5 -127.5v1.5q55.5 -52.5 127.5 -52.5q73.5 0 127.5 51q52.5 55.5 52.5 127.5q0 75 -52.5 124.5q-52.5 52.5 -127.5 52.5q-37.5 0 -37.5 39q0 36 37.5 36q73.5 0 127.5 51q52.5 52.5 52.5 126q0 76.5 -52.5 126q-54 54 -127.5 54t-127.5 -54q-52.5 -48 -52.5 -126
q0 -36 -37.5 -36q-36 0 -36 36z" />
    <glyph glyph-name="onesuperior" unicode="&#xb9;" horiz-adv-x="190" 
d="M132 603q0 -36 -39 -36q-36 0 -36 36v861q0 37.5 36 37.5q39 0 39 -37.5v-861z" />
    <glyph glyph-name="threequarters" unicode="&#xbe;" horiz-adv-x="1459" 
d="M75 1248q0 102 75 180q73.5 73.5 178.5 73.5q100.5 0 178.5 -73.5q75 -78 75 -180t-75 -177q-15 -13.5 -21.75 -20.25t-23.25 -15.75q22.5 -16.5 45 -39q75 -75 75 -177t-75 -177t-178.5 -75t-178.5 75t-75 177q0 37.5 36 37.5q37.5 0 37.5 -37.5q0 -75 52.5 -127.5v1.5
q55.5 -52.5 127.5 -52.5q73.5 0 127.5 51q52.5 55.5 52.5 127.5q0 75 -52.5 124.5q-52.5 52.5 -127.5 52.5q-37.5 0 -37.5 39q0 36 37.5 36q73.5 0 127.5 51q52.5 52.5 52.5 126q0 76.5 -52.5 126q-54 54 -127.5 54t-127.5 -54q-52.5 -48 -52.5 -126q0 -36 -37.5 -36
q-36 0 -36 36zM1185 469.5h162q37.5 0 37.5 -37.5q0 -36 -37.5 -36h-162v-378q0 -37.5 -36 -37.5t-36 37.5v378h-195q-27 3 -33 19.5h-3l33 465q4.5 34.5 39 34.5q39 -4.5 34.5 -40.5q-7.5 -106.5 -15 -202.5t-15 -202.5h154.5v408q0 37.5 36 37.5t36 -37.5v-408z
M1096.5 1452l-693 -1431q-13.5 -30 -45 -15q-30 13.5 -15 43.5l691.5 1432.5q15 30 45 15t16.5 -45z" />
    <glyph glyph-name="onequarter" unicode="&#xbc;" horiz-adv-x="1206" 
d="M931.5 469.5h162q37.5 0 37.5 -37.5q0 -36 -37.5 -36h-162v-378q0 -37.5 -36 -37.5t-36 37.5v378h-195q-27 3 -33 19.5h-3l33 465q4.5 34.5 39 34.5q39 -4.5 34.5 -40.5q-7.5 -106.5 -15 -202.5t-15 -202.5h154.5v408q0 37.5 36 37.5t36 -37.5v-408zM843 1452l-693 -1431
q-13.5 -30 -45 -15q-30 13.5 -15 43.5l691.5 1432.5q15 30 45 15t16.5 -45zM169.5 603q0 -36 -39 -36q-36 0 -36 36v861q0 37.5 36 37.5q39 0 39 -37.5v-861z" />
    <glyph glyph-name="onehalf" unicode="&#xbd;" horiz-adv-x="1161" 
d="M843 1452l-693 -1431q-13.5 -30 -45 -15q-30 13.5 -15 43.5l691.5 1432.5q15 30 45 15t16.5 -45zM181.5 603q0 -36 -39 -36q-36 0 -36 36v861q0 37.5 36 37.5q39 0 39 -37.5v-861zM579 598.5q0 130.5 72 220.5h-1.5q73.5 96 183 96t183 -96q70.5 -93 70.5 -220.5
q0 -70.5 -24 -132q-27 -69 -67.5 -111l-291 -301.5h345q37.5 0 37.5 -36q0 -37.5 -37.5 -37.5h-433.5q-36 0 -36 37.5q0 13.5 12 25.5h-1.5q88.5 90 175.5 180.75t175.5 182.25q18 16.5 30.75 39.75t21.75 44.25q19.5 55.5 19.5 108q0 97.5 -57 175.5q-52.5 67.5 -123 67.5
q-73.5 0 -123 -67.5q-57 -75 -57 -175.5q0 -37.5 -37.5 -37.5q-36 0 -36 37.5z" />
    <glyph glyph-name="exclamdown" unicode="&#xa1;" horiz-adv-x="301" 
d="M226.5 738q0 -37.5 -21.75 -63.75t-53.25 -26.25t-54 26.25t-22.5 63.75t22.5 63t54 25.5t53.25 -25.5t21.75 -63zM124.5 -667.5v1165.5q0 33 34.5 33q33 0 33 -33v-1165.5q0 -34.5 -33 -34.5q-34.5 0 -34.5 34.5z" />
    <glyph glyph-name="questiondown" unicode="&#xbf;" horiz-adv-x="964" 
d="M877.5 -403.5q-52.5 -145.5 -151.5 -222q-97.5 -76.5 -237 -76.5q-159 0 -273 87q-126 94.5 -133.5 259.5t54 252t139.5 153q76.5 64.5 138.75 153.75t48.75 299.25q-1.5 34.5 31.5 34.5q34.5 3 36 -31.5q15 -234 -55.5 -334.5t-156 -172.5q-67.5 -58.5 -122.25 -133.5
t-45.75 -243q15 -115.5 105 -183q94.5 -73.5 232.5 -73.5q115.5 0 196.5 61.5q81 64.5 130.5 193.5q12 33 43.5 18q30 -9 18 -42zM562.5 738q0 -37.5 -21.75 -63.75t-53.25 -26.25t-54 26.25t-22.5 63.75t22.5 63t54 25.5t53.25 -25.5t21.75 -63z" />
    <glyph glyph-name="cent" unicode="&#xa2;" horiz-adv-x="762" 
d="M414 1096.5v-147q85.5 -4.5 151.5 -49.5q70.5 -46.5 109.5 -142.5q12 -33 -19.5 -43.5t-43.5 19.5q-28.5 73.5 -84 112.5q-48 31.5 -114 36v-640.5q66 6 114 37.5q55.5 37.5 84 112.5q12 31.5 43.5 18q30 -10.5 19.5 -42q-39 -96 -109.5 -144q-64.5 -42 -151.5 -48v-159
q0 -33 -34.5 -33q-33 0 -33 33v160.5q-120 13.5 -190.5 102q-81 100.5 -81 283.5t81 283.5q70.5 88.5 190.5 102v148.5q0 33 33 33q34.5 0 34.5 -33zM208.5 805.5q-66 -85.5 -66 -243q0 -159 66 -241.5q49.5 -64.5 138 -76.5v636q-88.5 -12 -138 -75z" />
    <glyph glyph-name="uni00A0" unicode="&#xa0;" horiz-adv-x="0" 
 />
    <glyph glyph-name="trademark" unicode="&#x2122;" horiz-adv-x="1194" 
d="M486 1506q31.5 0 31.5 -34.5q0 -33 -31.5 -33h-163.5v-657q0 -34.5 -31.5 -34.5q-33 0 -33 34.5v657h-162q-33 0 -33 33q0 34.5 33 34.5h390zM1084.5 1471.5v-690q0 -34.5 -33 -34.5q-34.5 0 -34.5 34.5v490.5q-42 -127.5 -84 -252.75t-84 -249.75q-6 -15 -19.5 -19.5
h1.5q-34.5 -15 -45 22.5l1.5 -1.5q-25.5 73.5 -45 132.75t-38.25 114.75t-39 114.75t-44.25 134.25v-486q0 -34.5 -34.5 -34.5q-33 0 -33 34.5v696q3 7.5 9 14.25t22.5 14.25q25.5 6 34.5 -25.5l-1.5 1.5q27 -81 51.75 -153.75t48.75 -144.75t48.75 -144.75t51.75 -153.75
q49.5 150 99.75 298.5t99.75 298.5l-1.5 -1.5q9 33 43.5 24q18 -10.5 22.5 -27z" />
    <glyph glyph-name="longs" unicode="&#x17f;" horiz-adv-x="189" 
d="M444 1335q-21 49.5 -55.5 75q-37.5 24 -94.5 24q-81 0 -121.5 -52.5q-46.5 -57 -46.5 -166.5v-1215q0 -33 -31.5 -33q-36 0 -36 33v1215q0 132 61.5 210q61.5 76.5 174 76.5q76.5 0 130.5 -36q55.5 -37.5 81 -106.5q15 -33 -18 -45t-43.5 21z" />
    <glyph glyph-name="germandblS" unicode="&#x1e9e;" horiz-adv-x="1126" 
d="M87 993q-1.5 1.5 -1.5 3q0 225 99 355.5q103.5 130.5 285 130.5h531q39 0 39 -42q0 -12 -4.5 -19.5l-283.5 -517.5q139.5 -19.5 220.5 -121.5q100.5 -124.5 100.5 -346.5q0 -220.5 -100.5 -342q-99 -126 -283.5 -126q-186 0 -286.5 126q-97.5 123 -97.5 342q0 42 39 42
q42 0 42 -42q0 -190.5 81 -292.5q76.5 -96 222 -96q144 0 220.5 96q82.5 99 82.5 292.5q0 195 -82.5 295.5q-76.5 96 -220.5 96q-42 0 -42 40.5q0 12 7.5 21l276 513h-460.5q-145.5 0 -220.5 -99q-81 -109.5 -81 -306v-1.5v-1.5v-985.5q0 -40.5 -39 -40.5q-42 0 -42 40.5
v985.5z" />
    <glyph glyph-name="longs_h" unicode="&#xeba1;" horiz-adv-x="1164" 
d="M1021.5 354q0 157.5 -66 243q-63 78 -183 78t-181.5 -78q-66 -85.5 -66 -243v-354q0 -33 -34.5 -33q-33 0 -33 33v1342.5q-21 43.5 -52.5 67.5q-37.5 24 -94.5 24q-81 0 -121.5 -52.5q-46.5 -57 -46.5 -166.5v-1215q0 -33 -31.5 -33q-36 0 -36 33v1215q0 132 61.5 210
q61.5 76.5 174 76.5q76.5 0 130.5 -36l16.5 -12v15q0 33 33 33q34.5 0 34.5 -33v-849q3 6 13.5 18q84 105 234 105q151.5 0 235.5 -105q81 -103.5 81 -283.5v-354q0 -33 -34.5 -33q-33 0 -33 33v354z" />
    <glyph glyph-name="longs_i" unicode="&#xeba2;" horiz-adv-x="598" 
d="M444 1335q-21 49.5 -55.5 75q-37.5 24 -94.5 24q-81 0 -121.5 -52.5q-46.5 -57 -46.5 -166.5v-1215q0 -33 -31.5 -33q-36 0 -36 33v1215q0 132 61.5 210q61.5 76.5 174 76.5q76.5 0 130.5 -36q55.5 -37.5 81 -106.5q15 -33 -18 -45t-43.5 21zM511.5 708v-708
q0 -33 -34.5 -33q-33 0 -33 33v708q0 34.5 33 34.5q34.5 0 34.5 -34.5zM405 1119q0 37.5 21.75 63.75t53.25 26.25t54 -26.25t22.5 -63.75t-22.5 -63t-54 -25.5t-53.25 25.5t-21.75 63z" />
    <glyph glyph-name="longs_l" unicode="&#xeba3;" horiz-adv-x="606" 
d="M460.5 1335q-21 49.5 -55.5 75q-37.5 24 -94.5 24q-81 0 -121.5 -52.5q-46.5 -57 -46.5 -166.5v-1215q0 -33 -31.5 -33q-36 0 -36 33v1215q0 132 61.5 210q61.5 76.5 174 76.5q76.5 0 130.5 -36q12 -9 22.5 -18v21q0 33 33 33q34.5 0 34.5 -33v-1468.5q0 -33 -34.5 -33
q-33 0 -33 33v1326z" />
    <glyph glyph-name="longs_longs_i" unicode="&#xeba7;" horiz-adv-x="879" 
d="M733.5 1335q-21 49.5 -55.5 75q-37.5 24 -94.5 24q-81 0 -121.5 -52.5q-46.5 -57 -46.5 -166.5v-1215q0 -33 -31.5 -33q-36 0 -36 33v1215q0 120 51 195q-37.5 24 -93 24q-81 0 -121.5 -52.5q-46.5 -57 -46.5 -166.5v-1215q0 -33 -31.5 -33q-36 0 -36 33v1215
q0 132 61.5 210q61.5 76.5 174 76.5q76.5 0 130.5 -36q4.5 -3 7.5 -6q55.5 42 139.5 42q76.5 0 130.5 -36q55.5 -37.5 81 -106.5q15 -33 -18 -45t-43.5 21zM807 708v-708q0 -33 -34.5 -33q-33 0 -33 33v708q0 34.5 33 34.5q34.5 0 34.5 -34.5zM700.5 1119q0 -37.5 21.75 -63
t53.25 -25.5t54 25.5t22.5 63t-22.5 63.75t-54 26.25t-53.25 -26.25t-21.75 -63.75z" />
    <glyph glyph-name="longs_longs_l" unicode="&#xeba8;" horiz-adv-x="885" 
d="M726 1335q-21 49.5 -55.5 75q-37.5 24 -94.5 24q-81 0 -121.5 -52.5q-46.5 -57 -46.5 -166.5v-1215q0 -33 -31.5 -33q-36 0 -36 33v1215q0 120 51 195q-37.5 24 -93 24q-81 0 -121.5 -52.5q-46.5 -57 -46.5 -166.5v-1215q0 -33 -31.5 -33q-36 0 -36 33v1215
q0 132 61.5 210q61.5 76.5 174 76.5q76.5 0 130.5 -36q4.5 -3 7.5 -6q55.5 42 139.5 42q76.5 0 130.5 -36q16.5 -12 31.5 -27l4.5 12v18q0 33 33 33q34.5 0 34.5 -33v-1468.5q0 -33 -34.5 -33q-33 0 -33 33v1312.5q-12 4.5 -16.5 22.5z" />
    <glyph glyph-name="c_k" unicode="&#xeec4;" horiz-adv-x="1348" 
d="M643.5 159q-39 -96 -109.5 -144q-73.5 -48 -175.5 -48q-150 0 -234 103.5q-81 100.5 -81 283.5t81 283.5q84 105 234 105q100.5 0 175.5 -51q70.5 -46.5 109.5 -142.5q12 -33 -19.5 -43.5t-43.5 19.5q-28.5 73.5 -84 112.5q-55.5 37.5 -138 37.5q-120 0 -181.5 -78
q-66 -85.5 -66 -243q0 -159 66 -241.5q61.5 -79.5 181.5 -79.5q82.5 0 138 37.5t84 112.5q12 31.5 43.5 18q30 -10.5 19.5 -42zM1248 681l-466.5 -327l466.5 -327q24 -19.5 9 -45q-21 -27 -48 -7.5l-451.5 315v-289.5q0 -33 -34.5 -33q-33 0 -33 33v733.5v735q0 33 33 33
q34.5 0 34.5 -33v-1050l451.5 318q27 16.5 48 -9q16.5 -28.5 -9 -46.5z" />
    <glyph glyph-name="f_j" unicode="&#xeec9;" horiz-adv-x="598" 
d="M444 1335q-21 49.5 -55.5 75q-37.5 24 -94.5 24q-81 0 -121.5 -52.5q-46.5 -57 -46.5 -166.5v-315h244.5q33 0 33 -31.5q0 -34.5 -33 -34.5h-244.5v-834q0 -33 -31.5 -33q-36 0 -36 33v834h-102q-33 0 -33 34.5q0 31.5 33 31.5h102v315q0 132 61.5 210
q61.5 76.5 174 76.5q76.5 0 130.5 -36q55.5 -37.5 81 -106.5q15 -33 -18 -45t-43.5 21zM132 -562.5q19.5 -49.5 55.5 -76.5q37.5 -24 93 -24q82.5 0 123 51q45 58.5 45 168v1152q0 34.5 33 34.5t33 -34.5v-1152q0 -130.5 -58.5 -208.5q-60 -78 -175.5 -78
q-73.5 0 -130.5 37.5q-52.5 36 -81 106.5q-9 31.5 19.5 42q31.5 15 43.5 -18zM409.5 1119q0 37.5 21.75 63.75t53.25 26.25t54 -26.25t22.5 -63.75t-22.5 -63t-54 -25.5t-53.25 25.5t-21.75 63z" />
    <glyph glyph-name="f_t" unicode="&#xeecb;" horiz-adv-x="945" 
d="M126 834v-834q0 -33 -31.5 -33q-36 0 -36 33v834h-102q-33 0 -33 34.5q0 31.5 33 31.5h102v315q0 132 61.5 210q61.5 76.5 174 76.5q76.5 0 130.5 -36q10.5 -7.5 21 -16.5v19.5q0 33 34.5 33q33 0 33 -33v-568.5h226.5q33 0 33 -31.5q0 -34.5 -33 -34.5h-226.5v-582
q0 -109.5 46.5 -166.5q39 -52.5 121.5 -52.5q55.5 0 93 25.5q34.5 24 57 76.5q10.5 30 43.5 18q30 -12 18 -42q-25.5 -70.5 -81 -108q-57 -36 -130.5 -36q-112.5 0 -174 78q-61.5 75 -61.5 207v582h-319.5zM444 1335q-21 49.5 -55.5 75q-37.5 24 -94.5 24
q-81 0 -121.5 -52.5q-46.5 -57 -46.5 -166.5v-315h319.5v429q-1.5 3 -1.5 6z" />
    <glyph glyph-name="f_f_t" unicode="&#xeece;" horiz-adv-x="1306" 
d="M126 834v-834q0 -33 -31.5 -33q-36 0 -36 33v834h-102q-33 0 -33 34.5q0 31.5 33 31.5h102v315q0 132 61.5 210q61.5 76.5 174 76.5q76.5 0 130.5 -36q33 -22.5 55.5 -58.5q6 9 13.5 18q61.5 76.5 174 76.5q76.5 0 130.5 -36q12 -9 22.5 -18v21q0 33 34.5 33q33 0 33 -33
v-568.5h226.5q33 0 33 -31.5q0 -34.5 -33 -34.5h-226.5v-582q0 -109.5 46.5 -166.5q39 -52.5 121.5 -52.5q55.5 0 93 25.5q34.5 24 57 76.5q10.5 30 43.5 18q30 -12 18 -42q-25.5 -70.5 -81 -108q-57 -36 -130.5 -36q-112.5 0 -174 78q-61.5 75 -61.5 207v582h-321v-834
q0 -33 -31.5 -33q-36 0 -36 33v834h-306zM817.5 1335q-21 49.5 -55.5 75q-37.5 24 -94.5 24q-81 0 -121.5 -52.5q-46.5 -57 -46.5 -166.5v-315h321v426zM444 1335q-21 49.5 -55.5 75q-37.5 24 -94.5 24q-81 0 -121.5 -52.5q-46.5 -57 -46.5 -166.5v-315h306v315
q0 63 13.5 114z" />
    <glyph glyph-name="t_t" unicode="&#xeed9;" horiz-adv-x="969" 
d="M160.5 900h309v568.5q0 33 34.5 33q33 0 33 -33v-568.5h226.5q33 0 33 -31.5q0 -34.5 -33 -34.5h-226.5v-582q0 -109.5 46.5 -166.5q39 -52.5 121.5 -52.5q55.5 0 93 25.5q34.5 24 57 76.5q10.5 30 43.5 18q30 -12 18 -42q-25.5 -70.5 -81 -108q-57 -36 -130.5 -36
q-112.5 0 -174 78q-7.5 7.5 -13.5 18q-24 -36 -58.5 -60q-57 -36 -130.5 -36q-112.5 0 -174 78q-61.5 75 -61.5 207v582h-120q-33 0 -33 34.5q0 31.5 33 31.5h120v568.5q0 33 34.5 33q33 0 33 -33v-568.5zM160.5 834v-582q0 -109.5 46.5 -166.5q39 -52.5 121.5 -52.5
q55.5 0 93 25.5q34.5 24 57 76.5q1.5 4.5 3 7.5q-12 49.5 -12 109.5v582h-309z" />
    <glyph glyph-name="t_z" unicode="&#xe23a;" horiz-adv-x="1104" 
d="M748.5 265.5q73.5 -36 124.5 -85.5q117 -117 117 -282q0 -166.5 -117 -283.5q-118.5 -117 -286.5 -117t-285 117t-117 283.5q0 33 33 33t33 -33q0 -138 99 -237q99 -97.5 237 -97.5q139.5 0 238.5 97.5q99 99 99 237t-99 235.5t-238.5 97.5q-33 0 -33 34.5q0 21 375 567
l-672 1.5v-582q0 -109.5 46.5 -166.5q39 -52.5 121.5 -52.5q55.5 0 93 25.5q34.5 24 57 76.5q10.5 30 43.5 18q30 -12 18 -42q-25.5 -70.5 -81 -108q-57 -36 -130.5 -36q-112.5 0 -174 78q-61.5 75 -61.5 207v582h-120q-33 0 -33 34.5q0 31.5 33 31.5h120v568.5
q0 33 34.5 33q33 0 33 -33v-568.5h739.5q33 0 33 -34.5q0 -16.5 -9 -22.5l-372 -549q55.5 -7.5 100.5 -28.5z" />
    <glyph glyph-name="t_z" unicode="&#xeedc;" horiz-adv-x="1104" 
d="M748.5 265.5q73.5 -36 124.5 -85.5q117 -117 117 -282q0 -166.5 -117 -283.5q-118.5 -117 -286.5 -117t-285 117t-117 283.5q0 33 33 33t33 -33q0 -138 99 -237q99 -97.5 237 -97.5q139.5 0 238.5 97.5q99 99 99 237t-99 235.5t-238.5 97.5q-33 0 -33 34.5q0 21 375 567
l-672 1.5v-582q0 -109.5 46.5 -166.5q39 -52.5 121.5 -52.5q55.5 0 93 25.5q34.5 24 57 76.5q10.5 30 43.5 18q30 -12 18 -42q-25.5 -70.5 -81 -108q-57 -36 -130.5 -36q-112.5 0 -174 78q-61.5 75 -61.5 207v582h-120q-33 0 -33 34.5q0 31.5 33 31.5h120v568.5
q0 33 34.5 33q33 0 33 -33v-568.5h739.5q33 0 33 -34.5q0 -16.5 -9 -22.5l-372 -549q55.5 -7.5 100.5 -28.5z" />
    <glyph glyph-name="c_h" unicode="&#xf1bb;" horiz-adv-x="1455" 
d="M675 159q-39 -96 -109.5 -144q-73.5 -48 -175.5 -48q-150 0 -234 103.5q-81 100.5 -81 283.5t81 283.5q84 105 234 105q100.5 0 175.5 -51q70.5 -46.5 109.5 -142.5q12 -33 -19.5 -43.5t-43.5 19.5q-28.5 73.5 -84 112.5q-55.5 37.5 -138 37.5q-120 0 -181.5 -78
q-66 -85.5 -66 -243q0 -159 66 -241.5q61.5 -79.5 181.5 -79.5q82.5 0 138 37.5t84 112.5q12 31.5 43.5 18q30 -10.5 19.5 -42zM1317 354q0 157.5 -66 243q-63 78 -183 78t-181.5 -78q-66 -85.5 -66 -243v-354q0 -33 -34.5 -33q-33 0 -33 33v354v1114.5q0 33 33 33
q34.5 0 34.5 -33v-849q3 6 13.5 18q84 105 234 105q151.5 0 235.5 -105q81 -103.5 81 -283.5v-354q0 -33 -34.5 -33q-33 0 -33 33v354z" />
    <glyph glyph-name="l_l" unicode="&#xf4f9;" horiz-adv-x="435" 
d="M142.5 1468.5v-1468.5q0 -33 -34.5 -33q-33 0 -33 33v1468.5q0 33 33 33q34.5 0 34.5 -33zM360 1468.5v-1468.5q0 -33 -34.5 -33q-33 0 -33 33v1468.5q0 33 33 33q34.5 0 34.5 -33z" />
    <glyph glyph-name="l_l" unicode="&#xf6c0;" horiz-adv-x="435" 
d="M142.5 1468.5v-1468.5q0 -33 -34.5 -33q-33 0 -33 33v1468.5q0 33 33 33q34.5 0 34.5 -33zM360 1468.5v-1468.5q0 -33 -34.5 -33q-33 0 -33 33v1468.5q0 33 33 33q34.5 0 34.5 -33z" />
    <glyph glyph-name="longs_c_h" unicode="&#xf4fa;" horiz-adv-x="1666" 
d="M444 1335q-21 49.5 -55.5 75q-37.5 24 -94.5 24q-81 0 -121.5 -52.5q-46.5 -57 -46.5 -166.5v-1215q0 -33 -31.5 -33q-36 0 -36 33v1215q0 132 61.5 210q61.5 76.5 174 76.5q76.5 0 130.5 -36q55.5 -37.5 81 -106.5q15 -33 -18 -45t-43.5 21zM864 159
q-39 -96 -109.5 -144q-73.5 -48 -175.5 -48q-150 0 -234 103.5q-81 100.5 -81 283.5t81 283.5q84 105 234 105q100.5 0 175.5 -51q70.5 -46.5 109.5 -142.5q12 -33 -19.5 -43.5t-43.5 19.5q-28.5 73.5 -84 112.5q-55.5 37.5 -138 37.5q-120 0 -181.5 -78q-66 -85.5 -66 -243
q0 -159 66 -241.5q61.5 -79.5 181.5 -79.5q82.5 0 138 37.5t84 112.5q12 31.5 43.5 18q30 -10.5 19.5 -42zM1518 354q0 157.5 -66 243q-63 78 -183 78t-181.5 -78q-66 -85.5 -66 -243v-354q0 -33 -34.5 -33q-33 0 -33 33v354v1114.5q0 33 33 33q34.5 0 34.5 -33v-849
q3 6 13.5 18q84 105 234 105q151.5 0 235.5 -105q81 -103.5 81 -283.5v-354q0 -33 -34.5 -33q-33 0 -33 33v354z" />
    <glyph glyph-name="longs_j" unicode="&#xf4fb;" horiz-adv-x="589" 
d="M444 1335q-21 49.5 -55.5 75q-37.5 24 -94.5 24q-81 0 -121.5 -52.5q-46.5 -57 -46.5 -166.5v-1215q0 -33 -31.5 -33q-36 0 -36 33v1215q0 132 61.5 210q61.5 76.5 174 76.5q76.5 0 130.5 -36q55.5 -37.5 81 -106.5q15 -33 -18 -45t-43.5 21zM127.5 -562.5
q19.5 -49.5 55.5 -76.5q37.5 -24 93 -24q82.5 0 123 51q45 58.5 45 168v1152q0 34.5 33 34.5t33 -34.5v-1152q0 -130.5 -58.5 -208.5q-60 -78 -175.5 -78q-73.5 0 -130.5 37.5q-52.5 36 -81 106.5q-9 31.5 19.5 42q31.5 15 43.5 -18zM405 1119q0 37.5 21.75 63.75
t53.25 26.25t54 -26.25t22.5 -63.75t-22.5 -63t-54 -25.5t-53.25 25.5t-21.75 63z" />
    <glyph glyph-name="longs_k" unicode="&#xf4fc;" horiz-adv-x="1074" 
d="M990 681l-466.5 -327l466.5 -327q24 -19.5 9 -45q-21 -27 -48 -7.5l-451.5 315v-289.5q0 -33 -34.5 -33q-33 0 -33 33v1359q-18 31.5 -43.5 51q-37.5 24 -94.5 24q-81 0 -121.5 -52.5q-46.5 -57 -46.5 -166.5v-1215q0 -33 -31.5 -33q-36 0 -36 33v1215q0 132 61.5 210
q61.5 76.5 174 76.5q76.5 0 130.5 -36q3 -3 7.5 -6v9q0 33 33 33q34.5 0 34.5 -33v-1050l451.5 318q27 16.5 48 -9q16.5 -28.5 -9 -46.5z" />
    <glyph glyph-name="longs_s" unicode="&#xf4fd;" horiz-adv-x="975" 
d="M444 1335q-21 49.5 -55.5 75q-37.5 24 -94.5 24q-81 0 -121.5 -52.5q-46.5 -57 -46.5 -166.5v-1215q0 -33 -31.5 -33q-36 0 -36 33v1215q0 132 61.5 210q61.5 76.5 174 76.5q76.5 0 130.5 -36q55.5 -37.5 81 -106.5q15 -33 -18 -45t-43.5 21zM336 151.5
q33 -58.5 91.5 -87q57 -31.5 144 -31.5q102 0 174 36q60 33 67.5 79.5q15 84 -69 123.75t-184.5 69.75q-114 34.5 -203.25 79.5t-71.25 153q15 78 103.5 124.5q85.5 43.5 201 43.5q99 0 174 -37.5q72 -39 117 -114q18 -30 -12 -45q-30 -16.5 -45 12q-33 57 -91.5 87
t-142.5 30q-100.5 0 -171 -34.5q-60 -34.5 -67.5 -76.5q-12 -64.5 60.75 -98.25t167.25 -59.25q120 -36 220.5 -88.5t79.5 -181.5q-15 -81 -103.5 -126q-85.5 -43.5 -204 -43.5q-100.5 0 -175.5 37.5t-118.5 115.5q-13.5 30 15 45t43.5 -13.5z" />
    <glyph glyph-name="longs_longs_k" unicode="&#xf4fe;" horiz-adv-x="1335" 
d="M723 1335q-21 49.5 -55.5 75q-37.5 24 -94.5 24q-81 0 -121.5 -52.5q-46.5 -57 -46.5 -166.5v-1215q0 -33 -31.5 -33q-36 0 -36 33v1215q0 120 51 195q-37.5 24 -93 24q-81 0 -121.5 -52.5q-46.5 -57 -46.5 -166.5v-1215q0 -33 -31.5 -33q-36 0 -36 33v1215
q0 132 61.5 210q61.5 76.5 174 76.5q76.5 0 130.5 -36q4.5 -3 7.5 -6q55.5 42 139.5 42q76.5 0 130.5 -36q10.5 -7.5 21 -16.5v19.5q0 33 33 33q34.5 0 34.5 -33v-1050l451.5 318q27 16.5 48 -9q16.5 -28.5 -9 -46.5l-466.5 -327l466.5 -327q24 -19.5 9 -45
q-21 -27 -48 -7.5l-451.5 315v-289.5q0 -33 -34.5 -33q-33 0 -33 33v1329q-1.5 3 -1.5 6z" />
    <glyph glyph-name="longs_longs_t" unicode="&#xf4ff;" horiz-adv-x="1195" 
d="M718.5 1468.5q0 33 34.5 33q33 0 33 -33v-568.5h226.5q33 0 33 -31.5q0 -34.5 -33 -34.5h-226.5v-582q0 -109.5 46.5 -166.5q39 -52.5 121.5 -52.5q55.5 0 93 25.5q34.5 24 57 76.5q10.5 30 43.5 18q30 -12 18 -42q-25.5 -70.5 -81 -108q-57 -36 -130.5 -36
q-112.5 0 -174 78q-61.5 75 -61.5 207v582h-120q-33 0 -33 34.5q0 31.5 33 31.5h120v438q-21 46.5 -54 72q-37.5 24 -94.5 24q-81 0 -121.5 -52.5q-46.5 -57 -46.5 -166.5v-1215q0 -33 -31.5 -33q-36 0 -36 33v1215q0 120 51 195q-37.5 24 -93 24q-81 0 -121.5 -52.5
q-46.5 -57 -46.5 -166.5v-1215q0 -33 -31.5 -33q-36 0 -36 33v1215q0 132 61.5 210q61.5 76.5 174 76.5q76.5 0 130.5 -36q4.5 -3 7.5 -6q55.5 42 139.5 42q76.5 0 130.5 -36q9 -6 18 -13.5v16.5z" />
    <glyph glyph-name="ff" unicode="&#xfb00;" horiz-adv-x="562" 
d="M817.5 1335q-21 49.5 -55.5 75q-37.5 24 -94.5 24q-81 0 -121.5 -52.5q-46.5 -57 -46.5 -166.5v-315h244.5q33 0 33 -31.5q0 -34.5 -33 -34.5h-244.5v-834q0 -33 -31.5 -33q-36 0 -36 33v834h-306v-834q0 -33 -31.5 -33q-36 0 -36 33v834h-102q-33 0 -33 34.5
q0 31.5 33 31.5h102v315q0 132 61.5 210q61.5 76.5 174 76.5q76.5 0 130.5 -36q33 -22.5 55.5 -58.5q6 9 13.5 18q61.5 76.5 174 76.5q76.5 0 130.5 -36q55.5 -37.5 81 -106.5q15 -33 -18 -45t-43.5 21zM444 1335q-21 49.5 -55.5 75q-37.5 24 -94.5 24q-81 0 -121.5 -52.5
q-46.5 -57 -46.5 -166.5v-315h306v315q0 63 13.5 114z" />
    <glyph glyph-name="fi" unicode="&#xfb01;" horiz-adv-x="628" 
d="M444 1335q-21 49.5 -55.5 75q-37.5 24 -94.5 24q-81 0 -121.5 -52.5q-46.5 -57 -46.5 -166.5v-315h244.5q33 0 33 -31.5q0 -34.5 -33 -34.5h-244.5v-834q0 -33 -31.5 -33q-36 0 -36 33v834h-102q-33 0 -33 34.5q0 31.5 33 31.5h102v315q0 132 61.5 210
q61.5 76.5 174 76.5q76.5 0 130.5 -36q55.5 -37.5 81 -106.5q15 -33 -18 -45t-43.5 21zM534 708v-708q0 -33 -34.5 -33q-33 0 -33 33v708q0 34.5 33 34.5q34.5 0 34.5 -34.5zM427.5 1119q0 -37.5 21.75 -63t53.25 -25.5t54 25.5t22.5 63t-22.5 63.75t-54 26.25
t-53.25 -26.25t-21.75 -63.75z" />
    <glyph glyph-name="fl" unicode="&#xfb02;" horiz-adv-x="600" 
d="M525 1468.5v-1468.5q0 -33 -34.5 -33q-33 0 -33 33v1314q-9 6 -13.5 21q-21 49.5 -55.5 75q-37.5 24 -94.5 24q-81 0 -121.5 -52.5q-46.5 -57 -46.5 -166.5v-315h244.5q33 0 33 -31.5q0 -34.5 -33 -34.5h-244.5v-834q0 -33 -31.5 -33q-36 0 -36 33v834h-102
q-33 0 -33 34.5q0 31.5 33 31.5h102v315q0 132 61.5 210q61.5 76.5 174 76.5q76.5 0 130.5 -36q18 -12 33 -28.5v31.5q0 33 33 33q34.5 0 34.5 -33z" />
    <glyph glyph-name="ffi" unicode="&#xfb03;" horiz-adv-x="1002" 
d="M817.5 1335q-21 49.5 -55.5 75q-37.5 24 -94.5 24q-81 0 -121.5 -52.5q-46.5 -57 -46.5 -166.5v-315h244.5q33 0 33 -31.5q0 -34.5 -33 -34.5h-244.5v-834q0 -33 -31.5 -33q-36 0 -36 33v834h-306v-834q0 -33 -31.5 -33q-36 0 -36 33v834h-102q-33 0 -33 34.5
q0 31.5 33 31.5h102v315q0 132 61.5 210q61.5 76.5 174 76.5q76.5 0 130.5 -36q33 -22.5 55.5 -58.5q6 9 13.5 18q61.5 76.5 174 76.5q76.5 0 130.5 -36q55.5 -37.5 81 -106.5q15 -33 -18 -45t-43.5 21zM444 1335q-21 49.5 -55.5 75q-37.5 24 -94.5 24q-81 0 -121.5 -52.5
q-46.5 -57 -46.5 -166.5v-315h306v315q0 63 13.5 114zM907.5 708v-708q0 -33 -34.5 -33q-33 0 -33 33v708q0 34.5 33 34.5q34.5 0 34.5 -34.5zM801 1119q0 -37.5 21.75 -63t53.25 -25.5t54 25.5t22.5 63t-22.5 63.75t-54 26.25t-53.25 -26.25t-21.75 -63.75z" />
    <glyph glyph-name="ffl" unicode="&#xfb04;" horiz-adv-x="973" 
d="M898.5 1468.5v-1468.5q0 -33 -34.5 -33q-33 0 -33 33v1314q-9 6 -13.5 21q-21 49.5 -55.5 75q-37.5 24 -94.5 24q-81 0 -121.5 -52.5q-46.5 -57 -46.5 -166.5v-315h244.5q33 0 33 -31.5q0 -34.5 -33 -34.5h-244.5v-834q0 -33 -31.5 -33q-36 0 -36 33v834h-306v-834
q0 -33 -31.5 -33q-36 0 -36 33v834h-102q-33 0 -33 34.5q0 31.5 33 31.5h102v315q0 132 61.5 210q61.5 76.5 174 76.5q76.5 0 130.5 -36q33 -22.5 55.5 -58.5q6 9 13.5 18q61.5 76.5 174 76.5q76.5 0 130.5 -36q18 -12 33 -28.5v31.5q0 33 33 33q34.5 0 34.5 -33zM444 1335
q-21 49.5 -55.5 75q-37.5 24 -94.5 24q-81 0 -121.5 -52.5q-46.5 -57 -46.5 -166.5v-315h306v315q0 63 13.5 114z" />
    <glyph glyph-name="m_m" unicode="&#xe5d2;" horiz-adv-x="1065" 
d="M922.5 354q0 160.5 -49.5 246q-48 75 -127.5 75q-85.5 0 -129 -75q-51 -88.5 -51 -246v-354q0 -33 -33 -33t-33 33v354q0 157.5 -51 246q-48 75 -127.5 75q-84 0 -127.5 -75q-51 -84 -51 -246v-354q0 -33 -34.5 -33q-33 0 -33 33v354v354q0 34.5 33 34.5
q34.5 0 34.5 -34.5v-63q64.5 97.5 178.5 97.5q120 0 184.5 -109.5q15 -27 27 -57q7.5 24 27 57q63 109.5 186 109.5q120 0 184.5 -109.5q60 -99 60 -279v-354q0 -33 -33 -33q-34.5 0 -34.5 33v354zM955.5 858l-855 1.5q-36 0 -34.5 36q-1.5 33 34.5 33h856.5
q31.5 -1.5 33 -37.5q0 -34.5 -34.5 -33z" />
    <glyph glyph-name="degree" unicode="&#xb0;" horiz-adv-x="589" 
d="M136.5 1267.5q0 -34.5 12.75 -63.75t35.25 -51t51.75 -34.5t62.25 -12.75t63 12.75t52.5 34.5t35.25 51t12.75 63.75q0 33 -12.75 63t-35.25 52.5t-52.5 35.25t-63 12.75t-62.25 -12.75t-51.75 -35.25t-35.25 -52.5t-12.75 -63zM69 1267.5q0 48 18 90t48.75 73.5
t72.75 49.5t90 18t90 -18t73.5 -49.5t49.5 -73.5t18 -90t-18 -90t-49.5 -72.75t-73.5 -48.75t-90 -18t-90 18t-72.75 48.75t-48.75 72.75t-18 90z" />
    <glyph glyph-name="uni00AD" unicode="&#xad;" horiz-adv-x="951" 
d="M763.5 501l-570 1.5q-36 0 -34.5 36q0 33 34.5 33h570q33 -1.5 33 -37.5q0 -34.5 -33 -33z" />
    <glyph glyph-name="logicalnot" unicode="&#xac;" horiz-adv-x="951" 
d="M757.5 298.5q-33 0 -33 34.5v168l-531 1.5q-36 0 -34.5 36q0 33 34.5 33h564q33 -1.5 37.5 -36l-1.5 -202.5q0 -36 -36 -34.5z" />
    <glyph glyph-name="n_n" unicode="&#xe5dc;" 
d="M639 354q0 157.5 -66 243q-63 78 -183 78t-181.5 -78q-66 -85.5 -66 -243v-354q0 -33 -34.5 -33q-33 0 -33 33v354v354q0 34.5 33 34.5q34.5 0 34.5 -34.5v-88.5q3 6 13.5 18q84 105 234 105q151.5 0 235.5 -105q81 -103.5 81 -283.5v-354q0 -33 -34.5 -33q-33 0 -33 33
v354zM672 858l-571.5 1.5q-36 0 -34.5 36q-1.5 33 34.5 33h573q31.5 -1.5 33 -37.5q0 -34.5 -34.5 -33z" />
    <glyph glyph-name="longs_longs" unicode="&#xeba6;" horiz-adv-x="468" 
d="M723 1335q-21 49.5 -55.5 75q-37.5 24 -94.5 24q-81 0 -121.5 -52.5q-46.5 -57 -46.5 -166.5v-1215q0 -33 -31.5 -33q-36 0 -36 33v1215q0 120 51 195q-37.5 24 -93 24q-81 0 -121.5 -52.5q-46.5 -57 -46.5 -166.5v-1215q0 -33 -31.5 -33q-36 0 -36 33v1215
q0 132 61.5 210q61.5 76.5 174 76.5q76.5 0 130.5 -36q4.5 -3 7.5 -6q55.5 42 139.5 42q76.5 0 130.5 -36q55.5 -37.5 81 -106.5q15 -33 -18 -45t-43.5 21z" />
    <glyph glyph-name="registered" unicode="&#xae;" horiz-adv-x="939" 
d="M483 1057.5h-16.5l183 -205.5q22.5 -24 -1.5 -46.5q-25.5 -24 -48 1.5l-172.5 196.5v-174q0 -33 -34.5 -33q-33 0 -33 33v261v262.5q0 33 33 33h0.75h2.25h85.5v0h1.5q79.5 0 127.5 -42q48 -46.5 48 -121.5q0 -78 -48 -123q-48 -42 -127.5 -42zM484.5 1501.5
q172.5 0 292.5 -121.5q121.5 -120 121.5 -292.5t-121.5 -292.5q-120 -121.5 -292.5 -121.5t-292.5 121.5q-121.5 120 -121.5 292.5t121.5 292.5q120 121.5 292.5 121.5zM730.5 1333.5q-103.5 100.5 -246 100.5q-144 0 -246 -100.5q-102 -103.5 -102 -246t102 -246
q102 -100.5 246 -100.5q142.5 0 246 100.5q100.5 102 100.5 246t-100.5 246zM427.5 1318.5v-193.5h55.5q52.5 0 82.5 24q25.5 22.5 25.5 73.5q0 48 -25.5 72q-30 24 -82.5 24h-1.5v0h-54z" />
    <glyph glyph-name="braceleft" unicode="{" horiz-adv-x="565" 
d="M465 1537.5q-136.5 -99 -149.25 -198.75t-0.75 -198.75q13.5 -108 2.25 -216.75t-141.75 -216.75q130.5 -108 141.75 -216t-2.25 -216q-12 -100.5 0.75 -199.5t149.25 -198q25.5 -18 7.5 -45q-21 -28.5 -46.5 -7.5q-162 115.5 -176.25 228.75t0.75 228.75
q10.5 100.5 -2.25 199.5t-146.25 198q-6 1.5 -7.5 9q-19.5 24 6 45l19.5 -27l-19.5 27q135 99 147.75 198.75t2.25 200.25q-15 114 -0.75 228.75t176.25 230.25q25.5 21 46.5 -7.5q18 -28.5 -7.5 -46.5z" />
    <glyph glyph-name="braceright" unicode="}" horiz-adv-x="565" 
d="M100.5 -121.5q136.5 99 149.25 198.75t0.75 198.75q-13.5 108 -2.25 216.75t141.75 216.75q-130.5 108 -141.75 216t2.25 216q12 100.5 -0.75 199.5t-149.25 198q-25.5 18 -7.5 45q21 28.5 46.5 7.5q162 -115.5 176.25 -228.75t-0.75 -228.75q-10.5 -100.5 2.25 -199.5
t146.25 -198q6 -1.5 7.5 -9q19.5 -24 -6 -45l-19.5 27l19.5 -27q-135 -99 -147.75 -198.75t-2.25 -200.25q15 -114 0.75 -228.75t-176.25 -230.25q-25.5 -21 -46.5 7.5q-18 28.5 7.5 46.5z" />
    <glyph glyph-name="copyright" unicode="&#xa9;" horiz-adv-x="1684" 
d="M1150.5 375q-46.5 -120 -123 -180q-81 -64.5 -192 -64.5q-202.5 0 -286.5 177t-84 427.5q0 283.5 94.5 439.5q96 165 276 165q108 0 192 -64.5q76.5 -61.5 123 -181.5q13.5 -31.5 -19.5 -42q-31.5 -12 -43.5 18q-39 100.5 -102 153q-64.5 49.5 -150 49.5
q-144 0 -219 -130.5q-84 -144 -84 -406.5q0 -223.5 69 -380.25t234 -156.75q88.5 0 150 49.5q63 49.5 102 151.5q12 31.5 43.5 19.5q31.5 -13.5 19.5 -43.5zM841.5 1501.5q319.5 0 543 -223.5q225 -225 225 -543q0 -319.5 -225 -543q-223.5 -223.5 -543 -223.5
q-318 0 -543 223.5q-223.5 225 -223.5 543q0 316.5 223.5 543q225 223.5 543 223.5zM1336.5 1230q-205.5 204 -495 204t-493.5 -204q-205.5 -205.5 -205.5 -495t205.5 -495q202.5 -205.5 493.5 -205.5q289.5 0 495 205.5t205.5 495t-205.5 495z" />
    <glyph glyph-name="florin" unicode="&#x192;" horiz-adv-x="189" 
d="M-256.5 -562.5q19.5 -49.5 55.5 -76.5q37.5 -24 93 -24q82.5 0 123 51q45 58.5 45 168l-1.5 1278h-102q-33 0 -33 34.5q0 31.5 33 31.5h102v315q0 132 61.5 210q61.5 76.5 174 76.5q76.5 0 130.5 -36q55.5 -37.5 81 -106.5q15 -33 -18 -45t-43.5 21q-21 49.5 -55.5 75
q-37.5 24 -94.5 24q-81 0 -121.5 -52.5q-46.5 -57 -46.5 -166.5v-315h244.5q33 0 33 -31.5q0 -34.5 -33 -34.5h-244.5v-1278q0 -130.5 -58.5 -208.5q-60 -78 -175.5 -78q-73.5 0 -130.5 37.5q-52.5 36 -81 106.5q-9 31.5 19.5 42q31.5 15 43.5 -18z" />
    <glyph glyph-name="perthousand" unicode="&#x2030;" horiz-adv-x="1125" 
d="M780 1452l-693 -1431q-13.5 -30 -45 -15q-30 13.5 -15 43.5l691.5 1432.5q15 30 45 15t16.5 -45zM1086 249q0 -51 -14.25 -96t-39.75 -78.75t-59.25 -53.25t-72.75 -19.5t-72.75 19.5t-59.25 53.25t-40.5 78.75t-15 96t15 96t40.5 78.75t59.25 53.25t72.75 19.5
t72.75 -19.5t59.25 -53.25t39.75 -78.75t14.25 -96zM775.5 247.5q0 -37.5 9.75 -71.25t26.25 -58.5t39 -39t49.5 -14.25t49.5 14.25t39.75 39t27 58.5t9.75 71.25t-9.75 71.25t-27 59.25t-39.75 39.75t-49.5 14.25t-49.5 -14.25t-39 -39.75t-26.25 -59.25t-9.75 -71.25z
M409.5 1237.5q0 -51 -14.25 -96t-39.75 -78.75t-59.25 -53.25t-72.75 -19.5t-72.75 19.5t-59.25 53.25t-40.5 78.75t-15 96t15 96t40.5 78.75t59.25 53.25t72.75 19.5t72.75 -19.5t59.25 -53.25t39.75 -78.75t14.25 -96zM99 1236q0 -37.5 9.75 -71.25t26.25 -58.5t39 -39
t49.5 -14.25t49.5 14.25t39.75 39t27 58.5t9.75 71.25t-9.75 71.25t-27 59.25t-39.75 39.75t-49.5 14.25t-49.5 -14.25t-39 -39.75t-26.25 -59.25t-9.75 -71.25zM670.5 249q0 -51 -14.25 -96t-39.75 -78.75t-59.25 -53.25t-72.75 -19.5t-72.75 19.5t-59.25 53.25
t-40.5 78.75t-15 96t15 96t40.5 78.75t59.25 53.25t72.75 19.5t72.75 -19.5t59.25 -53.25t39.75 -78.75t14.25 -96zM360 247.5q0 -37.5 9.75 -71.25t26.25 -58.5t39 -39t49.5 -14.25t49.5 14.25t39.75 39t27 58.5t9.75 71.25t-9.75 71.25t-27 59.25t-39.75 39.75
t-49.5 14.25t-49.5 -14.25t-39 -39.75t-26.25 -59.25t-9.75 -71.25z" />
    <glyph glyph-name="plusminus" unicode="&#xb1;" horiz-adv-x="951" 
d="M763.5 193.5l-570 1.5q-36 0 -34.5 36q0 33 34.5 33h570q33 -1.5 33 -37.5q0 -34.5 -33 -33zM763.5 630h-253.5v-249q0 -36 -36 -34.5q-33 0 -33 34.5v249l-247.5 1.5q-36 0 -34.5 36q0 33 34.5 33h247.5v250.5q1.5 33 37.5 33q34.5 0 33 -33l-1.5 -250.5h253.5
q33 -1.5 33 -37.5q0 -34.5 -33 -33z" />
    <glyph glyph-name="sterling" unicode="&#xa3;" horiz-adv-x="1018" 
d="M763.5 501l-409.5 1.5v-468h570q33 0 33 -34.5q0 -33 -33 -33h-814.5q-34.5 0 -34.5 33q0 34.5 34.5 34.5h177v468h-93q-36 0 -34.5 36q0 33 34.5 33h93v543q0 181.5 81 283.5q82.5 103.5 235.5 103.5q150 0 234 -103.5q81 -100.5 81 -283.5q0 -33 -33 -33
q-34.5 0 -34.5 33q0 159 -66 241.5q-61.5 79.5 -181.5 79.5t-183 -79.5q-66 -82.5 -66 -241.5v-543h409.5q33 -1.5 33 -37.5q0 -34.5 -33 -33z" />
    <glyph glyph-name="macron" unicode="&#xaf;" horiz-adv-x="783" 
d="M681 1084.5l-570 1.5q-36 0 -34.5 36q0 33 34.5 33h570q33 -1.5 33 -37.5q0 -34.5 -33 -33z" />
    <glyph glyph-name="dagger" unicode="&#x2020;" horiz-adv-x="540" 
d="M478.5 1188h-180v-1188q0 -33 -34.5 -33q-33 0 -33 33v1189.5l-178.5 1.5q-34.5 0 -33 34.5q0 34.5 33 34.5h178.5v208.5q0 33 33 33q34.5 0 34.5 -33v-208.5h181.5q33 -1.5 34.5 -36q0 -36 -36 -36z" />
    <glyph glyph-name="daggerdbl" unicode="&#x2021;" horiz-adv-x="540" 
d="M481.5 1188h-180v-883.5h181.5q33 0 34.5 -36q0 -34.5 -36 -34.5h-180v-234q0 -33 -34.5 -33q-33 0 -33 33v234l-175.5 1.5q-36 0 -34.5 36q-1.5 33 34.5 33h175.5v885l-178.5 1.5q-34.5 0 -33 34.5q0 34.5 33 34.5h178.5v208.5q0 33 33 33q34.5 0 34.5 -33v-208.5h181.5
q33 -1.5 34.5 -36q0 -36 -36 -36z" />
    <glyph glyph-name="currency" unicode="&#xa4;" horiz-adv-x="823" 
d="M556.5 879q-60 60 -144 60q-85.5 0 -144 -60v0v0q-60 -61.5 -60 -144q0 -85.5 60 -144v0v0q58.5 -60 144 -60q84 0 144 60v0v0q60 58.5 60 144q0 82.5 -60 144v0zM627 900q57 -72 57 -165q0 -96 -57 -166.5l99 -100.5q22.5 -22.5 0 -46.5q-25.5 -22.5 -48 0l-99 99
q-72 -57 -166.5 -57q-96 0 -166.5 57l-99 -99q-24 -24 -46.5 0q-25.5 24 0 46.5l97.5 100.5q-57 70.5 -57 166.5q0 93 57 165l-97.5 100.5q-25.5 22.5 0 46.5q22.5 24 46.5 0l99 -97.5q73.5 57 166.5 57q91.5 0 166.5 -57l99 97.5q22.5 24 48 0q22.5 -24 0 -46.5z" />
    <glyph glyph-name="roundr" unicode="&#xa75b;" 
d="M142.5 706.5q0 -159 66 -241.5q61.5 -79.5 181.5 -79.5t183 79.5q66 82.5 66 241.5v1.5q0 34.5 33 34.5q34.5 0 34.5 -34.5v-1.5v-708q0 -33 -34.5 -33q-33 0 -33 33v444q-3 -6 -13.5 -19.5q-82.5 -103.5 -235.5 -103.5q-150 0 -234 103.5q-81 100.5 -81 283.5v1.5
q0 34.5 33 34.5q34.5 0 34.5 -34.5v-1.5z" />
    <glyph glyph-name="Cacute" unicode="&#x106;" horiz-adv-x="1026" 
d="M937.5 274.5q-58.5 -153 -156 -228q-102 -79.5 -240 -79.5q-228 0 -348 205.5q-63 103.5 -90.75 249t-27.75 313.5q0 165 27.75 309.75t90.75 251.25q120 205.5 348 205.5q138 0 240 -79.5q99 -78 156 -228q13.5 -33 -18 -43.5q-33 -12 -43.5 19.5
q-52.5 133.5 -135 199.5q-82.5 64.5 -199.5 64.5q-190.5 0 -291 -171q-57 -97.5 -82.5 -234.75t-25.5 -293.25q0 -160.5 25.5 -296.25t82.5 -231.75q100.5 -174 291 -174q115.5 0 199.5 66q84 64.5 135 199.5q10.5 30 43.5 19.5q31.5 -13.5 18 -43.5zM654 1915.5l-249 -150
q-28.5 -16.5 -46.5 13.5q-16.5 27 12 45l247.5 148.5q30 18 48 -10.5q16.5 -30 -12 -46.5z" />
    <glyph glyph-name="Ccaron" unicode="&#x10c;" horiz-adv-x="1026" 
d="M937.5 274.5q-58.5 -153 -156 -228q-102 -79.5 -240 -79.5q-228 0 -348 205.5q-63 103.5 -90.75 249t-27.75 313.5q0 165 27.75 309.75t90.75 251.25q120 205.5 348 205.5q138 0 240 -79.5q99 -78 156 -228q13.5 -33 -18 -43.5q-33 -12 -43.5 19.5
q-52.5 133.5 -135 199.5q-82.5 64.5 -199.5 64.5q-190.5 0 -291 -171q-57 -97.5 -82.5 -234.75t-25.5 -293.25q0 -160.5 25.5 -296.25t82.5 -231.75q100.5 -174 291 -174q115.5 0 199.5 66q84 64.5 135 199.5q10.5 30 43.5 19.5q31.5 -13.5 18 -43.5zM682.5 1869l-171 -132
l-168 130.5q-27 21 -7.5 48q22.5 22.5 45 4.5l130.5 -100.5l129 102q25.5 18 48 -4.5q19.5 -27 -6 -48z" />
    <glyph glyph-name="Ccircumflex" unicode="&#x108;" horiz-adv-x="1026" 
d="M937.5 274.5q-58.5 -153 -156 -228q-102 -79.5 -240 -79.5q-228 0 -348 205.5q-63 103.5 -90.75 249t-27.75 313.5q0 165 27.75 309.75t90.75 251.25q120 205.5 348 205.5q138 0 240 -79.5q99 -78 156 -228q13.5 -33 -18 -43.5q-33 -12 -43.5 19.5
q-52.5 133.5 -135 199.5q-82.5 64.5 -199.5 64.5q-190.5 0 -291 -171q-57 -97.5 -82.5 -234.75t-25.5 -293.25q0 -160.5 25.5 -296.25t82.5 -231.75q100.5 -174 291 -174q115.5 0 199.5 66q84 64.5 135 199.5q10.5 30 43.5 19.5q31.5 -13.5 18 -43.5zM342 1807.5l171 132
l168 -130.5q27 -21 7.5 -48q-22.5 -22.5 -45 -4.5l-130.5 100.5l-129 -102q-25.5 -18 -48 4.5q-19.5 27 6 48z" />
    <glyph glyph-name="Amacron" unicode="&#x100;" horiz-adv-x="1185" 
d="M367.5 675l-223.5 -684q-9 -31.5 -42 -21q-27 9 -21 40.5l477 1467v0v1.5v0q6 15 22.5 21q30 9 42 -21l477 -1468.5q10.5 -30 -21 -40.5t-43.5 21l-222 684h-445.5zM589.5 1359l-199.5 -616.5h402zM879 1834.5l-570 1.5q-36 0 -34.5 36q0 33 34.5 33h570
q33 -1.5 33 -37.5q0 -34.5 -33 -33z" />
    <glyph glyph-name="AEacute" unicode="&#x1fc;" horiz-adv-x="1368" 
d="M31.5 -22.5q-30 13.5 -15 43.5l702 1461q10.5 22.5 31.5 19.5h3h532.5q33 0 33 -33q0 -34.5 -33 -34.5h-498v-691.5h498q33 0 33 -34.5q0 -33 -33 -33h-498v-642h498q33 0 33 -33t-33 -33h-532.5q-33 0 -33 33v675h-316.5l-327 -682.5q-13.5 -30 -45 -15zM720 742.5v585
l-283.5 -585h283.5zM1039.5 1915.5l-249 -150q-28.5 -16.5 -46.5 13.5q-16.5 27 12 45l247.5 148.5q30 18 48 -10.5q16.5 -30 -12 -46.5z" />
    <glyph glyph-name="Dcaron" unicode="&#x10e;" horiz-adv-x="931" 
d="M390 1501.5q228 0 348 -205.5q63 -106.5 90.75 -251.25t27.75 -309.75q0 -168 -27.75 -313.5t-90.75 -249q-120 -205.5 -348 -205.5h-282q-33 0 -33 33v1468.5q0 33 33 33h282zM390 33q189 0 291 174q57 96 82.5 231.75t25.5 296.25q0 156 -25.5 293.25t-82.5 234.75
q-102 171 -291 171h-247.5v-1401h247.5zM520.5 1869l-171 -132l-168 130.5q-27 21 -7.5 48q22.5 22.5 45 4.5l130.5 -100.5l129 102q25.5 18 48 -4.5q19.5 -27 -6 -48z" />
    <glyph glyph-name="Dcroat" unicode="&#x110;" horiz-adv-x="931" 
d="M390 1501.5q228 0 348 -205.5q63 -106.5 90.75 -251.25t27.75 -309.75q0 -168 -27.75 -313.5t-90.75 -249q-120 -205.5 -348 -205.5h-282q-33 0 -33 33v1468.5q0 33 33 33h282zM390 33q189 0 291 174q57 96 82.5 231.75t25.5 296.25q0 156 -25.5 293.25t-82.5 234.75
q-102 171 -291 171h-247.5v-1401h247.5zM586.5 711l-570 1.5q-36 0 -34.5 36q0 33 34.5 33h570q33 -1.5 33 -37.5q0 -34.5 -33 -33z" />
    <glyph glyph-name="breve" unicode="&#x2d8;" horiz-adv-x="508" 
d="M147 1080q57 -57 108 -57t105 55.5q24 24 49.5 1.5q24 -24 0 -48q-75 -76.5 -154.5 -76.5q-78 1.5 -156 76.5q-24 22.5 0 48q24 22.5 48 0z" />
    <glyph glyph-name="ogonek" unicode="&#x2db;" horiz-adv-x="354" 
d="M202.5 -33q-54 -34.5 -58.5 -90q0 -21 6.75 -34.5t24.75 -24t51 0q31.5 12 42 -19.5t-19.5 -42q-67.5 -22.5 -107.25 3.75t-53.25 57.75t-10.5 63q4.5 88.5 87 141q28.5 16.5 46.5 -10.5q19.5 -27 -9 -45z" />
    <glyph glyph-name="dotaccent" unicode="&#x2d9;" horiz-adv-x="255" 
d="M54 1119q0 37.5 21.75 63.75t53.25 26.25t54 -26.25t22.5 -63.75t-22.5 -63t-54 -25.5t-53.25 25.5t-21.75 63z" />
    <glyph glyph-name="Aogonek" unicode="&#x104;" horiz-adv-x="1200" 
d="M1069.5 -33q-54 -34.5 -58.5 -90q0 -21 6.75 -34.5t24.75 -24t51 0q31.5 12 42 -19.5t-19.5 -42q-67.5 -22.5 -107.25 3.75t-53.25 57.75t-10.5 63q4.5 85.5 81 136.5l-213 657h-445.5l-223.5 -684q-9 -31.5 -42 -21q-27 9 -21 40.5l477 1467v1.5q6 15 22.5 21
q30 9 42 -21l477 -1468.5q10.5 -30 -21 -40.5q-4.5 -1.5 -7.5 -1.5zM589.5 1359l-199.5 -616.5h402z" />
    <glyph glyph-name="Abreve" unicode="&#x102;" horiz-adv-x="1185" 
d="M367.5 675l-223.5 -684q-9 -31.5 -42 -21q-27 9 -21 40.5l477 1467v1.5q6 15 22.5 21q30 9 42 -21l477 -1468.5q10.5 -30 -21 -40.5t-43.5 21l-222 684h-445.5zM589.5 1359l-199.5 -616.5h402zM484.5 1830q57 -57 108 -57t105 55.5q24 24 49.5 1.5q24 -24 0 -48
q-75 -76.5 -154.5 -76.5q-78 1.5 -156 76.5q-24 22.5 0 48q24 22.5 48 0z" />
    <glyph glyph-name="Cdotaccent" unicode="&#x10a;" horiz-adv-x="1026" 
d="M937.5 274.5q-58.5 -153 -156 -228q-102 -79.5 -240 -79.5q-228 0 -348 205.5q-63 103.5 -90.75 249t-27.75 313.5q0 165 27.75 309.75t90.75 251.25q120 205.5 348 205.5q138 0 240 -79.5q99 -78 156 -228q13.5 -33 -18 -43.5q-33 -12 -43.5 19.5
q-52.5 133.5 -135 199.5q-82.5 64.5 -199.5 64.5q-190.5 0 -291 -171q-57 -97.5 -82.5 -234.75t-25.5 -293.25q0 -160.5 25.5 -296.25t82.5 -231.75q100.5 -174 291 -174q115.5 0 199.5 66q84 64.5 135 199.5q10.5 30 43.5 19.5q31.5 -13.5 18 -43.5zM436.5 1869
q0 37.5 21.75 63.75t53.25 26.25t54 -26.25t22.5 -63.75t-22.5 -63t-54 -25.5t-53.25 25.5t-21.75 63z" />
    <glyph glyph-name="Ebreve" unicode="&#x114;" horiz-adv-x="823" 
d="M142.5 675v-642h573q33 0 33 -33t-33 -33h-607.5q-33 0 -33 33v1468.5q0 33 33 33h607.5q33 0 33 -33q0 -34.5 -33 -34.5h-573v-691.5h573q33 0 33 -34.5q0 -33 -33 -33h-573zM304.5 1830q57 -57 108 -57t105 55.5q24 24 49.5 1.5q24 -24 0 -48q-75 -76.5 -154.5 -76.5
q-78 1.5 -156 76.5q-24 22.5 0 48q24 22.5 48 0z" />
    <glyph glyph-name="Ecaron" unicode="&#x11a;" horiz-adv-x="823" 
d="M142.5 675v-642h573q33 0 33 -33t-33 -33h-607.5q-33 0 -33 33v1468.5q0 33 33 33h607.5q33 0 33 -33q0 -34.5 -33 -34.5h-573v-691.5h573q33 0 33 -34.5q0 -33 -33 -33h-573zM582 1869l-171 -132l-168 130.5q-27 21 -7.5 48q22.5 22.5 45 4.5l130.5 -100.5l129 102
q25.5 18 48 -4.5q19.5 -27 -6 -48z" />
    <glyph glyph-name="Edotaccent" unicode="&#x116;" horiz-adv-x="823" 
d="M142.5 675v-642h573q33 0 33 -33t-33 -33h-607.5q-33 0 -33 33v1468.5q0 33 33 33h607.5q33 0 33 -33q0 -34.5 -33 -34.5h-573v-691.5h573q33 0 33 -34.5q0 -33 -33 -33h-573zM336 1869q0 37.5 21.75 63.75t53.25 26.25t54 -26.25t22.5 -63.75t-22.5 -63t-54 -25.5
t-53.25 25.5t-21.75 63z" />
    <glyph glyph-name="Emacron" unicode="&#x112;" horiz-adv-x="823" 
d="M142.5 675v-642h573q33 0 33 -33t-33 -33h-607.5q-33 0 -33 33v1468.5q0 33 33 33h607.5q33 0 33 -33q0 -34.5 -33 -34.5h-573v-691.5h573q33 0 33 -34.5q0 -33 -33 -33h-573zM697.5 1834.5l-570 1.5q-36 0 -34.5 36q0 33 34.5 33h570q33 -1.5 33 -37.5q0 -34.5 -33 -33z
" />
    <glyph glyph-name="Eogonek" unicode="&#x118;" horiz-adv-x="823" 
d="M672 -33q-54 -34.5 -58.5 -90q0 -21 6.75 -34.5t24.75 -24t51 0q31.5 12 42 -19.5t-19.5 -42q-67.5 -22.5 -107.25 3.75t-53.25 57.75t-10.5 63q1.5 48 27 85.5h-466.5q-33 0 -33 33v1468.5q0 33 33 33h607.5q33 0 33 -33q0 -34.5 -33 -34.5h-573v-691.5h573
q33 0 33 -34.5q0 -33 -33 -33h-573v-642h573q33 0 33 -33t-33 -33h-43.5z" />
    <glyph glyph-name="Gbreve" unicode="&#x11e;" horiz-adv-x="1144" 
d="M1038 675h-97.5v-675q0 -33 -34.5 -33q-33 0 -33 33v145.5q-40.5 -61.5 -91.5 -99q-102 -79.5 -240 -79.5q-228 0 -348 205.5q-63 103.5 -90.75 249t-27.75 313.5q0 165 27.75 309.75t90.75 251.25q120 205.5 348 205.5q138 0 240 -79.5q99 -78 156 -228
q13.5 -33 -18 -43.5q-33 -12 -43.5 19.5q-52.5 133.5 -135 199.5q-82.5 64.5 -199.5 64.5q-190.5 0 -291 -171q-57 -97.5 -82.5 -234.75t-25.5 -293.25q0 -160.5 25.5 -296.25t82.5 -231.75q100.5 -174 291 -174q115.5 0 199.5 66q82.5 64.5 132 193.5v382.5h-186
q-31.5 0 -31.5 33q0 34.5 31.5 34.5h351q31.5 0 31.5 -34.5q0 -33 -31.5 -33zM414 1851q57 -57 108 -57t105 55.5q24 24 49.5 1.5q24 -24 0 -48q-75 -76.5 -154.5 -76.5q-78 1.5 -156 76.5q-24 22.5 0 48q24 22.5 48 0z" />
    <glyph glyph-name="Gcircumflex" unicode="&#x11c;" horiz-adv-x="1144" 
d="M1038 675h-97.5v-675q0 -33 -34.5 -33q-33 0 -33 33v145.5q-40.5 -61.5 -91.5 -99q-102 -79.5 -240 -79.5q-228 0 -348 205.5q-63 103.5 -90.75 249t-27.75 313.5q0 165 27.75 309.75t90.75 251.25q120 205.5 348 205.5q138 0 240 -79.5q99 -78 156 -228
q13.5 -33 -18 -43.5q-33 -12 -43.5 19.5q-52.5 133.5 -135 199.5q-82.5 64.5 -199.5 64.5q-190.5 0 -291 -171q-57 -97.5 -82.5 -234.75t-25.5 -293.25q0 -160.5 25.5 -296.25t82.5 -231.75q100.5 -174 291 -174q115.5 0 199.5 66q82.5 64.5 132 193.5v382.5h-186
q-31.5 0 -31.5 33q0 34.5 31.5 34.5h351q31.5 0 31.5 -34.5q0 -33 -31.5 -33zM402 1807.5l171 132l168 -130.5q27 -21 7.5 -48q-22.5 -22.5 -45 -4.5l-130.5 100.5l-129 -102q-25.5 -18 -48 4.5q-19.5 27 6 48z" />
    <glyph glyph-name="commaaccent" unicode="&#xf6c3;" horiz-adv-x="747" 
d="M328.5 37.5q-15 34.5 39 66t79.5 -6q49.5 -64.5 6 -178.5q-31.5 -90 -129 -232.5q-19.5 -27 -48 -7.5q-27 19.5 -9 48q91.5 133.5 121.5 214.5q27 75 -11.25 72.75t-48.75 23.25z" />
    <glyph glyph-name="Gcommaaccent" unicode="&#x122;" horiz-adv-x="1144" 
d="M1038 675h-97.5v-675q0 -33 -34.5 -33q-33 0 -33 33v145.5q-40.5 -61.5 -91.5 -99q-102 -79.5 -240 -79.5q-228 0 -348 205.5q-63 103.5 -90.75 249t-27.75 313.5q0 165 27.75 309.75t90.75 251.25q120 205.5 348 205.5q138 0 240 -79.5q99 -78 156 -228
q13.5 -33 -18 -43.5q-33 -12 -43.5 19.5q-52.5 133.5 -135 199.5q-82.5 64.5 -199.5 64.5q-190.5 0 -291 -171q-57 -97.5 -82.5 -234.75t-25.5 -293.25q0 -160.5 25.5 -296.25t82.5 -231.75q100.5 -174 291 -174q115.5 0 199.5 66q82.5 64.5 132 193.5v382.5h-186
q-31.5 0 -31.5 33q0 34.5 31.5 34.5h351q31.5 0 31.5 -34.5q0 -33 -31.5 -33zM528 -190.5q-15 34.5 39 66t79.5 -6q49.5 -64.5 6 -178.5q-31.5 -90 -129 -232.5q-19.5 -27 -48 -7.5q-27 19.5 -9 48q91.5 133.5 121.5 214.5q27 75 -11.25 72.75t-48.75 23.25z" />
    <glyph glyph-name="Gdotaccent" unicode="&#x120;" horiz-adv-x="1144" 
d="M1038 675h-97.5v-675q0 -33 -34.5 -33q-33 0 -33 33v145.5q-40.5 -61.5 -91.5 -99q-102 -79.5 -240 -79.5q-228 0 -348 205.5q-63 103.5 -90.75 249t-27.75 313.5q0 165 27.75 309.75t90.75 251.25q120 205.5 348 205.5q138 0 240 -79.5q99 -78 156 -228
q13.5 -33 -18 -43.5q-33 -12 -43.5 19.5q-52.5 133.5 -135 199.5q-82.5 64.5 -199.5 64.5q-190.5 0 -291 -171q-57 -97.5 -82.5 -234.75t-25.5 -293.25q0 -160.5 25.5 -296.25t82.5 -231.75q100.5 -174 291 -174q115.5 0 199.5 66q82.5 64.5 132 193.5v382.5h-186
q-31.5 0 -31.5 33q0 34.5 31.5 34.5h351q31.5 0 31.5 -34.5q0 -33 -31.5 -33zM496.5 1869q0 37.5 21.75 63.75t53.25 26.25t54 -26.25t22.5 -63.75t-22.5 -63t-54 -25.5t-53.25 25.5t-21.75 63z" />
    <glyph glyph-name="Hbar" unicode="&#x126;" horiz-adv-x="936" 
d="M892.5 1107h-31.5v-1107q0 -33 -34.5 -33q-33 0 -33 33v678q-4.5 -3 -12 -3h-639v-675q0 -33 -34.5 -33q-33 0 -33 33v1108.5h-33q-36 0 -34.5 36q0 33 34.5 33h33v291q0 33 33 33q34.5 0 34.5 -33v-291h651v291q0 33 33 33q34.5 0 34.5 -33v-291h31.5q33 -1.5 33 -37.5
q0 -34.5 -33 -33zM781.5 742.5q4.5 0 12 -3v367.5l-651 1.5v-366h639z" />
    <glyph glyph-name="Hcircumflex" unicode="&#x124;" horiz-adv-x="936" 
d="M861 1468.5v-1468.5q0 -33 -34.5 -33q-33 0 -33 33v678q-4.5 -3 -12 -3h-639v-675q0 -33 -34.5 -33q-33 0 -33 33v1468.5q0 33 33 33q34.5 0 34.5 -33v-726h639q4.5 0 12 -3v729q0 33 33 33q34.5 0 34.5 -33zM297 1807.5l171 132l168 -130.5q27 -21 7.5 -48
q-22.5 -22.5 -45 -4.5l-130.5 100.5l-129 -102q-25.5 -18 -48 4.5q-19.5 27 6 48z" />
    <glyph glyph-name="Ibreve" unicode="&#x12c;" horiz-adv-x="640" 
d="M108 33h178.5v1401h-178.5q-33 0 -33 34.5q0 33 33 33h424.5q33 0 33 -33q0 -34.5 -33 -34.5h-178.5v-1401h178.5q33 0 33 -33t-33 -33h-424.5q-33 0 -33 33t33 33zM213 1897.5q57 -57 108 -57t105 55.5q24 24 49.5 1.5q24 -24 0 -48q-75 -76.5 -154.5 -76.5
q-78 1.5 -156 76.5q-24 22.5 0 48q24 22.5 48 0z" />
    <glyph glyph-name="Idotaccent" unicode="&#x130;" horiz-adv-x="640" 
d="M108 33h178.5v1401h-178.5q-33 0 -33 34.5q0 33 33 33h424.5q33 0 33 -33q0 -34.5 -33 -34.5h-178.5v-1401h178.5q33 0 33 -33t-33 -33h-424.5q-33 0 -33 33t33 33zM244.5 1869q0 37.5 21.75 63.75t53.25 26.25t54 -26.25t22.5 -63.75t-22.5 -63t-54 -25.5t-53.25 25.5
t-21.75 63z" />
    <glyph glyph-name="Imacron" unicode="&#x12a;" horiz-adv-x="640" 
d="M108 33h178.5v1401h-178.5q-33 0 -33 34.5q0 33 33 33h424.5q33 0 33 -33q0 -34.5 -33 -34.5h-178.5v-1401h178.5q33 0 33 -33t-33 -33h-424.5q-33 0 -33 33t33 33zM607.5 1834.5l-570 1.5q-36 0 -34.5 36q0 33 34.5 33h570q33 -1.5 33 -37.5q0 -34.5 -33 -33z" />
    <glyph glyph-name="Iogonek" unicode="&#x12e;" horiz-adv-x="640" 
d="M489 -33q-54 -34.5 -58.5 -90q0 -21 6.75 -34.5t24.75 -24t51 0q31.5 12 42 -19.5t-19.5 -42q-67.5 -22.5 -107.25 3.75t-53.25 57.75t-10.5 63q1.5 48 27 85.5h-283.5q-33 0 -33 33t33 33h178.5v1401h-178.5q-33 0 -33 34.5q0 33 33 33h424.5q33 0 33 -33
q0 -34.5 -33 -34.5h-178.5v-1401h178.5q33 0 33 -33t-33 -33h-43.5z" />
    <glyph glyph-name="Itilde" unicode="&#x128;" horiz-adv-x="640" 
d="M108 33h178.5v1401h-178.5q-33 0 -33 34.5q0 33 33 33h424.5q33 0 33 -33q0 -34.5 -33 -34.5h-178.5v-1401h178.5q33 0 33 -33t-33 -33h-424.5q-33 0 -33 33t33 33zM15 1731q36 48 70.5 84t75 49.5q88.5 28.5 183 -97.5q33 -48 70.5 -57q19.5 -6 39 -1.5q18 6 40.5 21
q55.5 40.5 78 111q9 33 42 25.5q33 -12 24 -43.5q-28.5 -94.5 -102 -148.5q-33 -25.5 -66 -31.5q-40.5 -10.5 -76.5 1.5q-58.5 18 -105 82.5q-64.5 87 -106.5 72q-25.5 -7.5 -53.25 -38.25t-59.25 -71.25q-21 -30 -48 -7.5t-6 49.5z" />
    <glyph glyph-name="IJ" unicode="&#x132;" horiz-adv-x="1003" 
d="M108 33h178.5v1401h-178.5q-33 0 -33 34.5q0 33 33 33h424.5q33 0 33 -33q0 -34.5 -33 -34.5h-178.5v-1401h178.5q33 0 33 -33t-33 -33h-424.5q-33 0 -33 33t33 33zM835.5 -208.5v1642.5h-178.5q-33 0 -33 34.5q0 33 33 33h423q34.5 0 34.5 -33q0 -34.5 -34.5 -34.5h-177
v-1642.5q0 -181.5 -81 -283.5q-82.5 -103.5 -235.5 -103.5q-150 0 -234 103.5q-81 100.5 -81 283.5q0 33 33 33q34.5 0 34.5 -33q0 -159 66 -241.5q61.5 -79.5 181.5 -79.5t183 79.5q66 82.5 66 241.5z" />
    <glyph glyph-name="Jcircumflex" unicode="&#x134;" horiz-adv-x="793" 
d="M639 354v1080h-178.5q-33 0 -33 34.5q0 33 33 33h423q34.5 0 34.5 -33q0 -34.5 -34.5 -34.5h-177v-1080q0 -181.5 -81 -283.5q-82.5 -103.5 -235.5 -103.5q-150 0 -234 103.5q-81 100.5 -81 283.5q0 33 33 33q34.5 0 34.5 -33q0 -159 66 -241.5q61.5 -79.5 181.5 -79.5
t183 79.5q66 82.5 66 241.5zM501 1807.5l171 132l168 -130.5q27 -21 7.5 -48q-22.5 -22.5 -45 -4.5l-130.5 100.5l-129 -102q-25.5 -18 -48 4.5q-19.5 27 6 48z" />
    <glyph glyph-name="Kcommaaccent" unicode="&#x136;" horiz-adv-x="931" 
d="M834 1446l-679.5 -711l679.5 -712.5q21 -22.5 -1.5 -45q-24 -24 -46.5 1.5l-643.5 672v-651q0 -33 -34.5 -33q-33 0 -33 33v1468.5q0 33 33 33q34.5 0 34.5 -33v-651l643.5 673.5q22.5 22.5 46.5 1.5q24 -24 1.5 -46.5zM375 46.5q-15 34.5 39 66t79.5 -6
q49.5 -64.5 6 -178.5q-31.5 -90 -129 -232.5q-19.5 -27 -48 -7.5q-27 19.5 -9 48q91.5 133.5 121.5 214.5q27 75 -11.25 72.75t-48.75 23.25z" />
    <glyph glyph-name="Lacute" unicode="&#x139;" horiz-adv-x="823" 
d="M142.5 1468.5v-1435.5h573q33 0 33 -33t-33 -33h-607.5q-33 0 -33 33v1468.5q0 33 33 33q34.5 0 34.5 -33zM553.5 1915.5l-249 -150q-28.5 -16.5 -46.5 13.5q-16.5 27 12 45l247.5 148.5q30 18 48 -10.5q16.5 -30 -12 -46.5z" />
    <glyph glyph-name="Lcaron" unicode="&#x13d;" horiz-adv-x="823" 
d="M142.5 1468.5v-1435.5h573q33 0 33 -33t-33 -33h-607.5q-33 0 -33 33v1468.5q0 33 33 33q34.5 0 34.5 -33zM367.5 1416q-16.5 33 38.25 65.25t80.25 -5.25q49.5 -64.5 6 -178.5q-31.5 -90 -129 -231q-19.5 -30 -48 -10.5q-27 21 -9 48q91.5 135 120 216q28.5 75 -9.75 72
t-48.75 24z" />
    <glyph glyph-name="Lcommaaccent" unicode="&#x13b;" horiz-adv-x="823" 
d="M142.5 1468.5v-1435.5h573q33 0 33 -33t-33 -33h-607.5q-33 0 -33 33v1468.5q0 33 33 33q34.5 0 34.5 -33zM367.5 -187.5q-15 34.5 39 66t79.5 -6q49.5 -64.5 6 -178.5q-31.5 -90 -129 -232.5q-19.5 -27 -48 -7.5q-27 19.5 -9 48q91.5 133.5 121.5 214.5
q27 75 -11.25 72.75t-48.75 23.25z" />
    <glyph glyph-name="Ldot" unicode="&#x13f;" horiz-adv-x="823" 
d="M142.5 1468.5v-1435.5h573q33 0 33 -33t-33 -33h-607.5q-33 0 -33 33v1468.5q0 33 33 33q34.5 0 34.5 -33zM336 780q0 -37.5 21.75 -63t53.25 -25.5t54 25.5t22.5 63t-22.5 63.75t-54 26.25t-53.25 -26.25t-21.75 -63.75z" />
    <glyph glyph-name="Lslash" unicode="&#x141;" horiz-adv-x="994" 
d="M520.5 868.5l-207 -229.5v-606h573q33 0 33 -33t-33 -33h-607.5q-33 0 -33 33v564l-141 -156q-25.5 -27 -51 -1.5q-25.5 21 -1.5 48l193.5 214.5v799.5q0 33 33 33q34.5 0 34.5 -33v-724.5l156 172.5q22.5 22.5 49.5 0q25.5 -22.5 1.5 -48z" />
    <glyph glyph-name="Nacute" unicode="&#x143;" horiz-adv-x="964" 
d="M889.5 1468.5v-1468.5q0 -33 -34.5 -33q-21 0 -30 21l-682.5 1341v-1329q0 -33 -34.5 -33q-33 0 -33 33v1470q0 19.5 18 27q30 15 45 -13.5l684 -1344v1329q0 33 33 33q34.5 0 34.5 -33zM624 1915.5l-249 -150q-28.5 -16.5 -46.5 13.5q-16.5 27 12 45l247.5 148.5
q30 18 48 -10.5q16.5 -30 -12 -46.5z" />
    <glyph glyph-name="Ncaron" unicode="&#x147;" horiz-adv-x="964" 
d="M889.5 1468.5v-1468.5q0 -33 -34.5 -33q-21 0 -30 21l-682.5 1341v-1329q0 -33 -34.5 -33q-33 0 -33 33v1470q0 19.5 18 27q30 15 45 -13.5l684 -1344v1329q0 33 33 33q34.5 0 34.5 -33zM652.5 1869l-171 -132l-168 130.5q-27 21 -7.5 48q22.5 22.5 45 4.5l130.5 -100.5
l129 102q25.5 18 48 -4.5q19.5 -27 -6 -48z" />
    <glyph glyph-name="Ncommaaccent" unicode="&#x145;" horiz-adv-x="964" 
d="M889.5 1468.5v-1468.5q0 -33 -34.5 -33q-21 0 -30 21l-682.5 1341v-1329q0 -33 -34.5 -33q-33 0 -33 33v1470q0 19.5 18 27q30 15 45 -13.5l684 -1344v1329q0 33 33 33q34.5 0 34.5 -33zM438 55.5q-15 34.5 39 66t79.5 -6q49.5 -64.5 6 -178.5q-31.5 -90 -129 -232.5
q-19.5 -27 -48 -7.5q-27 19.5 -9 48q91.5 133.5 121.5 214.5q27 75 -11.25 72.75t-48.75 23.25z" />
    <glyph glyph-name="Obreve" unicode="&#x14e;" horiz-adv-x="1083" 
d="M541.5 1501.5q226.5 0 349.5 -205.5q60 -106.5 88.5 -251.25t28.5 -309.75q0 -168 -28.5 -313.5t-88.5 -249q-124.5 -205.5 -349.5 -205.5q-228 0 -348 205.5q-63 103.5 -90.75 249t-27.75 313.5q0 165 27.75 309.75t90.75 251.25q120 205.5 348 205.5zM832.5 1263
q-102 171 -291 171q-190.5 0 -291 -171q-57 -97.5 -82.5 -234.75t-25.5 -293.25q0 -160.5 25.5 -296.25t82.5 -231.75q100.5 -174 291 -174q189 0 291 174q55.5 96 82.5 231.75t27 296.25q0 156 -27 293.25t-82.5 234.75zM399 1843.5q57 -57 108 -57t105 55.5
q24 24 49.5 1.5q24 -24 0 -48q-75 -76.5 -154.5 -76.5q-78 1.5 -156 76.5q-24 22.5 0 48q24 22.5 48 0z" />
    <glyph glyph-name="hungarumlaut" unicode="&#x2dd;" horiz-adv-x="657" 
d="M555 1219.5l-148.5 -249q-18 -28.5 -48 -10.5q-27 16.5 -10.5 45l148.5 247.5q18 30 48 13.5q28.5 -18 10.5 -46.5zM328.5 1227l-148.5 -249q-18 -28.5 -48 -10.5q-27 16.5 -10.5 45l148.5 247.5q18 30 48 13.5q28.5 -18 10.5 -46.5z" />
    <glyph glyph-name="Ohungarumlaut" unicode="&#x150;" horiz-adv-x="1083" 
d="M541.5 1501.5q226.5 0 349.5 -205.5q60 -106.5 88.5 -251.25t28.5 -309.75q0 -168 -28.5 -313.5t-88.5 -249q-124.5 -205.5 -349.5 -205.5q-228 0 -348 205.5q-63 103.5 -90.75 249t-27.75 313.5q0 165 27.75 309.75t90.75 251.25q120 205.5 348 205.5zM832.5 1263
q-102 171 -291 171q-190.5 0 -291 -171q-57 -97.5 -82.5 -234.75t-25.5 -293.25q0 -160.5 25.5 -296.25t82.5 -231.75q100.5 -174 291 -174q189 0 291 174q55.5 96 82.5 231.75t27 296.25q0 156 -27 293.25t-82.5 234.75zM799.5 1963.5l-148.5 -249q-18 -28.5 -48 -10.5
q-27 16.5 -10.5 45l148.5 247.5q18 30 48 13.5q28.5 -18 10.5 -46.5zM573 1971l-148.5 -249q-18 -28.5 -48 -10.5q-27 16.5 -10.5 45l148.5 247.5q18 30 48 13.5q28.5 -18 10.5 -46.5z" />
    <glyph glyph-name="Omacron" unicode="&#x14c;" horiz-adv-x="1083" 
d="M541.5 1501.5q226.5 0 349.5 -205.5q60 -106.5 88.5 -251.25t28.5 -309.75q0 -168 -28.5 -313.5t-88.5 -249q-124.5 -205.5 -349.5 -205.5q-228 0 -348 205.5q-63 103.5 -90.75 249t-27.75 313.5q0 165 27.75 309.75t90.75 251.25q120 205.5 348 205.5zM832.5 1263
q-102 171 -291 171q-190.5 0 -291 -171q-57 -97.5 -82.5 -234.75t-25.5 -293.25q0 -160.5 25.5 -296.25t82.5 -231.75q100.5 -174 291 -174q189 0 291 174q55.5 96 82.5 231.75t27 296.25q0 156 -27 293.25t-82.5 234.75zM828 1834.5l-570 1.5q-36 0 -34.5 36q0 33 34.5 33
h570q33 -1.5 33 -37.5q0 -34.5 -33 -33z" />
    <glyph glyph-name="Oslashacute" unicode="&#x1fe;" horiz-adv-x="1083" 
d="M918 1452l-55.5 -114q15 -19.5 28.5 -42q60 -106.5 88.5 -251.25t28.5 -309.75q0 -168 -28.5 -313.5t-88.5 -249q-124.5 -205.5 -349.5 -205.5q-174 0 -285 118.5l-31.5 -64.5q-13.5 -30 -45 -15q-30 13.5 -15 43.5l45 94.5q-9 13.5 -16.5 28.5q-63 103.5 -90.75 249
t-27.75 313.5q0 165 27.75 309.75t90.75 251.25q120 205.5 348 205.5q163.5 0 271.5 -108l43.5 88.5q15 30 45 15t16.5 -45zM832.5 1263q-1.5 3 -4.5 4.5l-540 -1116q96 -118.5 253.5 -118.5q189 0 291 174q55.5 96 82.5 231.75t27 296.25q0 156 -27 293.25t-82.5 234.75z
M541.5 1434q-190.5 0 -291 -171q-57 -97.5 -82.5 -234.75t-25.5 -293.25q0 -160.5 25.5 -297q24 -129 76.5 -222l538.5 1114.5q-94.5 103.5 -241.5 103.5zM682.5 1915.5l-249 -150q-28.5 -16.5 -46.5 13.5q-16.5 27 12 45l247.5 148.5q30 18 48 -10.5q16.5 -30 -12 -46.5z
" />
    <glyph glyph-name="Racute" unicode="&#x154;" horiz-adv-x="880" 
d="M142.5 646.5v-646.5q0 -33 -34.5 -33q-33 0 -33 33v1471.5q3 30 33 30h253.5q204 0 318 -103.5q114 -108 114 -297q0 -192 -114 -297q-114 -103.5 -318 -103.5h-178.5l601.5 -678q21 -24 -3 -46.5t-46.5 3zM142.5 1435.5v-667.5h219q178.5 0 271.5 85.5t93 247.5
t-93 247.5t-271.5 85.5q-3 0 -3 1.5h-216zM582 1915.5l-249 -150q-28.5 -16.5 -46.5 13.5q-16.5 27 12 45l247.5 148.5q30 18 48 -10.5q16.5 -30 -12 -46.5z" />
    <glyph glyph-name="Rcaron" unicode="&#x158;" horiz-adv-x="880" 
d="M142.5 646.5v-646.5q0 -33 -34.5 -33q-33 0 -33 33v1471.5q3 30 33 30h253.5q204 0 318 -103.5q114 -108 114 -297q0 -192 -114 -297q-114 -103.5 -318 -103.5h-178.5l601.5 -678q21 -24 -3 -46.5t-46.5 3zM142.5 1435.5v-667.5h219q178.5 0 271.5 85.5t93 247.5
t-93 247.5t-271.5 85.5q-3 0 -3 1.5h-216zM610.5 1869l-171 -132l-168 130.5q-27 21 -7.5 48q22.5 22.5 45 4.5l130.5 -100.5l129 102q25.5 18 48 -4.5q19.5 -27 -6 -48z" />
    <glyph glyph-name="Rcommaaccent" unicode="&#x156;" horiz-adv-x="880" 
d="M142.5 646.5v-646.5q0 -33 -34.5 -33q-33 0 -33 33v1471.5q3 30 33 30h253.5q204 0 318 -103.5q114 -108 114 -297q0 -192 -114 -297q-114 -103.5 -318 -103.5h-178.5l601.5 -678q21 -24 -3 -46.5t-46.5 3zM142.5 1435.5v-667.5h219q178.5 0 271.5 85.5t93 247.5
t-93 247.5t-271.5 85.5q-3 0 -3 1.5h-216zM298.5 61.5q-15 34.5 39 66t79.5 -6q49.5 -64.5 6 -178.5q-31.5 -90 -129 -232.5q-19.5 -27 -48 -7.5q-27 19.5 -9 48q91.5 133.5 121.5 214.5q27 75 -11.25 72.75t-48.75 23.25z" />
    <glyph glyph-name="Sacute" unicode="&#x15a;" horiz-adv-x="984" 
d="M147 294q49.5 -132 130.5 -196.5q79.5 -64.5 196.5 -64.5q141 0 237 76.5q91.5 70.5 105 189q22.5 204 -96.75 293.25t-260.25 152.25q-150 67.5 -267 154.5t-94.5 286.5q16.5 142.5 129 229.5q111 87 274.5 87q135 0 235.5 -76.5q97.5 -76.5 153 -222q9 -33 -19.5 -42
q-31.5 -15 -43.5 18q-48 127.5 -132 193.5q-81 61.5 -193.5 61.5q-141 0 -232.5 -73.5q-91.5 -67.5 -105 -183q-19.5 -163.5 84.75 -237.75t237.75 -134.25q159 -70.5 291 -172.5t106.5 -342q-19.5 -147 -130.5 -235.5q-117 -88.5 -279 -88.5q-135 1.5 -237 78
q-99 76.5 -151.5 226.5q-10.5 31.5 19.5 42q30 12 42 -19.5zM633 1915.5l-249 -150q-28.5 -16.5 -46.5 13.5q-16.5 27 12 45l247.5 148.5q30 18 48 -10.5q16.5 -30 -12 -46.5z" />
    <glyph glyph-name="Scedilla" unicode="&#x15e;" horiz-adv-x="984" 
d="M495 46.5q-1.5 -7.5 -4.5 -13.5q130.5 4.5 220.5 76.5q91.5 70.5 105 189q22.5 204 -96.75 293.25t-260.25 152.25q-150 67.5 -267 154.5t-94.5 286.5q16.5 142.5 129 229.5q111 87 274.5 87q135 0 235.5 -76.5q97.5 -76.5 153 -222q9 -33 -19.5 -42q-31.5 -15 -43.5 18
q-48 127.5 -132 193.5q-81 61.5 -193.5 61.5q-141 0 -232.5 -73.5q-91.5 -67.5 -105 -183q-19.5 -163.5 84.75 -237.75t237.75 -134.25q159 -70.5 291 -172.5t106.5 -342q-19.5 -147 -130.5 -235.5q-117 -88.5 -279 -88.5q-4.5 -16.5 -7.5 -33q7.5 7.5 19.5 13.5
q54 31.5 79.5 -6q48 -63 6 -178.5q-31.5 -88.5 -127.5 -229.5q-21 -28.5 -49.5 -10.5q-25.5 21 -10.5 48q93 135 123 217.5q27 73.5 -7.5 85.5q-40.5 -16.5 -63.75 -18t-47.25 25.5q-12 22.5 1.5 60q4.5 15 10.5 33q-90 15 -163.5 70.5q-99 76.5 -151.5 226.5
q-10.5 31.5 19.5 42q30 12 42 -19.5q49.5 -132 130.5 -196.5q60 -49.5 144 -61.5l1.5 10.5h72z" />
    <glyph glyph-name="Scircumflex" unicode="&#x15c;" horiz-adv-x="984" 
d="M147 294q49.5 -132 130.5 -196.5q79.5 -64.5 196.5 -64.5q141 0 237 76.5q91.5 70.5 105 189q22.5 204 -96.75 293.25t-260.25 152.25q-150 67.5 -267 154.5t-94.5 286.5q16.5 142.5 129 229.5q111 87 274.5 87q135 0 235.5 -76.5q97.5 -76.5 153 -222q9 -33 -19.5 -42
q-31.5 -15 -43.5 18q-48 127.5 -132 193.5q-81 61.5 -193.5 61.5q-141 0 -232.5 -73.5q-91.5 -67.5 -105 -183q-19.5 -163.5 84.75 -237.75t237.75 -134.25q159 -70.5 291 -172.5t106.5 -342q-19.5 -147 -130.5 -235.5q-117 -88.5 -279 -88.5q-135 1.5 -237 78
q-99 76.5 -151.5 226.5q-10.5 31.5 19.5 42q30 12 42 -19.5zM321 1807.5l171 132l168 -130.5q27 -21 7.5 -48q-22.5 -22.5 -45 -4.5l-130.5 100.5l-129 -102q-25.5 -18 -48 4.5q-19.5 27 6 48z" />
    <glyph glyph-name="Scommaaccent" unicode="&#x218;" horiz-adv-x="984" 
d="M147 294q49.5 -132 130.5 -196.5q79.5 -64.5 196.5 -64.5q141 0 237 76.5q91.5 70.5 105 189q22.5 204 -96.75 293.25t-260.25 152.25q-150 67.5 -267 154.5t-94.5 286.5q16.5 142.5 129 229.5q111 87 274.5 87q135 0 235.5 -76.5q97.5 -76.5 153 -222q9 -33 -19.5 -42
q-31.5 -15 -43.5 18q-48 127.5 -132 193.5q-81 61.5 -193.5 61.5q-141 0 -232.5 -73.5q-91.5 -67.5 -105 -183q-19.5 -163.5 84.75 -237.75t237.75 -134.25q159 -70.5 291 -172.5t106.5 -342q-19.5 -147 -130.5 -235.5q-117 -88.5 -279 -88.5q-135 1.5 -237 78
q-99 76.5 -151.5 226.5q-10.5 31.5 19.5 42q30 12 42 -19.5zM475.5 -187.5q-15 34.5 39 66t79.5 -6q49.5 -64.5 6 -178.5q-31.5 -90 -129 -232.5q-19.5 -27 -48 -7.5q-27 19.5 -9 48q91.5 133.5 121.5 214.5q27 75 -11.25 72.75t-48.75 23.25z" />
    <glyph glyph-name="Tbar" unicode="&#x166;" horiz-adv-x="1042" 
d="M811.5 712.5h-256.5v-712.5q0 -33 -33 -33t-33 33v712.5l-247.5 1.5q-36 0 -34.5 36q0 33 34.5 33h247.5v651h-381q-33 0 -33 34.5q0 33 33 33h826.5q33 0 33 -33q0 -34.5 -33 -34.5h-379.5v-651h256.5q33 -1.5 33 -37.5q0 -34.5 -33 -33z" />
    <glyph glyph-name="Tcaron" unicode="&#x164;" horiz-adv-x="1042" 
d="M108 1501.5h826.5q33 0 33 -33q0 -34.5 -33 -34.5h-379.5v-1434q0 -33 -33 -33t-33 33v1434h-381q-33 0 -33 34.5q0 33 33 33zM691.5 1869l-171 -132l-168 130.5q-27 21 -7.5 48q22.5 22.5 45 4.5l130.5 -100.5l129 102q25.5 18 48 -4.5q19.5 -27 -6 -48z" />
    <glyph glyph-name="Tcommaaccent" unicode="&#x162;" horiz-adv-x="1042" 
d="M108 1501.5h826.5q33 0 33 -33q0 -34.5 -33 -34.5h-379.5v-1434q0 -33 -33 -33t-33 33v1434h-381q-33 0 -33 34.5q0 33 33 33zM466.5 -202.5q-15 34.5 39 66t79.5 -6q49.5 -64.5 6 -178.5q-31.5 -90 -129 -232.5q-19.5 -27 -48 -7.5q-27 19.5 -9 48
q91.5 133.5 121.5 214.5q27 75 -11.25 72.75t-48.75 23.25z" />
    <glyph glyph-name="Ubreve" unicode="&#x16c;" horiz-adv-x="1083" 
d="M1008 591q0 -135 -28.5 -254.25t-91.5 -203.25q-121.5 -166.5 -346.5 -166.5q-226.5 0 -346.5 166.5q-64.5 84 -92.25 203.25t-27.75 254.25v877.5q0 33 33 33q34.5 0 34.5 -33v-877.5q0 -273 105 -418.5q102 -139.5 294 -139.5q189 0 292.5 139.5q108 145.5 108 418.5
v877.5q0 33 31.5 33q34.5 0 34.5 -33v-877.5zM433.5 1830q57 -57 108 -57t105 55.5q24 24 49.5 1.5q24 -24 0 -48q-75 -76.5 -154.5 -76.5q-78 1.5 -156 76.5q-24 22.5 0 48q24 22.5 48 0z" />
    <glyph glyph-name="Uhungarumlaut" unicode="&#x170;" horiz-adv-x="1083" 
d="M1008 591q0 -135 -28.5 -254.25t-91.5 -203.25q-121.5 -166.5 -346.5 -166.5q-226.5 0 -346.5 166.5q-64.5 84 -92.25 203.25t-27.75 254.25v877.5q0 33 33 33q34.5 0 34.5 -33v-877.5q0 -273 105 -418.5q102 -139.5 294 -139.5q189 0 292.5 139.5q108 145.5 108 418.5
v877.5q0 33 31.5 33q34.5 0 34.5 -33v-877.5zM841.5 1965l-148.5 -249q-18 -28.5 -48 -10.5q-27 16.5 -10.5 45l148.5 247.5q18 30 48 13.5q28.5 -18 10.5 -46.5zM615 1972.5l-148.5 -249q-18 -28.5 -48 -10.5q-27 16.5 -10.5 45l148.5 247.5q18 30 48 13.5
q28.5 -18 10.5 -46.5z" />
    <glyph glyph-name="Umacron" unicode="&#x16a;" horiz-adv-x="1083" 
d="M1008 591q0 -135 -28.5 -254.25t-91.5 -203.25q-121.5 -166.5 -346.5 -166.5q-226.5 0 -346.5 166.5q-64.5 84 -92.25 203.25t-27.75 254.25v877.5q0 33 33 33q34.5 0 34.5 -33v-877.5q0 -273 105 -418.5q102 -139.5 294 -139.5q189 0 292.5 139.5q108 145.5 108 418.5
v877.5q0 33 31.5 33q34.5 0 34.5 -33v-877.5zM828 1834.5l-570 1.5q-36 0 -34.5 36q0 33 34.5 33h570q33 -1.5 33 -37.5q0 -34.5 -33 -33z" />
    <glyph glyph-name="Uogonek" unicode="&#x172;" horiz-adv-x="1083" 
d="M595.5 -48q-54 -34.5 -58.5 -90q0 -21 6.75 -34.5t24.75 -24t51 0q31.5 12 42 -19.5t-19.5 -42q-67.5 -22.5 -107.25 3.75t-53.25 57.75t-10.5 63q3 58.5 39 102q-204 10.5 -315 165q-64.5 84 -92.25 203.25t-27.75 254.25v877.5q0 33 33 33q34.5 0 34.5 -33v-877.5
q0 -273 105 -418.5q102 -139.5 294 -139.5q189 0 292.5 139.5q108 145.5 108 418.5v877.5q0 33 31.5 33q34.5 0 34.5 -33v-877.5q0 -135 -28.5 -254.25t-91.5 -203.25q-102 -139.5 -276 -162q-3 -10.5 -16.5 -19.5z" />
    <glyph glyph-name="Uring" unicode="&#x16e;" horiz-adv-x="1083" 
d="M1008 591q0 -135 -28.5 -254.25t-91.5 -203.25q-121.5 -166.5 -346.5 -166.5q-226.5 0 -346.5 166.5q-64.5 84 -92.25 203.25t-27.75 254.25v877.5q0 33 33 33q34.5 0 34.5 -33v-877.5q0 -273 105 -418.5q102 -139.5 294 -139.5q189 0 292.5 139.5q108 145.5 108 418.5
v877.5q0 33 31.5 33q34.5 0 34.5 -33v-877.5zM628.5 1824q0 36 -25.5 60.75t-61.5 24.75q-34.5 0 -60 -24.75t-25.5 -60.75q0 -34.5 25.5 -59.25t60 -24.75q36 0 61.5 24.75t25.5 59.25zM397.5 1824q0 30 11.25 57t30.75 47.25t45.75 31.5t56.25 11.25t56.25 -11.25
t45.75 -31.5t30.75 -47.25t11.25 -57q0 -61.5 -42 -103.5t-102 -42t-102 42t-42 103.5z" />
    <glyph glyph-name="Utilde" unicode="&#x168;" horiz-adv-x="1083" 
d="M1008 591q0 -135 -28.5 -254.25t-91.5 -203.25q-121.5 -166.5 -346.5 -166.5q-226.5 0 -346.5 166.5q-64.5 84 -92.25 203.25t-27.75 254.25v877.5q0 33 33 33q34.5 0 34.5 -33v-877.5q0 -273 105 -418.5q102 -139.5 294 -139.5q189 0 292.5 139.5q108 145.5 108 418.5
v877.5q0 33 31.5 33q34.5 0 34.5 -33v-877.5zM235.5 1731q36 48 70.5 84t75 49.5q88.5 28.5 183 -97.5q33 -48 70.5 -57q19.5 -6 39 -1.5q18 6 40.5 21q55.5 40.5 78 111q9 33 42 25.5q33 -12 24 -43.5q-28.5 -94.5 -102 -148.5q-33 -25.5 -66 -31.5q-40.5 -10.5 -76.5 1.5
q-58.5 18 -105 82.5q-64.5 87 -106.5 72q-25.5 -7.5 -53.25 -38.25t-59.25 -71.25q-21 -30 -48 -7.5t-6 49.5z" />
    <glyph glyph-name="Wacute" unicode="&#x1e82;" horiz-adv-x="1641" 
d="M1141.5 -6l-321 1332l-321 -1332q-7.5 -34.5 -40.5 -25.5q-21 4.5 -24 25.5l-354 1467q-6 31.5 24 39q30 9 40.5 -24l321 -1333.5l321 1333.5q4.5 19.5 25.5 24q31.5 9 39 -24l322.5 -1333.5l321 1333.5q6 33 39 24q31.5 -7.5 25.5 -39l-354 -1467v-3q-6 -18 -24 -22.5
q-34.5 -9 -40.5 25.5zM961.5 1915.5l-249 -150q-28.5 -16.5 -46.5 13.5q-16.5 27 12 45l247.5 148.5q30 18 48 -10.5q16.5 -30 -12 -46.5z" />
    <glyph glyph-name="Wcircumflex" unicode="&#x174;" horiz-adv-x="1641" 
d="M1141.5 -6l-321 1332l-321 -1332q-7.5 -34.5 -40.5 -25.5q-21 4.5 -24 25.5l-354 1467q-6 31.5 24 39q30 9 40.5 -24l321 -1333.5l321 1333.5q4.5 19.5 25.5 24q31.5 9 39 -24l322.5 -1333.5l321 1333.5q6 33 39 24q31.5 -7.5 25.5 -39l-354 -1467v-3q-6 -18 -24 -22.5
q-34.5 -9 -40.5 25.5zM649.5 1807.5l171 132l168 -130.5q27 -21 7.5 -48q-22.5 -22.5 -45 -4.5l-130.5 100.5l-129 -102q-25.5 -18 -48 4.5q-19.5 27 6 48z" />
    <glyph glyph-name="Wdieresis" unicode="&#x1e84;" horiz-adv-x="1641" 
d="M1141.5 -6l-321 1332l-321 -1332q-7.5 -34.5 -40.5 -25.5q-21 4.5 -24 25.5l-354 1467q-6 31.5 24 39q30 9 40.5 -24l321 -1333.5l321 1333.5q4.5 19.5 25.5 24q31.5 9 39 -24l322.5 -1333.5l321 1333.5q6 33 39 24q31.5 -7.5 25.5 -39l-354 -1467v-3q-6 -18 -24 -22.5
q-34.5 -9 -40.5 25.5zM628.5 1869q0 37.5 21.75 63.75t53.25 26.25t54 -26.25t22.5 -63.75t-22.5 -63t-54 -25.5t-53.25 25.5t-21.75 63zM861 1869q0 37.5 21.75 63.75t53.25 26.25t54 -26.25t22.5 -63.75t-22.5 -63t-54 -25.5t-53.25 25.5t-21.75 63z" />
    <glyph glyph-name="Wgrave" unicode="&#x1e80;" horiz-adv-x="1641" 
d="M1141.5 -6l-321 1332l-321 -1332q-7.5 -34.5 -40.5 -25.5q-21 4.5 -24 25.5l-354 1467q-6 31.5 24 39q30 9 40.5 -24l321 -1333.5l321 1333.5q4.5 19.5 25.5 24q31.5 9 39 -24l322.5 -1333.5l321 1333.5q6 33 39 24q31.5 -7.5 25.5 -39l-354 -1467v-3q-6 -18 -24 -22.5
q-34.5 -9 -40.5 25.5zM678 1915.5q-28.5 16.5 -12 46.5q18 28.5 48 10.5l247.5 -148.5q28.5 -18 12 -45q-18 -30 -46.5 -13.5z" />
    <glyph glyph-name="Ycircumflex" unicode="&#x176;" horiz-adv-x="958" 
d="M147 1483.5l330 -675l331.5 675q16.5 28.5 45 13.5q30 -13.5 15 -43.5l-357 -726v-727.5q0 -33 -34.5 -33q-33 0 -33 33v727.5l-357 726q-12 30 15 43.5q28.5 15 45 -13.5zM309 1807.5l171 132l168 -130.5q27 -21 7.5 -48q-22.5 -22.5 -45 -4.5l-130.5 100.5l-129 -102
q-25.5 -18 -48 4.5q-19.5 27 6 48z" />
    <glyph glyph-name="Ygrave" unicode="&#x1ef2;" horiz-adv-x="958" 
d="M147 1483.5l330 -675l331.5 675q16.5 28.5 45 13.5q30 -13.5 15 -43.5l-357 -726v-727.5q0 -33 -34.5 -33q-33 0 -33 33v727.5l-357 726q-12 30 15 43.5q28.5 15 45 -13.5zM337.5 1915.5q-28.5 16.5 -12 46.5q18 28.5 48 10.5l247.5 -148.5q28.5 -18 12 -45
q-18 -30 -46.5 -13.5z" />
    <glyph glyph-name="Zacute" unicode="&#x179;" horiz-adv-x="937" 
d="M79.5 18l696 1416h-667.5q-33 0 -33 34.5q0 33 33 33h721.5q33 0 33 -33q0 -12 -4.5 -18l-696 -1417.5h667.5q33 0 33 -33t-33 -33h-721.5q-33 0 -33 33q0 10.5 4.5 18zM610.5 1915.5l-249 -150q-28.5 -16.5 -46.5 13.5q-16.5 27 12 45l247.5 148.5q30 18 48 -10.5
q16.5 -30 -12 -46.5z" />
    <glyph glyph-name="Zdotaccent" unicode="&#x17b;" horiz-adv-x="937" 
d="M79.5 18l696 1416h-667.5q-33 0 -33 34.5q0 33 33 33h721.5q33 0 33 -33q0 -12 -4.5 -18l-696 -1417.5h667.5q33 0 33 -33t-33 -33h-721.5q-33 0 -33 33q0 10.5 4.5 18zM393 1869q0 37.5 21.75 63.75t53.25 26.25t54 -26.25t22.5 -63.75t-22.5 -63t-54 -25.5t-53.25 25.5
t-21.75 63z" />
    <glyph glyph-name="abreve" unicode="&#x103;" 
d="M706.5 708v-708q0 -33 -34.5 -33q-33 0 -33 33v90q-3 -6 -13.5 -19.5q-82.5 -103.5 -235.5 -103.5q-150 0 -234 103.5q-81 100.5 -81 283.5t81 283.5q84 105 234 105q151.5 0 235.5 -105q10.5 -12 13.5 -18v88.5q0 34.5 33 34.5q34.5 0 34.5 -34.5zM573 597
q-63 78 -183 78t-181.5 -78q-66 -85.5 -66 -243q0 -159 66 -241.5q61.5 -79.5 181.5 -79.5t183 79.5q66 82.5 66 241.5q0 157.5 -66 243zM283.5 1080q57 -57 108 -57t105 55.5q24 24 49.5 1.5q24 -24 0 -48q-75 -76.5 -154.5 -76.5q-78 1.5 -156 76.5q-24 22.5 0 48
q24 22.5 48 0z" />
    <glyph glyph-name="amacron" unicode="&#x101;" 
d="M706.5 708v-708q0 -33 -34.5 -33q-33 0 -33 33v90q-3 -6 -13.5 -19.5q-82.5 -103.5 -235.5 -103.5q-150 0 -234 103.5q-81 100.5 -81 283.5t81 283.5q84 105 234 105q151.5 0 235.5 -105q10.5 -12 13.5 -18v88.5q0 34.5 33 34.5q34.5 0 34.5 -34.5zM573 597
q-63 78 -183 78t-181.5 -78q-66 -85.5 -66 -243q0 -159 66 -241.5q61.5 -79.5 181.5 -79.5t183 79.5q66 82.5 66 241.5q0 157.5 -66 243zM678 1084.5l-570 1.5q-36 0 -34.5 36q0 33 34.5 33h570q33 -1.5 33 -37.5q0 -34.5 -33 -33z" />
    <glyph glyph-name="aogonek" unicode="&#x105;" 
d="M690 -33q-54 -34.5 -58.5 -90q0 -21 7.5 -33q6 -15 24 -25.5t51 0q31.5 12 42 -19.5t-19.5 -42q-67.5 -22.5 -107.25 3.75t-51.75 56.25q-15 33 -12 64.5q3 81 73.5 132v76.5q-3 -6 -13.5 -19.5q-82.5 -103.5 -235.5 -103.5q-150 0 -234 103.5q-81 100.5 -81 283.5
t81 283.5q84 105 234 105q151.5 0 235.5 -105q10.5 -12 13.5 -18v88.5q0 34.5 33 34.5q34.5 0 34.5 -34.5v-712.5q1.5 -16.5 -16.5 -28.5zM573 597q-63 78 -183 78t-181.5 -78q-66 -85.5 -66 -243q0 -159 66 -241.5q61.5 -79.5 181.5 -79.5t183 79.5q66 82.5 66 241.5
q0 157.5 -66 243z" />
    <glyph glyph-name="aeacute" unicode="&#x1fd;" horiz-adv-x="1332" 
d="M106.5 549q39 96 109.5 144q73.5 48 175.5 48q150 0 234 -103.5q30 -37.5 46.5 -81q19.5 45 48 81q84 105 234 105q151.5 0 235.5 -105q81 -103.5 81 -283.5q0 -33 -34.5 -33h-529.5q7.5 -135 66 -208.5q61.5 -79.5 181.5 -79.5q82.5 0 138 37.5t84 112.5
q12 31.5 43.5 18q30 -10.5 19.5 -42q-39 -96 -109.5 -144q-73.5 -48 -175.5 -48q-150 0 -234 103.5q-30 36 -48 79.5q-19.5 -45 -46.5 -79.5q-84 -105 -252 -105q-270 10.5 -317.25 214.5t222.75 208.5l360 -1.5q-7.5 135 -66 208.5q-61.5 79.5 -181.5 79.5
q-82.5 0 -138 -37.5t-84 -112.5q-12 -31.5 -43.5 -18q-30 10.5 -19.5 42zM573 111q58.5 75 63 213l-357 3q-183 4.5 -160.5 -137.25t255 -156.75q138 0 199.5 78zM772.5 597q-58.5 -75 -66 -210h496.5q-9 135 -66 210q-63 78 -183 78t-181.5 -78zM807 1165.5l-249 -150
q-28.5 -16.5 -46.5 13.5q-16.5 27 12 45l247.5 148.5q30 18 48 -10.5q16.5 -30 -12 -46.5z" />
    <glyph glyph-name="cacute" unicode="&#x107;" horiz-adv-x="762" 
d="M675 159q-39 -96 -109.5 -144q-73.5 -48 -175.5 -48q-150 0 -234 103.5q-81 100.5 -81 283.5t81 283.5q84 105 234 105q100.5 0 175.5 -51q70.5 -46.5 109.5 -142.5q12 -33 -19.5 -43.5t-43.5 19.5q-28.5 73.5 -84 112.5q-55.5 37.5 -138 37.5q-120 0 -181.5 -78
q-66 -85.5 -66 -243q0 -159 66 -241.5q61.5 -79.5 181.5 -79.5q82.5 0 138 37.5t84 112.5q12 31.5 43.5 18q30 -10.5 19.5 -42zM522 1165.5l-249 -150q-28.5 -16.5 -46.5 13.5q-16.5 27 12 45l247.5 148.5q30 18 48 -10.5q16.5 -30 -12 -46.5z" />
    <glyph glyph-name="ccaron" unicode="&#x10d;" horiz-adv-x="762" 
d="M675 159q-39 -96 -109.5 -144q-73.5 -48 -175.5 -48q-150 0 -234 103.5q-81 100.5 -81 283.5t81 283.5q84 105 234 105q100.5 0 175.5 -51q70.5 -46.5 109.5 -142.5q12 -33 -19.5 -43.5t-43.5 19.5q-28.5 73.5 -84 112.5q-55.5 37.5 -138 37.5q-120 0 -181.5 -78
q-66 -85.5 -66 -243q0 -159 66 -241.5q61.5 -79.5 181.5 -79.5q82.5 0 138 37.5t84 112.5q12 31.5 43.5 18q30 -10.5 19.5 -42zM550.5 1119l-171 -132l-168 130.5q-27 21 -7.5 48q22.5 22.5 45 4.5l130.5 -100.5l129 102q25.5 18 48 -4.5q19.5 -27 -6 -48z" />
    <glyph glyph-name="ccircumflex" unicode="&#x109;" horiz-adv-x="762" 
d="M675 159q-39 -96 -109.5 -144q-73.5 -48 -175.5 -48q-150 0 -234 103.5q-81 100.5 -81 283.5t81 283.5q84 105 234 105q100.5 0 175.5 -51q70.5 -46.5 109.5 -142.5q12 -33 -19.5 -43.5t-43.5 19.5q-28.5 73.5 -84 112.5q-55.5 37.5 -138 37.5q-120 0 -181.5 -78
q-66 -85.5 -66 -243q0 -159 66 -241.5q61.5 -79.5 181.5 -79.5q82.5 0 138 37.5t84 112.5q12 31.5 43.5 18q30 -10.5 19.5 -42zM210 1057.5l171 132l168 -130.5q27 -21 7.5 -48q-22.5 -22.5 -45 -4.5l-130.5 100.5l-129 -102q-25.5 -18 -48 4.5q-19.5 27 6 48z" />
    <glyph glyph-name="cdotaccent" unicode="&#x10b;" horiz-adv-x="762" 
d="M675 159q-39 -96 -109.5 -144q-73.5 -48 -175.5 -48q-150 0 -234 103.5q-81 100.5 -81 283.5t81 283.5q84 105 234 105q100.5 0 175.5 -51q70.5 -46.5 109.5 -142.5q12 -33 -19.5 -43.5t-43.5 19.5q-28.5 73.5 -84 112.5q-55.5 37.5 -138 37.5q-120 0 -181.5 -78
q-66 -85.5 -66 -243q0 -159 66 -241.5q61.5 -79.5 181.5 -79.5q82.5 0 138 37.5t84 112.5q12 31.5 43.5 18q30 -10.5 19.5 -42zM304.5 1119q0 37.5 21.75 63.75t53.25 26.25t54 -26.25t22.5 -63.75t-22.5 -63t-54 -25.5t-53.25 25.5t-21.75 63z" />
    <glyph glyph-name="c_t" unicode="&#xe220;" horiz-adv-x="1363" 
d="M675 159q-39 -96 -109.5 -144q-73.5 -48 -175.5 -48q-150 0 -234 103.5q-81 100.5 -81 283.5t81 283.5q84 105 234 105q100.5 0 175.5 -51q70.5 -46.5 109.5 -142.5q12 -33 -19.5 -43.5t-43.5 19.5q-28.5 73.5 -84 112.5q-55.5 37.5 -138 37.5q-120 0 -181.5 -78
q-66 -85.5 -66 -243q0 -159 66 -241.5q61.5 -79.5 181.5 -79.5q82.5 0 138 37.5t84 112.5q12 31.5 43.5 18q30 -10.5 19.5 -42zM735 900h120v568.5q0 33 34.5 33q33 0 33 -33v-568.5h226.5q33 0 33 -31.5q0 -34.5 -33 -34.5h-226.5v-582q0 -109.5 46.5 -166.5
q39 -52.5 121.5 -52.5q55.5 0 93 25.5q34.5 24 57 76.5q10.5 30 43.5 18q30 -12 18 -42q-25.5 -70.5 -81 -108q-57 -36 -130.5 -36q-112.5 0 -174 78q-61.5 75 -61.5 207v582h-120q-33 0 -33 34.5q0 31.5 33 31.5z" />
    <glyph glyph-name="dcaron" unicode="&#x10f;" horiz-adv-x="1060" 
d="M706.5 1.5q0 -34.5 -33 -34.5q-34.5 0 -34.5 34.5v90q-3 -7.5 -13.5 -19.5q-84 -105 -235.5 -105q-150 0 -234 105q-81 100.5 -81 283.5t81 283.5q84 103.5 234 103.5q153 0 235.5 -103.5q10.5 -13.5 13.5 -19.5v846q0 33 34.5 33q33 0 33 -33v-1464zM573 114
q66 84 66 241.5q0 159 -66 241.5q-63 79.5 -183 79.5q-118.5 0 -181.5 -79.5q-66 -82.5 -66 -241.5q0 -157.5 66 -241.5q63 -79.5 181.5 -79.5q120 0 183 79.5zM852 1431q-16.5 33 38.25 65.25t80.25 -5.25q49.5 -64.5 6 -178.5q-31.5 -90 -129 -231q-19.5 -30 -48 -10.5
q-27 21 -9 48q91.5 135 120 216q28.5 75 -9.75 72t-48.75 24z" />
    <glyph glyph-name="dcroat" unicode="&#x111;" 
d="M786 1023h-79.5v-1021.5q0 -34.5 -33 -34.5q-34.5 0 -34.5 34.5v90q-3 -7.5 -13.5 -19.5q-84 -105 -235.5 -105q-150 0 -234 105q-81 100.5 -81 283.5t81 283.5q84 103.5 234 103.5q153 0 235.5 -103.5q10.5 -13.5 13.5 -19.5v403.5l-423 1.5q-36 0 -34.5 36
q0 33 34.5 33h423v372q0 33 34.5 33q33 0 33 -33v-372h79.5q33 -1.5 33 -37.5q0 -34.5 -33 -33zM573 114q66 84 66 241.5q0 159 -66 241.5q-63 79.5 -183 79.5q-118.5 0 -181.5 -79.5q-66 -82.5 -66 -241.5q0 -157.5 66 -241.5q63 -79.5 181.5 -79.5q120 0 183 79.5z" />
    <glyph glyph-name="ebreve" unicode="&#x115;" horiz-adv-x="780" 
d="M207 597q-58.5 -75 -66 -210h496.5q-9 135 -66 210q-63 78 -183 78t-181.5 -78zM673.5 159q-39 -96 -109.5 -144q-73.5 -48 -175.5 -48q-150 0 -234 103.5q-48 58.5 -64.5 134.25t-16.5 149.25q0 183 81 283.5q84 105 234 105q151.5 0 235.5 -105q81 -103.5 81 -283.5
q0 -33 -34.5 -33h-529.5q7.5 -135 66 -208.5q61.5 -79.5 181.5 -79.5q82.5 0 138 37.5t84 112.5q12 31.5 43.5 18q30 -10.5 19.5 -42zM282 1080q57 -57 108 -57t105 55.5q24 24 49.5 1.5q24 -24 0 -48q-75 -76.5 -154.5 -76.5q-78 1.5 -156 76.5q-24 22.5 0 48q24 22.5 48 0
z" />
    <glyph glyph-name="ecaron" unicode="&#x11b;" horiz-adv-x="780" 
d="M207 597q-58.5 -75 -66 -210h496.5q-9 135 -66 210q-63 78 -183 78t-181.5 -78zM673.5 159q-39 -96 -109.5 -144q-73.5 -48 -175.5 -48q-150 0 -234 103.5q-48 58.5 -64.5 134.25t-16.5 149.25q0 183 81 283.5q84 105 234 105q151.5 0 235.5 -105q81 -103.5 81 -283.5
q0 -33 -34.5 -33h-529.5q7.5 -135 66 -208.5q61.5 -79.5 181.5 -79.5q82.5 0 138 37.5t84 112.5q12 31.5 43.5 18q30 -10.5 19.5 -42zM559.5 1119l-171 -132l-168 130.5q-27 21 -7.5 48q22.5 22.5 45 4.5l130.5 -100.5l129 102q25.5 18 48 -4.5q19.5 -27 -6 -48z" />
    <glyph glyph-name="edotaccent" unicode="&#x117;" horiz-adv-x="780" 
d="M207 597q-58.5 -75 -66 -210h496.5q-9 135 -66 210q-63 78 -183 78t-181.5 -78zM673.5 159q-39 -96 -109.5 -144q-73.5 -48 -175.5 -48q-150 0 -234 103.5q-48 58.5 -64.5 134.25t-16.5 149.25q0 183 81 283.5q84 105 234 105q151.5 0 235.5 -105q81 -103.5 81 -283.5
q0 -33 -34.5 -33h-529.5q7.5 -135 66 -208.5q61.5 -79.5 181.5 -79.5q82.5 0 138 37.5t84 112.5q12 31.5 43.5 18q30 -10.5 19.5 -42zM313.5 1119q0 37.5 21.75 63.75t53.25 26.25t54 -26.25t22.5 -63.75t-22.5 -63t-54 -25.5t-53.25 25.5t-21.75 63z" />
    <glyph glyph-name="emacron" unicode="&#x113;" horiz-adv-x="780" 
d="M207 597q-58.5 -75 -66 -210h496.5q-9 135 -66 210q-63 78 -183 78t-181.5 -78zM673.5 159q-39 -96 -109.5 -144q-73.5 -48 -175.5 -48q-150 0 -234 103.5q-48 58.5 -64.5 134.25t-16.5 149.25q0 183 81 283.5q84 105 234 105q151.5 0 235.5 -105q81 -103.5 81 -283.5
q0 -33 -34.5 -33h-529.5q7.5 -135 66 -208.5q61.5 -79.5 181.5 -79.5q82.5 0 138 37.5t84 112.5q12 31.5 43.5 18q30 -10.5 19.5 -42zM676.5 1084.5l-570 1.5q-36 0 -34.5 36q0 33 34.5 33h570q33 -1.5 33 -37.5q0 -34.5 -33 -33z" />
    <glyph glyph-name="eogonek" unicode="&#x119;" horiz-adv-x="780" 
d="M463.5 -33q-54 -34.5 -58.5 -90q0 -21 6.75 -34.5t24.75 -24t51 0q31.5 12 42 -19.5t-19.5 -42q-67.5 -22.5 -107.25 3.75t-53.25 57.75t-10.5 63q1.5 48 27 85.5q-133.5 7.5 -211.5 103.5q-48 58.5 -64.5 134.25t-16.5 149.25q0 183 81 283.5q84 105 234 105
q151.5 0 235.5 -105q81 -103.5 81 -283.5q0 -33 -34.5 -33h-529.5q7.5 -135 66 -208.5q61.5 -79.5 181.5 -79.5q82.5 0 138 37.5t84 112.5q12 31.5 43.5 18q30 -10.5 19.5 -42q-39 -96 -109.5 -144q-40.5 -25.5 -90 -37.5q-3 -6 -10.5 -10.5zM207 597q-58.5 -75 -66 -210
h496.5q-9 135 -66 210q-63 78 -183 78t-181.5 -78z" />
    <glyph glyph-name="f_f_j" horiz-adv-x="972" 
d="M817.5 1335q-21 49.5 -55.5 75q-37.5 24 -94.5 24q-81 0 -121.5 -52.5q-46.5 -57 -46.5 -166.5v-315h244.5q33 0 33 -31.5q0 -34.5 -33 -34.5h-244.5v-834q0 -33 -31.5 -33q-36 0 -36 33v834h-57h-4.5h-40.5h-6h-198v-834q0 -33 -31.5 -33q-36 0 -36 33v834h-102
q-33 0 -33 34.5q0 31.5 33 31.5h102v315q0 132 61.5 210q61.5 76.5 174 76.5q76.5 0 130.5 -36q33 -22.5 55.5 -58.5q6 9 13.5 18q61.5 76.5 174 76.5q76.5 0 130.5 -36q55.5 -37.5 81 -106.5q15 -33 -18 -45t-43.5 21zM444 1335q-21 49.5 -55.5 75q-37.5 24 -94.5 24
q-81 0 -121.5 -52.5q-46.5 -57 -46.5 -166.5v-315h306v315q0 63 13.5 114zM505.5 -562.5q19.5 -49.5 55.5 -76.5q37.5 -24 93 -24q82.5 0 123 51q45 58.5 45 168v1152q0 34.5 33 34.5t33 -34.5v-1152q0 -130.5 -58.5 -208.5q-60 -78 -175.5 -78q-73.5 0 -130.5 37.5
q-52.5 36 -81 106.5q-9 31.5 19.5 42q31.5 15 43.5 -18zM783 1119q0 -37.5 21.75 -63t53.25 -25.5t54 25.5t22.5 63t-22.5 63.75t-54 26.25t-53.25 -26.25t-21.75 -63.75z" />
    <glyph glyph-name="gbreve" unicode="&#x11f;" 
d="M169.5 -514.5q27 -73.5 84 -111q54 -37.5 136.5 -37.5q120 0 183 78q66 84 66 243v432q-3 -6 -13.5 -19.5q-82.5 -103.5 -235.5 -103.5q-150 0 -234 103.5q-81 100.5 -81 283.5t81 283.5q84 105 234 105q151.5 0 235.5 -105q10.5 -12 13.5 -18v88.5q0 34.5 33 34.5
q34.5 0 34.5 -34.5v-1050q0 -181.5 -81 -283.5q-84 -105 -235.5 -105q-100.5 0 -174 49.5q-72 48 -109.5 142.5q-13.5 33 19.5 43.5q30 12 43.5 -19.5zM573 597q-63 78 -183 78t-181.5 -78q-66 -85.5 -66 -243q0 -159 66 -241.5q61.5 -79.5 181.5 -79.5t183 79.5
q66 82.5 66 241.5q0 157.5 -66 243zM283.5 1080q57 -57 108 -57t105 55.5q24 24 49.5 1.5q24 -24 0 -48q-75 -76.5 -154.5 -76.5q-78 1.5 -156 76.5q-24 22.5 0 48q24 22.5 48 0z" />
    <glyph glyph-name="gcircumflex" unicode="&#x11d;" 
d="M169.5 -514.5q27 -73.5 84 -111q54 -37.5 136.5 -37.5q120 0 183 78q66 84 66 243v432q-3 -6 -13.5 -19.5q-82.5 -103.5 -235.5 -103.5q-150 0 -234 103.5q-81 100.5 -81 283.5t81 283.5q84 105 234 105q151.5 0 235.5 -105q10.5 -12 13.5 -18v88.5q0 34.5 33 34.5
q34.5 0 34.5 -34.5v-1050q0 -181.5 -81 -283.5q-84 -105 -235.5 -105q-100.5 0 -174 49.5q-72 48 -109.5 142.5q-13.5 33 19.5 43.5q30 12 43.5 -19.5zM573 597q-63 78 -183 78t-181.5 -78q-66 -85.5 -66 -243q0 -159 66 -241.5q61.5 -79.5 181.5 -79.5t183 79.5
q66 82.5 66 241.5q0 157.5 -66 243zM220.5 1057.5l171 132l168 -130.5q27 -21 7.5 -48q-22.5 -22.5 -45 -4.5l-130.5 100.5l-129 -102q-25.5 -18 -48 4.5q-19.5 27 6 48z" />
    <glyph glyph-name="gcommaaccent" unicode="&#x123;" 
d="M169.5 -514.5q27 -73.5 84 -111q54 -37.5 136.5 -37.5q120 0 183 78q66 84 66 243v432q-3 -6 -13.5 -19.5q-82.5 -103.5 -235.5 -103.5q-150 0 -234 103.5q-81 100.5 -81 283.5t81 283.5q84 105 234 105q151.5 0 235.5 -105q10.5 -12 13.5 -18v88.5q0 34.5 33 34.5
q34.5 0 34.5 -34.5v-1050q0 -181.5 -81 -283.5q-84 -105 -235.5 -105q-100.5 0 -174 49.5q-72 48 -109.5 142.5q-13.5 33 19.5 43.5q30 12 43.5 -19.5zM573 597q-63 78 -183 78t-181.5 -78q-66 -85.5 -66 -243q0 -159 66 -241.5q61.5 -79.5 181.5 -79.5t183 79.5
q66 82.5 66 241.5q0 157.5 -66 243zM433.5 909q16.5 -33 -38.25 -65.25t-80.25 5.25q-48 64.5 -4.5 178.5q31.5 90 127.5 232.5q19.5 28.5 48 9q27 -21 10.5 -48q-93 -135 -121.5 -216q-27 -75 10.5 -72t48 -24z" />
    <glyph glyph-name="gdotaccent" unicode="&#x121;" 
d="M169.5 -514.5q27 -73.5 84 -111q54 -37.5 136.5 -37.5q120 0 183 78q66 84 66 243v432q-3 -6 -13.5 -19.5q-82.5 -103.5 -235.5 -103.5q-150 0 -234 103.5q-81 100.5 -81 283.5t81 283.5q84 105 234 105q151.5 0 235.5 -105q10.5 -12 13.5 -18v88.5q0 34.5 33 34.5
q34.5 0 34.5 -34.5v-1050q0 -181.5 -81 -283.5q-84 -105 -235.5 -105q-100.5 0 -174 49.5q-72 48 -109.5 142.5q-13.5 33 19.5 43.5q30 12 43.5 -19.5zM573 597q-63 78 -183 78t-181.5 -78q-66 -85.5 -66 -243q0 -159 66 -241.5q61.5 -79.5 181.5 -79.5t183 79.5
q66 82.5 66 241.5q0 157.5 -66 243zM315 1119q0 37.5 21.75 63.75t53.25 26.25t54 -26.25t22.5 -63.75t-22.5 -63t-54 -25.5t-53.25 25.5t-21.75 63z" />
    <glyph glyph-name="hbar" unicode="&#x127;" 
d="M370.5 1084.5l-228 1.5v-466.5q3 6 13.5 18q84 105 234 105q151.5 0 235.5 -105q81 -103.5 81 -283.5v-354q0 -33 -34.5 -33q-33 0 -33 33v354q0 157.5 -66 243q-63 78 -183 78t-181.5 -78q-66 -85.5 -66 -243v-354q0 -33 -34.5 -33q-33 0 -33 33v1086h-51
q-36 0 -34.5 36q0 33 34.5 33h51v313.5q0 33 33 33q34.5 0 34.5 -33v-313.5h228q33 -1.5 33 -37.5q0 -34.5 -33 -33z" />
    <glyph glyph-name="hcircumflex" unicode="&#x125;" 
d="M639 354q0 157.5 -66 243q-63 78 -183 78t-181.5 -78q-66 -85.5 -66 -243v-354q0 -33 -34.5 -33q-33 0 -33 33v1468.5q0 33 33 33q34.5 0 34.5 -33v-849q3 6 13.5 18q84 105 234 105q151.5 0 235.5 -105q81 -103.5 81 -283.5v-354q0 -33 -34.5 -33q-33 0 -33 33v354z
M220.5 1657.5l171 132l168 -130.5q27 -21 7.5 -48q-22.5 -22.5 -45 -4.5l-130.5 100.5l-129 -102q-25.5 -18 -48 4.5q-19.5 27 6 48z" />
    <glyph glyph-name="dotlessi" unicode="&#x131;" horiz-adv-x="255" 
d="M160.5 708v-708q0 -33 -34.5 -33q-33 0 -33 33v708q0 34.5 33 34.5q34.5 0 34.5 -34.5z" />
    <glyph glyph-name="itilde" unicode="&#x129;" horiz-adv-x="255" 
d="M160.5 708v-708q0 -33 -34.5 -33q-33 0 -33 33v708q0 34.5 33 34.5q34.5 0 34.5 -34.5zM-177 981q36 48 70.5 84t75 49.5q88.5 28.5 183 -97.5q33 -48 70.5 -57q19.5 -6 39 -1.5q18 6 40.5 21q55.5 40.5 78 111q9 33 42 25.5q33 -12 24 -43.5q-28.5 -94.5 -102 -148.5
q-33 -25.5 -66 -31.5q-40.5 -10.5 -76.5 1.5q-58.5 18 -105 82.5q-64.5 87 -106.5 72q-25.5 -7.5 -53.25 -38.25t-59.25 -71.25q-21 -30 -48 -7.5t-6 49.5z" />
    <glyph glyph-name="imacron" unicode="&#x12b;" horiz-adv-x="255" 
d="M160.5 708v-708q0 -33 -34.5 -33q-33 0 -33 33v708q0 34.5 33 34.5q34.5 0 34.5 -34.5zM264 1084.5l-268.5 1.5q-36 0 -34.5 36q0 33 34.5 33h268.5q33 -1.5 33 -37.5q0 -34.5 -33 -33z" />
    <glyph glyph-name="ibreve" unicode="&#x12d;" horiz-adv-x="255" 
d="M160.5 708v-708q0 -33 -34.5 -33q-33 0 -33 33v708q0 34.5 33 34.5q34.5 0 34.5 -34.5zM21 1080q57 -57 108 -57t105 55.5q24 24 49.5 1.5q24 -24 0 -48q-75 -76.5 -154.5 -76.5q-78 1.5 -156 76.5q-24 22.5 0 48q24 22.5 48 0z" />
    <glyph glyph-name="iogonek" unicode="&#x12f;" horiz-adv-x="255" 
d="M153 -33q-54 -34.5 -58.5 -90q0 -21 6.75 -34.5t24.75 -24t51 0q31.5 12 42 -19.5t-19.5 -42q-67.5 -22.5 -107.25 3.75t-53.25 57.75t-10.5 63q3 76.5 64.5 124.5v702q0 34.5 33 34.5q34.5 0 34.5 -34.5v-694.5l1.5 -1.5q19.5 -27 -9 -45zM54 1119q0 37.5 21.75 63.75
t53.25 26.25t54 -26.25t22.5 -63.75t-22.5 -63t-54 -25.5t-53.25 25.5t-21.75 63z" />
    <glyph glyph-name="ij" unicode="&#x133;" horiz-adv-x="489" 
d="M160.5 708v-708q0 -33 -34.5 -33q-33 0 -33 33v708q0 34.5 33 34.5q34.5 0 34.5 -34.5zM54 1119q0 37.5 21.75 63.75t53.25 26.25t54 -26.25t22.5 -63.75t-22.5 -63t-54 -25.5t-53.25 25.5t-21.75 63zM22.5 -562.5q19.5 -49.5 55.5 -76.5q37.5 -24 93 -24q82.5 0 123 51
q45 58.5 45 168v1152q0 34.5 33 34.5t33 -34.5v-1152q0 -130.5 -58.5 -208.5q-60 -78 -175.5 -78q-73.5 0 -130.5 37.5q-52.5 36 -81 106.5q-9 31.5 19.5 42q31.5 15 43.5 -18zM300 1119q0 37.5 21.75 63.75t53.25 26.25t54 -26.25t22.5 -63.75t-22.5 -63t-54 -25.5
t-53.25 25.5t-21.75 63z" />
    <glyph glyph-name="jcircumflex" unicode="&#x135;" horiz-adv-x="234" 
d="M-232.5 -562.5q19.5 -49.5 55.5 -76.5q37.5 -24 93 -24q82.5 0 123 51q45 58.5 45 168v1152q0 34.5 33 34.5t33 -34.5v-1152q0 -130.5 -58.5 -208.5q-60 -78 -175.5 -78q-73.5 0 -130.5 37.5q-52.5 36 -81 106.5q-9 31.5 19.5 42q31.5 15 43.5 -18zM-52.5 1057.5l171 132
l168 -130.5q27 -21 7.5 -48q-22.5 -22.5 -45 -4.5l-130.5 100.5l-129 -102q-25.5 -18 -48 4.5q-19.5 27 6 48z" />
    <glyph glyph-name="dotlessj" unicode="&#x237;" horiz-adv-x="234" 
d="M-232.5 -562.5q19.5 -49.5 55.5 -76.5q37.5 -24 93 -24q82.5 0 123 51q45 58.5 45 168v1152q0 34.5 33 34.5t33 -34.5v-1152q0 -130.5 -58.5 -208.5q-60 -78 -175.5 -78q-73.5 0 -130.5 37.5q-52.5 36 -81 106.5q-9 31.5 19.5 42q31.5 15 43.5 -18z" />
    <glyph glyph-name="kcommaaccent" unicode="&#x137;" horiz-adv-x="733" 
d="M633 681l-466.5 -327l466.5 -327q24 -19.5 9 -45q-21 -27 -48 -7.5l-451.5 315v-289.5q0 -33 -34.5 -33q-33 0 -33 33v1468.5q0 33 33 33q34.5 0 34.5 -33v-1050l451.5 318q27 16.5 48 -9q16.5 -28.5 -9 -46.5zM225 40.5q-15 34.5 39 66t79.5 -6q49.5 -64.5 6 -178.5
q-31.5 -90 -129 -232.5q-19.5 -27 -48 -7.5q-27 19.5 -9 48q91.5 133.5 121.5 214.5q27 75 -11.25 72.75t-48.75 23.25z" />
    <glyph glyph-name="kgreenlandic" unicode="&#x138;" horiz-adv-x="733" 
d="M633 681l-466.5 -327l466.5 -327q24 -19.5 9 -45q-21 -27 -48 -7.5l-451.5 315v-289.5q0 -33 -34.5 -33q-33 0 -33 33v712.5q0 33 33 33q34.5 0 34.5 -33v-294l451.5 318q27 16.5 48 -9q16.5 -28.5 -9 -46.5z" />
    <glyph glyph-name="lacute" unicode="&#x13a;" horiz-adv-x="217" 
d="M142.5 1468.5v-1468.5q0 -33 -34.5 -33q-33 0 -33 33v1468.5q0 33 33 33q34.5 0 34.5 -33zM375 1755l-249 -150q-28.5 -16.5 -46.5 13.5q-16.5 27 12 45l247.5 148.5q30 18 48 -10.5q16.5 -30 -12 -46.5z" />
    <glyph glyph-name="lcaron" unicode="&#x13e;" horiz-adv-x="471" 
d="M142.5 1468.5v-1468.5q0 -33 -34.5 -33q-33 0 -33 33v1468.5q0 33 33 33q34.5 0 34.5 -33zM292.5 1431q-16.5 33 38.25 65.25t80.25 -5.25q49.5 -64.5 6 -178.5q-31.5 -90 -129 -231q-19.5 -30 -48 -10.5q-27 21 -9 48q91.5 135 120 216q28.5 75 -9.75 72t-48.75 24z" />
    <glyph glyph-name="lcommaaccent" unicode="&#x13c;" horiz-adv-x="217" 
d="M142.5 1468.5v-1468.5q0 -33 -34.5 -33q-33 0 -33 33v1468.5q0 33 33 33q34.5 0 34.5 -33zM64.5 -163.5q-15 34.5 39 66t79.5 -6q49.5 -64.5 6 -178.5q-31.5 -90 -129 -232.5q-19.5 -27 -48 -7.5q-27 19.5 -9 48q91.5 133.5 121.5 214.5q27 75 -11.25 72.75t-48.75 23.25
z" />
    <glyph glyph-name="ldot" unicode="&#x140;" horiz-adv-x="424" 
d="M142.5 1468.5v-1468.5q0 -33 -34.5 -33q-33 0 -33 33v1468.5q0 33 33 33q34.5 0 34.5 -33zM232.5 670.5q0 -37.5 21.75 -63t53.25 -25.5t54 25.5t22.5 63t-22.5 63.75t-54 26.25t-53.25 -26.25t-21.75 -63.75z" />
    <glyph glyph-name="lslash" unicode="&#x142;" horiz-adv-x="439" 
d="M246 1468.5v-870l114 79.5q25.5 16.5 48 -12q19.5 -28.5 -9 -46.5l-153 -106.5v-513q0 -33 -34.5 -33q-33 0 -33 33v466.5l-97.5 -67.5q-30 -21 -49.5 9q-19.5 25.5 9 46.5l138 96v918q0 33 33 33q34.5 0 34.5 -33z" />
    <glyph glyph-name="nacute" unicode="&#x144;" 
d="M639 354q0 157.5 -66 243q-63 78 -183 78t-181.5 -78q-66 -85.5 -66 -243v-354q0 -33 -34.5 -33q-33 0 -33 33v708q0 34.5 33 34.5q34.5 0 34.5 -34.5v-88.5q3 6 13.5 18q84 105 234 105q151.5 0 235.5 -105q81 -103.5 81 -283.5v-354q0 -33 -34.5 -33q-33 0 -33 33v354z
M532.5 1165.5l-249 -150q-28.5 -16.5 -46.5 13.5q-16.5 27 12 45l247.5 148.5q30 18 48 -10.5q16.5 -30 -12 -46.5z" />
    <glyph glyph-name="napostrophe" unicode="&#x149;" horiz-adv-x="864" 
d="M721.5 354q0 157.5 -66 243q-63 78 -183 78t-181.5 -78q-66 -85.5 -66 -243v-354q0 -33 -34.5 -33q-33 0 -33 33v708q0 34.5 33 34.5q34.5 0 34.5 -34.5v-88.5q3 6 13.5 18q84 105 234 105q151.5 0 235.5 -105q81 -103.5 81 -283.5v-354q0 -33 -34.5 -33q-33 0 -33 33
v354zM97.5 1428q-15 34.5 39 66t79.5 -6q49.5 -64.5 6 -178.5q-31.5 -90 -129 -232.5q-19.5 -27 -48 -7.5q-27 19.5 -9 48q91.5 133.5 121.5 214.5q27 75 -11.25 72.75t-48.75 23.25z" />
    <glyph glyph-name="ncaron" unicode="&#x148;" 
d="M639 354q0 157.5 -66 243q-63 78 -183 78t-181.5 -78q-66 -85.5 -66 -243v-354q0 -33 -34.5 -33q-33 0 -33 33v708q0 34.5 33 34.5q34.5 0 34.5 -34.5v-88.5q3 6 13.5 18q84 105 234 105q151.5 0 235.5 -105q81 -103.5 81 -283.5v-354q0 -33 -34.5 -33q-33 0 -33 33v354z
M561 1119l-171 -132l-168 130.5q-27 21 -7.5 48q22.5 22.5 45 4.5l130.5 -100.5l129 102q25.5 18 48 -4.5q19.5 -27 -6 -48z" />
    <glyph glyph-name="ncommaaccent" unicode="&#x146;" 
d="M639 354q0 157.5 -66 243q-63 78 -183 78t-181.5 -78q-66 -85.5 -66 -243v-354q0 -33 -34.5 -33q-33 0 -33 33v708q0 34.5 33 34.5q34.5 0 34.5 -34.5v-88.5q3 6 13.5 18q84 105 234 105q151.5 0 235.5 -105q81 -103.5 81 -283.5v-354q0 -33 -34.5 -33q-33 0 -33 33v354z
M346.5 46.5q-15 34.5 39 66t79.5 -6q49.5 -64.5 6 -178.5q-31.5 -90 -129 -232.5q-19.5 -27 -48 -7.5q-27 19.5 -9 48q91.5 133.5 121.5 214.5q27 75 -11.25 72.75t-48.75 23.25z" />
    <glyph glyph-name="obreve" unicode="&#x14f;" horiz-adv-x="783" 
d="M390 675q-120 0 -181.5 -78q-66 -85.5 -66 -243q0 -159 66 -241.5q61.5 -79.5 181.5 -79.5t183 79.5q66 82.5 66 241.5q0 157.5 -66 243q-63 78 -183 78zM156 637.5q84 105 234 105q151.5 0 235.5 -105q81 -103.5 81 -283.5q0 -181.5 -81 -283.5
q-82.5 -103.5 -235.5 -103.5q-150 0 -234 103.5q-81 100.5 -81 283.5t81 283.5zM283.5 1080q57 -57 108 -57t105 55.5q24 24 49.5 1.5q24 -24 0 -48q-75 -76.5 -154.5 -76.5q-78 1.5 -156 76.5q-24 22.5 0 48q24 22.5 48 0z" />
    <glyph glyph-name="ohungarumlaut" unicode="&#x151;" horiz-adv-x="783" 
d="M390 675q-120 0 -181.5 -78q-66 -85.5 -66 -243q0 -159 66 -241.5q61.5 -79.5 181.5 -79.5t183 79.5q66 82.5 66 241.5q0 157.5 -66 243q-63 78 -183 78zM156 637.5q84 105 234 105q151.5 0 235.5 -105q81 -103.5 81 -283.5q0 -181.5 -81 -283.5
q-82.5 -103.5 -235.5 -103.5q-150 0 -234 103.5q-81 100.5 -81 283.5t81 283.5zM684 1219.5l-148.5 -249q-18 -28.5 -48 -10.5q-27 16.5 -10.5 45l148.5 247.5q18 30 48 13.5q28.5 -18 10.5 -46.5zM457.5 1227l-148.5 -249q-18 -28.5 -48 -10.5q-27 16.5 -10.5 45
l148.5 247.5q18 30 48 13.5q28.5 -18 10.5 -46.5z" />
    <glyph glyph-name="omacron" unicode="&#x14d;" horiz-adv-x="783" 
d="M390 675q-120 0 -181.5 -78q-66 -85.5 -66 -243q0 -159 66 -241.5q61.5 -79.5 181.5 -79.5t183 79.5q66 82.5 66 241.5q0 157.5 -66 243q-63 78 -183 78zM156 637.5q84 105 234 105q151.5 0 235.5 -105q81 -103.5 81 -283.5q0 -181.5 -81 -283.5
q-82.5 -103.5 -235.5 -103.5q-150 0 -234 103.5q-81 100.5 -81 283.5t81 283.5zM678 1084.5l-570 1.5q-36 0 -34.5 36q0 33 34.5 33h570q33 -1.5 33 -37.5q0 -34.5 -33 -33z" />
    <glyph glyph-name="oslashacute" unicode="&#x1ff;" horiz-adv-x="783" 
d="M694.5 702l-60 -78q72 -102 72 -270q0 -181.5 -81 -283.5q-82.5 -103.5 -235.5 -103.5q-124.5 0 -204 72l-45 -58.5q-19.5 -25.5 -48 -3q-25.5 18 -4.5 45l52.5 67.5q-66 97.5 -66 264q0 183 81 283.5q84 105 234 105q120 0 198 -67.5l54 70.5q19.5 25.5 46.5 3
q25.5 -19.5 6 -46.5zM390 33q120 0 183 79.5q66 82.5 66 241.5q0 132 -48 214.5l-364.5 -477q60 -58.5 163.5 -58.5zM390 675q-120 0 -181.5 -78q-66 -85.5 -66 -243q0 -127.5 42 -207l363 475.5q-60 52.5 -157.5 52.5zM532.5 1165.5l-249 -150q-28.5 -16.5 -46.5 13.5
q-16.5 27 12 45l247.5 148.5q30 18 48 -10.5q16.5 -30 -12 -46.5z" />
    <glyph glyph-name="racute" unicode="&#x155;" horiz-adv-x="762" 
d="M142.5 708v-88.5q3 6 13.5 18q84 105 234 105q100.5 0 175.5 -51q70.5 -46.5 109.5 -142.5q12 -33 -19.5 -43.5t-43.5 19.5q-28.5 73.5 -84 112.5q-55.5 37.5 -138 37.5q-120 0 -181.5 -78q-66 -85.5 -66 -243v-354q0 -33 -34.5 -33q-33 0 -33 33v708q0 34.5 33 34.5
q34.5 0 34.5 -34.5zM522 1165.5l-249 -150q-28.5 -16.5 -46.5 13.5q-16.5 27 12 45l247.5 148.5q30 18 48 -10.5q16.5 -30 -12 -46.5z" />
    <glyph glyph-name="rcaron" unicode="&#x159;" horiz-adv-x="762" 
d="M142.5 708v-88.5q3 6 13.5 18q84 105 234 105q100.5 0 175.5 -51q70.5 -46.5 109.5 -142.5q12 -33 -19.5 -43.5t-43.5 19.5q-28.5 73.5 -84 112.5q-55.5 37.5 -138 37.5q-120 0 -181.5 -78q-66 -85.5 -66 -243v-354q0 -33 -34.5 -33q-33 0 -33 33v708q0 34.5 33 34.5
q34.5 0 34.5 -34.5zM550.5 1119l-171 -132l-168 130.5q-27 21 -7.5 48q22.5 22.5 45 4.5l130.5 -100.5l129 102q25.5 18 48 -4.5q19.5 -27 -6 -48z" />
    <glyph glyph-name="rcommaaccent" unicode="&#x157;" horiz-adv-x="762" 
d="M142.5 708v-88.5q3 6 13.5 18q84 105 234 105q100.5 0 175.5 -51q70.5 -46.5 109.5 -142.5q12 -33 -19.5 -43.5t-43.5 19.5q-28.5 73.5 -84 112.5q-55.5 37.5 -138 37.5q-120 0 -181.5 -78q-66 -85.5 -66 -243v-354q0 -33 -34.5 -33q-33 0 -33 33v708q0 34.5 33 34.5
q34.5 0 34.5 -34.5zM258 25.5q-15 34.5 39 66t79.5 -6q49.5 -64.5 6 -178.5q-31.5 -90 -129 -232.5q-19.5 -27 -48 -7.5q-27 19.5 -9 48q91.5 133.5 121.5 214.5q27 75 -11.25 72.75t-48.75 23.25z" />
    <glyph glyph-name="sacute" unicode="&#x15b;" horiz-adv-x="786" 
d="M147 151.5q33 -58.5 91.5 -87q57 -31.5 144 -31.5q102 0 174 36q60 33 67.5 79.5q15 84 -69 123.75t-184.5 69.75q-114 34.5 -203.25 79.5t-71.25 153q15 78 103.5 124.5q85.5 43.5 201 43.5q99 0 174 -37.5q72 -39 117 -114q18 -30 -12 -45q-30 -16.5 -45 12
q-33 57 -91.5 87t-142.5 30q-100.5 0 -171 -34.5q-60 -34.5 -67.5 -76.5q-12 -64.5 60.75 -98.25t167.25 -59.25q120 -36 220.5 -88.5t79.5 -181.5q-15 -81 -103.5 -126q-85.5 -43.5 -204 -43.5q-100.5 0 -175.5 37.5t-118.5 115.5q-13.5 30 15 45t43.5 -13.5zM534 1165.5
l-249 -150q-28.5 -16.5 -46.5 13.5q-16.5 27 12 45l247.5 148.5q30 18 48 -10.5q16.5 -30 -12 -46.5z" />
    <glyph glyph-name="scedilla" unicode="&#x15f;" horiz-adv-x="786" 
d="M396 46.5q-1.5 -7.5 -4.5 -13.5q96 1.5 165 36q60 33 67.5 79.5q15 84 -69 123.75t-184.5 69.75q-114 34.5 -203.25 79.5t-71.25 153q15 78 103.5 124.5q85.5 43.5 201 43.5q99 0 174 -37.5q72 -39 117 -114q18 -30 -12 -45q-30 -16.5 -45 12q-33 57 -91.5 87t-142.5 30
q-100.5 0 -171 -34.5q-60 -34.5 -67.5 -76.5q-12 -64.5 60.75 -98.25t167.25 -59.25q120 -36 220.5 -88.5t79.5 -181.5q-15 -81 -103.5 -126q-85.5 -43.5 -204 -43.5h-7.5q-4.5 -16.5 -7.5 -33q7.5 7.5 19.5 13.5q54 31.5 79.5 -6q48 -63 6 -178.5
q-31.5 -88.5 -127.5 -229.5q-21 -28.5 -49.5 -10.5q-25.5 21 -10.5 48q93 135 123 217.5q27 73.5 -7.5 85.5q-40.5 -16.5 -63.75 -18t-47.25 25.5q-12 22.5 1.5 60q4.5 15 10.5 33q-51 9 -94.5 30q-75 37.5 -118.5 115.5q-13.5 30 15 45t43.5 -13.5q33 -58.5 91.5 -87
q36 -21 84 -28.5q0 4.5 1.5 10.5h72z" />
    <glyph glyph-name="scircumflex" unicode="&#x15d;" horiz-adv-x="786" 
d="M147 151.5q33 -58.5 91.5 -87q57 -31.5 144 -31.5q102 0 174 36q60 33 67.5 79.5q15 84 -69 123.75t-184.5 69.75q-114 34.5 -203.25 79.5t-71.25 153q15 78 103.5 124.5q85.5 43.5 201 43.5q99 0 174 -37.5q72 -39 117 -114q18 -30 -12 -45q-30 -16.5 -45 12
q-33 57 -91.5 87t-142.5 30q-100.5 0 -171 -34.5q-60 -34.5 -67.5 -76.5q-12 -64.5 60.75 -98.25t167.25 -59.25q120 -36 220.5 -88.5t79.5 -181.5q-15 -81 -103.5 -126q-85.5 -43.5 -204 -43.5q-100.5 0 -175.5 37.5t-118.5 115.5q-13.5 30 15 45t43.5 -13.5zM222 1057.5
l171 132l168 -130.5q27 -21 7.5 -48q-22.5 -22.5 -45 -4.5l-130.5 100.5l-129 -102q-25.5 -18 -48 4.5q-19.5 27 6 48z" />
    <glyph glyph-name="scommaaccent" unicode="&#x219;" horiz-adv-x="786" 
d="M147 151.5q33 -58.5 91.5 -87q57 -31.5 144 -31.5q102 0 174 36q60 33 67.5 79.5q15 84 -69 123.75t-184.5 69.75q-114 34.5 -203.25 79.5t-71.25 153q15 78 103.5 124.5q85.5 43.5 201 43.5q99 0 174 -37.5q72 -39 117 -114q18 -30 -12 -45q-30 -16.5 -45 12
q-33 57 -91.5 87t-142.5 30q-100.5 0 -171 -34.5q-60 -34.5 -67.5 -76.5q-12 -64.5 60.75 -98.25t167.25 -59.25q120 -36 220.5 -88.5t79.5 -181.5q-15 -81 -103.5 -126q-85.5 -43.5 -204 -43.5q-100.5 0 -175.5 37.5t-118.5 115.5q-13.5 30 15 45t43.5 -13.5zM348 -162
q-15 34.5 39 66t79.5 -6q49.5 -64.5 6 -178.5q-31.5 -90 -129 -232.5q-19.5 -27 -48 -7.5q-27 19.5 -9 48q91.5 133.5 121.5 214.5q27 75 -11.25 72.75t-48.75 23.25z" />
    <glyph glyph-name="s_t" unicode="&#xfb06;" horiz-adv-x="1360" 
d="M120 151.5q33 -58.5 91.5 -87q57 -31.5 144 -31.5q102 0 174 36q60 33 67.5 79.5q15 84 -69 123.75t-184.5 69.75q-114 34.5 -203.25 79.5t-71.25 153q15 78 103.5 124.5q85.5 43.5 201 43.5q99 0 174 -37.5q72 -39 117 -114q18 -30 -12 -45q-30 -16.5 -45 12
q-33 57 -91.5 87t-142.5 30q-100.5 0 -171 -34.5q-60 -34.5 -67.5 -76.5q-12 -64.5 60.75 -98.25t167.25 -59.25q120 -36 220.5 -88.5t79.5 -181.5q-15 -81 -103.5 -126q-85.5 -43.5 -204 -43.5q-100.5 0 -175.5 37.5t-118.5 115.5q-13.5 30 15 45t43.5 -13.5zM732 900h120
v568.5q0 33 34.5 33q33 0 33 -33v-568.5h226.5q33 0 33 -31.5q0 -34.5 -33 -34.5h-226.5v-582q0 -109.5 46.5 -166.5q39 -52.5 121.5 -52.5q55.5 0 93 25.5q34.5 24 57 76.5q10.5 30 43.5 18q30 -12 18 -42q-25.5 -70.5 -81 -108q-57 -36 -130.5 -36q-112.5 0 -174 78
q-61.5 75 -61.5 207v582h-120q-33 0 -33 34.5q0 31.5 33 31.5z" />
    <glyph glyph-name="s_p" unicode="&#xe223;" horiz-adv-x="1567" 
d="M928.5 708v-88.5q3 6 13.5 18q84 105 234 105q151.5 0 235.5 -105q81 -103.5 81 -283.5q0 -181.5 -81 -283.5q-82.5 -103.5 -235.5 -103.5q-150 0 -234 103.5q-10.5 12 -13.5 18v-786q0 -33 -34.5 -33q-33 0 -33 33v1405.5q0 34.5 33 34.5q34.5 0 34.5 -34.5zM1176 675
q-120 0 -181.5 -78q-66 -85.5 -66 -243q0 -159 66 -241.5q61.5 -79.5 181.5 -79.5t183 79.5q66 82.5 66 241.5q0 157.5 -66 243q-63 78 -183 78zM147 151.5q33 -58.5 91.5 -87q57 -31.5 144 -31.5q102 0 174 36q60 33 67.5 79.5q15 84 -69 123.75t-184.5 69.75
q-114 34.5 -203.25 79.5t-71.25 153q15 78 103.5 124.5q85.5 43.5 201 43.5q99 0 174 -37.5q72 -39 117 -114q18 -30 -12 -45q-30 -16.5 -45 12q-33 57 -91.5 87t-142.5 30q-100.5 0 -171 -34.5q-60 -34.5 -67.5 -76.5q-12 -64.5 60.75 -98.25t167.25 -59.25
q120 -36 220.5 -88.5t79.5 -181.5q-15 -81 -103.5 -126q-85.5 -43.5 -204 -43.5q-100.5 0 -175.5 37.5t-118.5 115.5q-13.5 30 15 45t43.5 -13.5z" />
    <glyph glyph-name="tbar" unicode="&#x167;" horiz-adv-x="601" 
d="M382.5 1084.5h-222v-184.5h226.5q33 0 33 -31.5q0 -34.5 -33 -34.5h-226.5v-582q0 -109.5 46.5 -166.5q39 -52.5 121.5 -52.5q55.5 0 93 25.5q34.5 24 57 76.5q10.5 30 43.5 18q30 -12 18 -42q-25.5 -70.5 -81 -108q-57 -36 -130.5 -36q-112.5 0 -174 78
q-61.5 75 -61.5 207v582h-120q-33 0 -33 34.5q0 31.5 33 31.5h120v184.5l-121.5 1.5q-36 0 -34.5 36q0 33 34.5 33h121.5v313.5q0 33 34.5 33q33 0 33 -33v-313.5h222q33 -1.5 33 -37.5q0 -34.5 -33 -33z" />
    <glyph glyph-name="tcaron" unicode="&#x165;" horiz-adv-x="604" 
d="M-27 900h120v568.5q0 33 34.5 33q33 0 33 -33v-568.5h226.5q33 0 33 -31.5q0 -34.5 -33 -34.5h-226.5v-582q0 -109.5 46.5 -166.5q39 -52.5 121.5 -52.5q55.5 0 93 25.5q34.5 24 57 76.5q10.5 30 43.5 18q30 -12 18 -42q-25.5 -70.5 -81 -108q-57 -36 -130.5 -36
q-112.5 0 -174 78q-61.5 75 -61.5 207v582h-120q-33 0 -33 34.5q0 31.5 33 31.5zM352.5 1431q-16.5 33 38.25 65.25t80.25 -5.25q49.5 -64.5 6 -178.5q-31.5 -90 -129 -231q-19.5 -30 -48 -10.5q-27 21 -9 48q91.5 135 120 216q28.5 75 -9.75 72t-48.75 24z" />
    <glyph glyph-name="tcommaaccent" unicode="&#x163;" horiz-adv-x="601" 
d="M-27 900h120v568.5q0 33 34.5 33q33 0 33 -33v-568.5h226.5q33 0 33 -31.5q0 -34.5 -33 -34.5h-226.5v-582q0 -109.5 46.5 -166.5q39 -52.5 121.5 -52.5q55.5 0 93 25.5q34.5 24 57 76.5q10.5 30 43.5 18q30 -12 18 -42q-25.5 -70.5 -81 -108q-57 -36 -130.5 -36
q-112.5 0 -174 78q-61.5 75 -61.5 207v582h-120q-33 0 -33 34.5q0 31.5 33 31.5zM273 -171q-15 34.5 39 66t79.5 -6q49.5 -64.5 6 -178.5q-31.5 -90 -129 -232.5q-19.5 -27 -48 -7.5q-27 19.5 -9 48q91.5 133.5 121.5 214.5q27 75 -11.25 72.75t-48.75 23.25z" />
    <glyph glyph-name="ubreve" unicode="&#x16d;" 
d="M142.5 354q0 -159 66 -241.5q61.5 -79.5 181.5 -79.5t183 79.5q66 82.5 66 241.5v354q0 34.5 33 34.5q34.5 0 34.5 -34.5v-708q0 -33 -34.5 -33q-33 0 -33 33v90q-3 -6 -13.5 -19.5q-82.5 -103.5 -235.5 -103.5q-150 0 -234 103.5q-81 100.5 -81 283.5v354
q0 34.5 33 34.5q34.5 0 34.5 -34.5v-354zM283.5 1080q57 -57 108 -57t105 55.5q24 24 49.5 1.5q24 -24 0 -48q-75 -76.5 -154.5 -76.5q-78 1.5 -156 76.5q-24 22.5 0 48q24 22.5 48 0z" />
    <glyph glyph-name="uhungarumlaut" unicode="&#x171;" 
d="M142.5 354q0 -159 66 -241.5q61.5 -79.5 181.5 -79.5t183 79.5q66 82.5 66 241.5v354q0 34.5 33 34.5q34.5 0 34.5 -34.5v-708q0 -33 -34.5 -33q-33 0 -33 33v90q-3 -6 -13.5 -19.5q-82.5 -103.5 -235.5 -103.5q-150 0 -234 103.5q-81 100.5 -81 283.5v354
q0 34.5 33 34.5q34.5 0 34.5 -34.5v-354zM379.5 1227l-148.5 -249q-18 -28.5 -48 -10.5q-27 16.5 -10.5 45l148.5 247.5q18 30 48 13.5q28.5 -18 10.5 -46.5zM606 1219.5l-148.5 -249q-18 -28.5 -48 -10.5q-27 16.5 -10.5 45l148.5 247.5q18 30 48 13.5q28.5 -18 10.5 -46.5
z" />
    <glyph glyph-name="umacron" unicode="&#x16b;" 
d="M142.5 354q0 -159 66 -241.5q61.5 -79.5 181.5 -79.5t183 79.5q66 82.5 66 241.5v354q0 34.5 33 34.5q34.5 0 34.5 -34.5v-708q0 -33 -34.5 -33q-33 0 -33 33v90q-3 -6 -13.5 -19.5q-82.5 -103.5 -235.5 -103.5q-150 0 -234 103.5q-81 100.5 -81 283.5v354
q0 34.5 33 34.5q34.5 0 34.5 -34.5v-354zM678 1084.5l-570 1.5q-36 0 -34.5 36q0 33 34.5 33h570q33 -1.5 33 -37.5q0 -34.5 -33 -33z" />
    <glyph glyph-name="uogonek" unicode="&#x173;" 
d="M675 -33q-54 -34.5 -58.5 -90q0 -21 6.75 -34.5t24.75 -24t51 0q31.5 12 42 -19.5t-19.5 -42q-67.5 -22.5 -107.25 3.75t-53.25 57.75t-10.5 63q4.5 88.5 87 141h1.5v67.5q-3 -6 -13.5 -19.5q-82.5 -103.5 -235.5 -103.5q-150 0 -234 103.5q-81 100.5 -81 283.5v354
q0 34.5 33 34.5q34.5 0 34.5 -34.5v-354q0 -159 66 -241.5q61.5 -79.5 181.5 -79.5t183 79.5q66 82.5 66 241.5v354q0 34.5 33 34.5q34.5 0 34.5 -34.5v-708q0 -31.5 -31.5 -33z" />
    <glyph glyph-name="uring" unicode="&#x16f;" 
d="M142.5 354q0 -159 66 -241.5q61.5 -79.5 181.5 -79.5t183 79.5q66 82.5 66 241.5v354q0 34.5 33 34.5q34.5 0 34.5 -34.5v-708q0 -33 -34.5 -33q-33 0 -33 33v90q-3 -6 -13.5 -19.5q-82.5 -103.5 -235.5 -103.5q-150 0 -234 103.5q-81 100.5 -81 283.5v354
q0 34.5 33 34.5q34.5 0 34.5 -34.5v-354zM246 1074q0 30 11.25 57t30.75 47.25t45.75 31.5t56.25 11.25t56.25 -11.25t45.75 -31.5t30.75 -47.25t11.25 -57q0 -61.5 -42 -103.5t-102 -42t-102 42t-42 103.5zM477 1074q0 36 -25.5 60.75t-61.5 24.75q-34.5 0 -60 -24.75
t-25.5 -60.75q0 -34.5 25.5 -59.25t60 -24.75q36 0 61.5 24.75t25.5 59.25z" />
    <glyph glyph-name="utilde" unicode="&#x169;" 
d="M142.5 354q0 -159 66 -241.5q61.5 -79.5 181.5 -79.5t183 79.5q66 82.5 66 241.5v354q0 34.5 33 34.5q34.5 0 34.5 -34.5v-708q0 -33 -34.5 -33q-33 0 -33 33v90q-3 -6 -13.5 -19.5q-82.5 -103.5 -235.5 -103.5q-150 0 -234 103.5q-81 100.5 -81 283.5v354
q0 34.5 33 34.5q34.5 0 34.5 -34.5v-354zM85.5 981q36 48 70.5 84t75 49.5q88.5 28.5 183 -97.5q33 -48 70.5 -57q19.5 -6 39 -1.5q18 6 40.5 21q55.5 40.5 78 111q9 33 42 25.5q33 -12 24 -43.5q-28.5 -94.5 -102 -148.5q-33 -25.5 -66 -31.5q-40.5 -10.5 -76.5 1.5
q-58.5 18 -105 82.5q-64.5 87 -106.5 72q-25.5 -7.5 -53.25 -38.25t-59.25 -71.25q-21 -30 -48 -7.5t-6 49.5z" />
    <glyph glyph-name="wacute" unicode="&#x1e83;" horiz-adv-x="1192" 
d="M625.5 718.5l210 -613.5l208.5 613.5q12 31.5 43.5 21q30 -12 21 -42l-241.5 -708v-1.5q-3 -6 -7.5 -10.5q-3 -3 -10.5 -7.5h-3l-1.5 -1.5h-3l-1.5 -1.5h-10.5v1.5h-4.5v1.5h-1.5l-12 7.5q-4.5 4.5 -6 10.5v1.5h-1.5l-208.5 615l-210 -615h-1.5v-1.5q-1.5 -6 -7.5 -10.5
q-1.5 -3 -9 -7.5h-3l-1.5 -1.5h-3l-1.5 -1.5h-10.5v1.5h-4.5v1.5h-3l-10.5 7.5q-4.5 4.5 -6 10.5l-1.5 1.5l-241.5 708q-6 31.5 21 42q33 10.5 42 -21l210 -613.5l208.5 613.5l1.5 1.5v1.5q1.5 4.5 7.5 10.5q3 4.5 9 6v1.5h3l1.5 1.5h7.5l1.5 1.5h1.5l1.5 -1.5h7.5v-1.5h3
l1.5 -1.5q4.5 -1.5 9 -6q6 -9 7.5 -10.5v-3zM738 1165.5l-249 -150q-28.5 -16.5 -46.5 13.5q-16.5 27 12 45l247.5 148.5q30 18 48 -10.5q16.5 -30 -12 -46.5z" />
    <glyph glyph-name="wcircumflex" unicode="&#x175;" horiz-adv-x="1192" 
d="M625.5 718.5l210 -613.5l208.5 613.5q12 31.5 43.5 21q30 -12 21 -42l-241.5 -708v-1.5q-3 -6 -7.5 -10.5q-3 -3 -10.5 -7.5h-3l-1.5 -1.5h-3l-1.5 -1.5h-10.5v1.5h-4.5v1.5h-1.5l-12 7.5q-4.5 4.5 -6 10.5v1.5h-1.5l-208.5 615l-210 -615h-1.5v-1.5q-1.5 -6 -7.5 -10.5
q-1.5 -3 -9 -7.5h-3l-1.5 -1.5h-3l-1.5 -1.5h-10.5v1.5h-4.5v1.5h-3l-10.5 7.5q-4.5 4.5 -6 10.5l-1.5 1.5l-241.5 708q-6 31.5 21 42q33 10.5 42 -21l210 -613.5l208.5 613.5l1.5 1.5v1.5q1.5 4.5 7.5 10.5q3 4.5 9 6v1.5h3l1.5 1.5h7.5l1.5 1.5h1.5l1.5 -1.5h7.5v-1.5h3
l1.5 -1.5q4.5 -1.5 9 -6q6 -9 7.5 -10.5v-3zM426 1057.5l171 132l168 -130.5q27 -21 7.5 -48q-22.5 -22.5 -45 -4.5l-130.5 100.5l-129 -102q-25.5 -18 -48 4.5q-19.5 27 6 48z" />
    <glyph glyph-name="wdieresis" unicode="&#x1e85;" horiz-adv-x="1192" 
d="M625.5 718.5l210 -613.5l208.5 613.5q12 31.5 43.5 21q30 -12 21 -42l-241.5 -708v-1.5q-3 -6 -7.5 -10.5q-3 -3 -10.5 -7.5h-3l-1.5 -1.5h-3l-1.5 -1.5h-10.5v1.5h-4.5v1.5h-1.5l-12 7.5q-4.5 4.5 -6 10.5v1.5h-1.5l-208.5 615l-210 -615h-1.5v-1.5q-1.5 -6 -7.5 -10.5
q-1.5 -3 -9 -7.5h-3l-1.5 -1.5h-3l-1.5 -1.5h-10.5v1.5h-4.5v1.5h-3l-10.5 7.5q-4.5 4.5 -6 10.5l-1.5 1.5l-241.5 708q-6 31.5 21 42q33 10.5 42 -21l210 -613.5l208.5 613.5l1.5 1.5v1.5q1.5 4.5 7.5 10.5q3 4.5 9 6v1.5h3l1.5 1.5h7.5l1.5 1.5h1.5l1.5 -1.5h7.5v-1.5h3
l1.5 -1.5q4.5 -1.5 9 -6q6 -9 7.5 -10.5v-3zM403.5 1119q0 37.5 21.75 63.75t53.25 26.25t54 -26.25t22.5 -63.75t-22.5 -63t-54 -25.5t-53.25 25.5t-21.75 63zM636 1119q0 37.5 21.75 63.75t53.25 26.25t54 -26.25t22.5 -63.75t-22.5 -63t-54 -25.5t-53.25 25.5t-21.75 63z
" />
    <glyph glyph-name="wgrave" unicode="&#x1e81;" horiz-adv-x="1192" 
d="M625.5 718.5l210 -613.5l208.5 613.5q12 31.5 43.5 21q30 -12 21 -42l-241.5 -708v-1.5q-3 -6 -7.5 -10.5q-3 -3 -10.5 -7.5h-3l-1.5 -1.5h-3l-1.5 -1.5h-10.5v1.5h-4.5v1.5h-1.5l-12 7.5q-4.5 4.5 -6 10.5v1.5h-1.5l-208.5 615l-210 -615h-1.5v-1.5q-1.5 -6 -7.5 -10.5
q-1.5 -3 -9 -7.5h-3l-1.5 -1.5h-3l-1.5 -1.5h-10.5v1.5h-4.5v1.5h-3l-10.5 7.5q-4.5 4.5 -6 10.5l-1.5 1.5l-241.5 708q-6 31.5 21 42q33 10.5 42 -21l210 -613.5l208.5 613.5l1.5 1.5v1.5q1.5 4.5 7.5 10.5q3 4.5 9 6v1.5h3l1.5 1.5h7.5l1.5 1.5h1.5l1.5 -1.5h7.5v-1.5h3
l1.5 -1.5q4.5 -1.5 9 -6q6 -9 7.5 -10.5v-3zM454.5 1165.5q-28.5 16.5 -12 46.5q18 28.5 48 10.5l247.5 -148.5q28.5 -18 12 -45q-18 -30 -46.5 -13.5z" />
    <glyph glyph-name="ycircumflex" unicode="&#x177;" horiz-adv-x="879" 
d="M790.5 694.5l-637.5 -1405.5q-13.5 -28.5 -45 -16.5q-30 15 -16.5 43.5l310.5 684l-315 694.5q-12 30 16.5 43.5t43.5 -16.5l292.5 -640.5l289.5 640.5q12 28.5 45 16.5q30 -15 16.5 -43.5zM268.5 1057.5l171 132l168 -130.5q27 -21 7.5 -48q-22.5 -22.5 -45 -4.5
l-130.5 100.5l-129 -102q-25.5 -18 -48 4.5q-19.5 27 6 48z" />
    <glyph glyph-name="ygrave" unicode="&#x1ef3;" horiz-adv-x="879" 
d="M790.5 694.5l-637.5 -1405.5q-13.5 -28.5 -45 -16.5q-30 15 -16.5 43.5l310.5 684l-315 694.5q-12 30 16.5 43.5t43.5 -16.5l292.5 -640.5l289.5 640.5q12 28.5 45 16.5q30 -15 16.5 -43.5zM297 1165.5q-28.5 16.5 -12 46.5q18 28.5 48 10.5l247.5 -148.5
q28.5 -18 12 -45q-18 -30 -46.5 -13.5z" />
    <glyph glyph-name="zacute" unicode="&#x17a;" horiz-adv-x="763" 
d="M84 22.5l504 652.5h-480q-33 0 -33 33q0 34.5 33 34.5h547.5q33 0 33 -34.5q0 -16.5 -9 -22.5l-502.5 -652.5h478.5q33 0 33 -33t-33 -33h-547.5q-33 0 -33 33q0 10.5 9 22.5zM523.5 1165.5l-249 -150q-28.5 -16.5 -46.5 13.5q-16.5 27 12 45l247.5 148.5q30 18 48 -10.5
q16.5 -30 -12 -46.5z" />
    <glyph glyph-name="zdotaccent" unicode="&#x17c;" horiz-adv-x="763" 
d="M84 22.5l504 652.5h-480q-33 0 -33 33q0 34.5 33 34.5h547.5q33 0 33 -34.5q0 -16.5 -9 -22.5l-502.5 -652.5h478.5q33 0 33 -33t-33 -33h-547.5q-33 0 -33 33q0 10.5 9 22.5zM306 1119q0 37.5 21.75 63.75t53.25 26.25t54 -26.25t22.5 -63.75t-22.5 -63t-54 -25.5
t-53.25 25.5t-21.75 63z" />
    <glyph glyph-name="Eng" unicode="&#x14a;" horiz-adv-x="964" 
d="M889.5 1468.5v-1815q0 -181.5 -81 -283.5q-82.5 -103.5 -235.5 -103.5q-150 0 -234 103.5q-81 100.5 -81 283.5q0 33 33 33q34.5 0 34.5 -33q0 -159 66 -241.5q61.5 -79.5 181.5 -79.5t183 79.5q66 82.5 66 241.5v340.5l-679.5 1335v-1329q0 -33 -34.5 -33q-33 0 -33 33
v1470q0 19.5 18 27q30 15 45 -13.5l684 -1344v1329q0 33 33 33q34.5 0 34.5 -33z" />
    <glyph glyph-name="eng" unicode="&#x14b;" 
d="M318 -562.5q19.5 -49.5 55.5 -76.5q37.5 -24 93 -24q82.5 0 123 51q45 58.5 45 168l4.5 798q0 157.5 -66 243q-63 78 -183 78t-181.5 -78q-66 -85.5 -66 -243v-354q0 -33 -34.5 -33q-33 0 -33 33v708q0 34.5 33 34.5q34.5 0 34.5 -34.5v-88.5q3 6 13.5 18q84 105 234 105
q151.5 0 235.5 -105q81 -103.5 81 -283.5l-6 -798q0 -130.5 -58.5 -208.5q-60 -78 -175.5 -78q-73.5 0 -130.5 37.5q-52.5 36 -81 106.5q-9 31.5 19.5 42q31.5 15 43.5 -18z" />
    <glyph glyph-name="fraction" unicode="&#x2044;" horiz-adv-x="810" 
d="M780 1452l-693 -1431q-13.5 -30 -45 -15q-30 13.5 -15 43.5l691.5 1432.5q15 30 45 15t16.5 -45z" />
    </font>
</defs>
</svg>
